<?xml version="1.0" encoding="utf-8"?>
<!-- Generator: Adobe Illustrator 25.3.1, SVG Export Plug-In . SVG Version: 6.00 Build 0)  -->
<svg version="1.1" id="レイヤー_1" xmlns="http://www.w3.org/2000/svg" xmlns:xlink="http://www.w3.org/1999/xlink" x="0px"
	 y="0px" viewBox="0 0 618.6 139.3" style="enable-background:new 0 0 618.6 139.3;" xml:space="preserve">
<style type="text/css">
	.st0{fill:#C50018;}
	.st1{fill:#DA3D1F;}
	.st2{fill:#262626;}
	.st3{fill:#DD5834;}
</style>
<path class="st0" d="M91.8,98.2l-11.6,9.6c-0.4,0.3-0.8,0.7-1.2,0.9c-0.7,0.5-1.7,0.4-2.2-0.2c-2.2-2.6-4.3-5.2-6.5-7.8
	c1.9-1,1.9-1,3.2,0.5s2.7,3.2,4.1,4.9c0.3,0.4,0.5,0.7,1.1,0.2c4-3.4,8-6.8,12-10.1c1.6-1.3,3.1-2.6,4.7-3.8
	c0.6-0.4,0.4-0.7,0.1-1.2c-1.3-1.5-2.6-3.1-3.8-4.6S90.3,85,91.4,83l2.9,3.4l3.3,4c1,1.2,0.9,2-0.2,3C95.5,95.1,93.7,96.6,91.8,98.2
	z"/>
<path class="st0" d="M88.4,93.7l-0.2-0.3c-0.5-0.6-0.9-1.3-1.5-1.8s-0.4-0.8,0.1-1.2c0.3-0.2,0.5-0.4,0.8-0.6
	c2.4-1.9,2.4-1.9,4.1,0.7c0.2,0.2,0.4,0.5,0.1,0.8C90.7,92,89.9,93.4,88.4,93.7z"/>
<path class="st0" d="M81.1,99.8c0,0.4-3.2,3.2-3.4,3c-0.8-0.8-1.5-1.8-2.2-2.7c-0.2-0.2,3.2-3,3.4-2.8C79.7,98.1,80.4,99,81.1,99.8z
	"/>
<path class="st1" d="M93.2,63.2C90,40.9,64.4,28.7,45,40.2c-3.4,2.1-6.4,4.7-9,7.8c-0.2,0.2-0.3,0.5-0.5,0.7
	c-5.2,6.9-7.4,15.7-6.1,24.2c3,20.9,25.6,33.3,45,24.7c3.5-1.6,6.7-3.8,9.6-6.4c0.2-0.3,0.4-0.6,0.7-0.9
	C91.6,83.1,94.8,73.1,93.2,63.2z M68.7,44.2c-0.6,2.1-1.2,4.2-1.6,6.4c-0.2,1.3-0.8,1.8-2.1,1.6c-0.2,0-0.4,0-0.6,0
	c-2.1-0.2-4.1-0.3-6.2-0.3c-0.7,0-1.1,0.2-1.2,0.9s-0.1,1.7-0.3,2.5c-0.2,0.8,0.5,0.6,0.9,0.6c2.5,0.1,5,0.2,7.5,0.2
	c0.9,0,1,0.3,0.8,1.1c-0.3,1.1-0.5,2.2-0.8,3.3c-0.1,0.6-0.3,1-1.2,0.8c-2.3-0.5-4.6-0.8-6.9-1.2c-0.7-0.1-0.9,0.2-0.9,0.8
	c0,0.9-0.1,1.8-0.2,2.7c-0.2,1.1,0,2.2,0.5,3.1c0.6,1,0.6,2.3,0,3.3c-1,2.7-3.4,4.6-6.3,4.9c-1.6,0.3-3.2-0.3-4.2-1.7
	c-0.8-1.4-0.8-3.1,0.1-4.5c0.8-1.8,2.4-3.1,4.2-3.7c0.8-0.1,1.4-0.9,1.3-1.7c0,0,0,0,0-0.1c-0.1-6.1-0.4-12.3-0.3-18.5
	c0-1.2,0.3-1.4,1.5-1.5c4.8-0.2,9.5-0.6,14.3-0.9h0.1C69.3,42.3,69.3,42.4,68.7,44.2z"/>
<path class="st2" d="M83.7,82.7l-6.4-11.1c-0.1,1.4-0.2,2.5-0.3,3.6c-0.1,2.6-0.2,5.2-0.4,7.8c-0.1,1.8-0.7,2.2-2.5,2.1
	c-4.1-0.3-8.2-0.6-12.6-0.9c3.5,3,6.8,5.8,10.1,8.6c-0.3,0.3-0.5,0.1-0.7,0c-5.4-2.3-10.7-4.6-16.1-6.8c-0.9-0.4-0.9-0.7-0.4-1.4
	c0.9-1.3,1.8-2.7,2.7-4c0.3-0.6,1-0.9,1.6-0.8c4.3,0.3,8.6,0.6,12.8,0.9c0.8,0.1,1.2-0.1,1.2-1c0.2-4,0.4-8.1,0.6-12.1
	c-0.1-0.6,0.3-1.1,0.9-1.3c1.6-0.6,3.2-1.3,4.7-2.1c0.8-0.4,1-0.1,1.2,0.7c1.3,5.8,2.6,11.7,3.8,17.5C84,82.7,83.9,82.8,83.7,82.7z"
	/>
<g>
	<path class="st0" d="M383.5,53.2c-3.5,7.3-7.1,14.6-10.6,21.9c-4,8.3-8,16.6-12,24.9c-0.2,0.6-0.8,1-1.4,0.9c-2-0.1-4,0-6,0
		c-0.7,0-1-0.2-1.1-0.9c-0.9-6.6-1.8-13.3-2.7-19.9c-1-7.1-1.9-14.3-2.9-21.4c-0.2-1.9,0.4-3.8,0.7-5.7c0.5-3.4,1.1-6.7,1.6-10.1
		c0.1-0.8,0.4-1,1.1-1c1.5,0,2.9,0.1,4.4,0c0.9,0,1.1,0.3,1.2,1.1c0.7,4.8,1.4,9.6,2.1,14.5c0.9,6.5,1.9,12.9,2.8,19.4
		c0,0.2,0.1,0.4,0.2,0.9l3.7-7.8c4.3-9,8.7-18.1,13-27.1c0.2-0.6,0.8-1,1.5-1c6.4,0,12.8,0,19.2,0c0.9,0,1.1,0.2,1,1.1
		c-1.8,10.6-3.6,21.3-5.4,31.9c-1.4,8.2-2.8,16.4-4.1,24.6c-0.2,1-0.4,1.4-1.5,1.4c-3.8-0.1-7.7,0-11.5,0c-0.8,0-1.1-0.2-0.9-1
		c2.6-15.1,5.1-30.1,7.6-45.2c0-0.3,0-0.7,0.1-1S384,53.2,383.5,53.2z"/>
	<path class="st0" d="M191.2,69.7c1.9-5.5,5.3-9.6,10.7-11.6c6.2-2.4,12.9-2.6,19.2-0.5c6.2,2,9.3,7.2,8.4,13.7
		c-1,7.5-2.5,14.8-3.5,22.3c-0.4,2.2-0.5,4.4-0.2,6.6c0.1,0.6,0,0.8-0.6,0.8c-3.6,0-7.2,0-10.8,0c-0.7,0-0.8-0.3-0.8-0.9
		c-0.1-1.9,0.1-3.9,0.4-5.8c-0.2,0.2-0.4,0.2-0.4,0.3c-3.2,5.6-8.2,7.8-14.4,7.5c-4.8-0.2-8.6-2.1-11-6.4s-2.1-12,4.6-16.6
		c4-2.8,8.4-4,13.1-4.7c2.6-0.4,5.1-0.5,7.7-0.8c0.9-0.1,1,0.2,0.9,1c-0.3,1.5-0.5,2.9-0.7,4.4c-0.1,0.7-0.4,0.8-1,0.9
		c-2.8,0-5.5,0.5-8.1,1.5c-3.8,1.6-5,4.8-4.4,8.6c0.5,3.3,3.5,4.8,6.9,3.7c3.2-1,5.1-3.5,6.4-6.4c1.1-2.6,1.8-5.4,2.1-8.2
		c0.4-2.9,1-5.8,1.5-8.7c0.5-2.6-1.2-5.1-3.8-5.7c-0.3-0.1-0.5-0.1-0.8-0.1c-4.5-0.4-7.6,1.4-9.4,5.6c-0.2,0.4-0.2,1-0.9,0.9
		C198.6,70.5,195,70.1,191.2,69.7z"/>
	<path class="st0" d="M146.9,77.6c-3.2,0-6.4,0-9.6,0c-1,0-1.3,0.3-1.5,1.3c-1.1,7-2.4,14-3.5,21c-0.1,0.9-0.5,1.1-1.4,1.1
		c-3.9-0.1-7.9-0.1-11.9,0c-0.9,0-1.1-0.2-0.9-1.1c1.7-9.8,3.3-19.6,4.9-29.4c1.5-9.1,3.1-18.3,4.6-27.4c0.1-0.8,0.4-1,1.2-1
		c3.9,0,7.8,0,11.7,0c0.7,0,0.9,0.2,0.8,0.9c-1.2,7.4-2.4,14.8-3.7,22.3c-0.2,1.1,0.2,1.2,1.1,1.2c6.6,0,13.2,0,19.7,0
		c1.2,0,1.4,0.2,1.1,1.4c-0.6,2.9-1,5.8-1.4,8.7c-0.1,0.8-0.4,1.2-1.3,1.1C153.5,77.5,150.2,77.6,146.9,77.6z"/>
	<path class="st0" d="M253.2,103.5c-5.3,0-9.7-0.9-13.7-3.3c-3.2-1.9-5.4-5.1-6.1-8.8c-0.1-0.5-0.1-0.9,0.6-1c3-0.3,6-0.7,8.9-1
		c0.5-0.1,0.9-0.1,1,0.5c0.7,3.2,2.9,4.6,5.9,5.1c2.1,0.5,4.3,0.4,6.4-0.1c0.8-0.2,1.6-0.7,2.3-1.2c1.8-1.5,2.1-4.9-1-5.9
		c-2.7-0.9-5.5-1.1-8.3-1.8c-1.5-0.4-2.9-0.8-4.3-1.4c-4.8-1.8-7.8-6.7-7.3-11.9c0.5-7.6,5.9-13,13.8-13.8c4.3-0.4,8.6-0.3,12.6,1.5
		c4.2,1.7,7.3,5.4,8.3,9.8c0.1,0.5,0.2,0.8-0.4,0.9c-2.7,0.5-5.5,1-8.2,1.6c-0.5,0.1-0.8,0-1-0.5c-1.1-3.4-3.3-5-6.9-5.2
		c-1.7-0.3-3.4,0.1-4.9,1c-1.2,0.7-1.9,2.1-1.8,3.5c0.2,1.6,1.3,2.3,2.7,2.7c2.4,0.7,4.9,0.9,7.3,1.5c1.4,0.3,2.7,0.7,4.1,1.2
		c6,2.3,8.4,6.1,7.9,12.5s-5.2,11.6-11.8,13.3C257.4,103.2,255.3,103.5,253.2,103.5z"/>
	<path class="st0" d="M282.7,100.9c-1.8,0-3.7,0-5.5,0c-0.8,0-0.9-0.3-0.8-1c1.5-9.1,3.1-18.2,4.6-27.3c1.6-9.8,3.3-19.5,4.9-29.3
		c0.2-1,0.5-1.5,1.6-1.4c3.3,0.1,6.7,0.1,10,0c1.2,0,1.4,0.3,1.2,1.5c-1.7,10.2-3.4,20.4-5.1,30.6c-1.5,8.7-2.9,17.3-4.3,26
		c-0.1,0.8-0.4,1-1.1,1C286.3,100.9,284.5,100.9,282.7,100.9z"/>
	<path class="st0" d="M170.7,100.9c-1.8,0-3.6-0.1-5.4,0c-0.9,0-1-0.3-0.9-1.1c1-5.7,1.9-11.3,2.9-17c1.8-10.7,3.6-21.5,5.4-32.2
		c0.4-2.6,0.9-5.2,1.3-7.8c0.1-0.8,0.4-0.9,1.2-0.9c3.5,0,7,0.1,10.5,0c1.2,0,1.2,0.3,1.1,1.3c-1.1,6.1-2.1,12.3-3.1,18.4
		c-1.8,10.8-3.6,21.5-5.4,32.3c-0.3,2-0.7,4.1-1,6.2c-0.1,0.6-0.4,0.8-1,0.8C174.4,100.9,172.5,100.9,170.7,100.9z"/>
	<path class="st0" d="M453.6,100.9c-1.8,0-3.6-0.1-5.4,0c-0.8,0-1-0.2-0.8-1c0.9-5.3,1.8-10.6,2.7-15.8l5.4-32.2
		c0.5-3,1-6.1,1.5-9.1c0.1-0.7,0.4-0.8,1-0.8c3.6,0,7.2,0,10.9,0c1,0,1,0.4,0.9,1.1c-0.8,4.6-1.6,9.3-2.3,13.9l-5.6,33.7
		c-0.5,3.1-1,6.2-1.5,9.3c-0.1,0.7-0.4,0.9-1,0.9C457.2,100.9,455.4,100.9,453.6,100.9z"/>
	<path class="st2" d="M542.2,91.2c-0.3,2-0.7,4.1-1,6.2c-0.1,0.5-0.4,0.9-0.8,1.2c-5,4.6-12.7,4.4-17.4-0.6
		c-0.3-0.3-0.6-0.7-0.9-1.1c-2.4-3.5-3.7-7.6-3.6-11.9c-0.3-7.5,1.6-14.8,5.7-21.1c2.5-3.9,5.8-6.7,10.5-7.5
		c3.6-0.6,7.1-0.5,10.1,1.9c0.9,0.7,1.6,1.6,2.1,2.6c0.1,0.2,0.2,0.4,0.2,0.7c-0.4,2.4-0.8,4.8-1.2,7.5c-1.3-2.5-2.9-4-5.6-3.9
		c-1.7,0-3.2,0.8-4.2,2.1c-1.9,2.4-2.7,5.2-3.3,8.1c-1.1,4-1.4,8.1-1,12.1c0.3,2.3,1.3,4.1,3.6,4.9s4.2,0,6-1.6l0.5-0.4
		C542.5,90.5,542.2,90.9,542.2,91.2z"/>
	<path class="st0" d="M548.7,100.9c-1.6,0-3.2-0.1-4.9,0c-0.9,0-1-0.3-0.9-1.1c1-5.7,1.9-11.4,2.9-17.1c1.8-10.8,3.6-21.6,5.4-32.4
		c0.4-2.5,0.9-5.1,1.3-7.6c0.1-0.5,0.3-0.8,0.9-0.8c3.5,0,6.9,0,10.4,0c1,0,0.8,0.6,0.7,1.1c-0.6,3.6-1.2,7.2-1.8,10.8l-5.9,35.6
		c-0.6,3.5-1.2,7-1.8,10.6c-0.1,0.7-0.4,0.9-1.1,0.9C552.1,100.9,550.4,100.9,548.7,100.9z"/>
	<path class="st0" d="M330.7,100.9c-1.5,0-3.1,0-4.6,0c-0.7,0-0.9-0.1-0.8-0.9c1.5-8.6,2.9-17.1,4.3-25.7
		c1.8-10.4,3.5-20.9,5.2-31.4c0.1-0.7,0.3-1,1.1-1c3.1,0,6.2,0,9.2,0c0.8,0,0.9,0.2,0.8,1c-1.5,9.2-3.1,18.5-4.6,27.7
		c-1.6,9.8-3.3,19.5-4.9,29.3c-0.1,0.8-0.4,1-1.2,1C333.8,100.9,332.2,100.9,330.7,100.9z"/>
	<path class="st0" d="M592.2,92c-2.3,4.7-4.5,9.5-7,14.2c-1.7,3.2-3.7,6.1-6.9,8c-2.2,1.2-4.7,1.9-7.3,2c-2.2,0.2-4.3,0.2-6.5,0
		c-0.7,0-0.9-0.2-0.8-1c0.2-2.6,0.5-5.2,0.6-7.8c0-1.1,0.5-1.2,1.3-1.1c2.5,0.5,5,0.5,7.4,0c0.7-0.1,1.3-0.4,1.8-0.8
		c1.4-0.7,2.4-2,2.9-3.4c2.3-5.2,5-10.1,7.5-15.2c3.4-6.7,6.2-13.7,9.3-20.5c1.3-2.8,2.5-5.6,3.7-8.4c0.2-0.6,0.7-0.9,1.3-0.9
		c2.7,0,5.3,0.1,8,0c1,0,1,0.3,0.7,1.1c-3.9,8.2-7.9,16.5-11.8,24.9C595,86,593.7,89,592.2,92z"/>
	<path class="st2" d="M297.5,67c0.5-2.6,0.9-5.2,1.4-7.7c0.1-0.3,0.3-0.6,0.6-0.8c4.2-2.8,11.9-3.5,16.4,0.8
		c3.1,2.9,3.7,6.6,3.2,10.6c-1.3,10.1-3.2,20.1-4.9,30.2c-0.1,0.7-0.4,1-1.1,1c-3.6,0-7.2,0-10.7,0c-0.9,0-1-0.3-0.9-1.1
		c1.5-8.6,2.9-17.2,4.3-25.8c0.2-1,0.3-2,0.4-3c0.2-3.4-2.5-5.5-6.2-4.8C299.2,66.4,298.4,66.7,297.5,67z"/>
	<path class="st0" d="M417.7,81.2h-0.2c-3.1,0-3.2,0-3.1,3.2s0.9,6.2,4.2,7.8c0.4,0.2,0.4,0.4,0.3,0.8c-0.5,2.7-0.9,5.3-1.3,8
		c-0.1,0.8-0.4,0.7-1,0.6c-7.9-1.7-12.9-6.7-14.4-14.4c-2.1-10.4,1-19.4,9.1-26.5c3.6-3.2,8.1-4.4,12.9-4.5c0.6,0,0.9,0.1,0.7,0.8
		c-0.4,2.2-0.8,4.4-1.1,6.7c-0.1,0.5-0.2,0.7-0.7,0.8c-3.2,0.6-5,2.8-6.3,5.7c-1.6,3.8-1.6,3.8,2.4,3.8c1,0,2.2-0.4,2.8,0.2
		s-0.1,1.8-0.3,2.7c-0.2,1.1-0.4,2.2-0.5,3.3c-0.1,0.9-0.5,1.1-1.3,1S418.4,81.2,417.7,81.2z"/>
	<path class="st0" d="M575.5,98.5c-1.1-5-2.1-9.7-3.2-14.4c-1.9-8.7-3.8-17.3-5.7-25.9c-0.2-0.9,0-1.1,0.9-1.1c3.7,0,7.4,0,11.1,0
		c0.8,0,1.2,0.2,1.3,1c1.3,7.6,2.7,15.2,4,22.8c0.1,0.4,0.1,0.8-0.1,1.2C581,87.4,578.3,92.8,575.5,98.5z"/>
	<path class="st2" d="M432.9,81.2c-3,0-6,0-9,0c-0.8,0-1.1-0.1-0.9-1c0.4-1.7,0.6-3.3,0.8-5c0.1-0.9,0.4-1.3,1.4-1.2
		c1.6,0.1,3.2,0,4.9,0c0.8,0,1.1-0.2,1.2-1c0.7-4.2-1-7.1-5-8.5c-0.5-0.2-0.6-0.4-0.5-0.9c0.4-2.2,0.8-4.3,1.1-6.5
		c0.1-0.8,0.5-0.8,1.1-0.7c6.6,1,11.1,4.7,13.6,10.7c1.9,4.3,2,8.9,1.3,13.5c-0.1,0.8-0.5,0.7-1,0.7
		C438.9,81.2,435.9,81.2,432.9,81.2z"/>
	<path class="st2" d="M154.3,53.3c-3.5,0-7.1,0-10.6,0c-0.9,0-1.1-0.2-1-1.1c0.5-3,1-6,1.5-9c0.1-0.8,0.4-1.2,1.3-1.2
		c7,0,14.1,0,21.1,0c0.9,0,1.1,0.2,1,1.1c-0.5,3-1,6-1.5,9c-0.1,0.9-0.5,1.2-1.4,1.2C161.2,53.2,157.8,53.3,154.3,53.3z"/>
	<path class="st0" d="M421.7,102c-2.4,0.1-2.3,0.1-1.9-2.2c0.4-2,0.7-4.1,1-6.1c0.1-0.5,0.1-0.8,0.8-0.8c4.1,0,6.7-2.3,8.3-5.9
		c0.4-0.9,0.8-1.1,1.8-0.9c2.7,0.6,5.5,0.9,8.2,1.4c1.4,0.2,1.4,0.2,0.8,1.6C437.1,97.3,430.7,101.6,421.7,102z"/>
	<path class="st2" d="M90,25.4c2.1,0.6,2.3,1.3,1.2,3.1c-0.7,1.1-1.4,2.1-2,3.3c-0.4,0.7-0.8,0.5-1.3,0.2s-1.1-0.5-0.5-1.3
		c0.7-1,1.4-2.2,2-3.3c0.2-0.3,0.7-0.7,0.2-0.9s-0.6,0.4-0.8,0.7c-0.7,1.1-1.4,2.1-2,3.3c-0.4,0.7-0.8,0.4-1.2,0.1s-1.2-0.4-0.6-1.2
		c1.2-1.8,2.4-3.7,3.5-5.6c0.4-0.7,0.7-0.7,1.3-0.3s1.1,0.6,0.4,1.4C90.2,25,90.1,25.2,90,25.4z"/>
	<path class="st2" d="M105.7,86.7c0.9,0.3,1.9,0.7,2.8,1.1c0.6,0.2,1.1,0.6,1.7,0.8c0.9,0.3,1.1,0.7,0.6,1.6
		c-0.3,0.6-0.5,0.8-1.2,0.4c-1.2-0.6-2.5-1.1-3.7-1.7c-0.2-0.1-0.6-0.4-0.7,0s0.3,0.4,0.5,0.5c1.2,0.6,2.5,1.2,3.7,1.7
		c0.8,0.3,0.7,0.7,0.4,1.2s-0.4,1.1-1.2,0.7c-1.6-0.8-3.2-1.5-4.8-2.2c-0.6-0.2-0.6-0.5-0.4-1c0.4-0.7,0.8-1.5,1-2.4
		C104.5,87,104.9,86.7,105.7,86.7z"/>
	<path class="st2" d="M113.7,74.5c-0.2-0.5-0.7-0.8-1.2-0.7c-1.2-0.1-2.3-0.2-3.5-0.3c-0.5,0-1.2,0.2-1-0.8c0.1-0.7-0.1-1.4,1.1-1.2
		c1.6,0.2,3.3,0.3,5,0.4c0.6,0.1,0.9,0.3,0.8,0.9c-0.2,0.8-0.3,1.6-0.2,2.4c0.1,0.6-0.2,1.1-0.8,1.3c-0.1,0-0.3,0-0.4,0
		c-1.7-0.1-3.5-0.2-5.2-0.4c-1-0.1-0.3-0.9-0.4-1.4s0.1-0.7,0.7-0.7C110.2,74.3,111.9,74.3,113.7,74.5z"/>
	<path class="st2" d="M110.7,57.7c0.6-0.1,1.2-0.2,1.8-0.3c0.9-0.3,1,0.3,1.2,1c0.2,0.9-0.4,0.8-0.9,0.9c-1.6,0.2-3.3,0.4-4.9,0.6
		c-1.3,0-2.4-1-2.4-2.3c0-0.1,0-0.3,0-0.4c0.1-0.5,0.7-0.6,0.9-0.3c0.5,0.8,1,0.3,1.5,0c1.4-0.7,2.8-1.3,4.2-2
		c0.3-0.1,0.7-0.6,0.8,0s0.8,1.2-0.1,1.6l-2.4,1c-0.1,0.1-0.2,0.2-0.2,0.2C110.2,57.9,110.5,57.8,110.7,57.7z"/>
	<path class="st0" d="M116.4,68.4c-0.1,0.8,0.3,1.8-1,1.6c-0.4,0-0.7-0.1-0.7-0.6c0.1-0.7-0.4-0.8-0.9-0.8s-0.7,0.3-0.6,0.8
		s-0.3,0.6-0.7,0.6s-0.9,0.2-0.9-0.5c0.1-0.9-0.5-0.8-1-0.8s-0.9,0.2-0.8,0.9c0.1,0.9-0.6,0.7-1.1,0.8c-0.7,0.1-0.5-0.5-0.5-0.8
		c-0.1-0.7,0-1.4-0.1-2.1s0.1-0.7,0.6-0.8c2.3,0,4.7-0.1,7-0.2c0.5,0,0.7,0.1,0.7,0.6C116.3,67.5,116.3,68,116.4,68.4z"/>
	<path class="st2" d="M113,79.8c-1.6-0.5-3.1-0.8-4.8-0.9c0,0.6,0.3,0.7,0.6,0.7c1.2,0.1,1,0.8,0.7,1.5c-0.3,0.9-1,0.3-1.4,0.1
		c-0.9-0.5-1.4-1.5-1-2.5c0.2-1.1,0.8-1.8,2-1.8c1.3,0.1,2.6,0.3,3.8,0.8c1.1,0.4,1.4,1.7,1,3c-0.3,1-1.4,1.6-2.5,1.3
		c-0.5-0.1-0.5-0.5-0.3-0.7s-0.2-1.2,0.7-1.2C112.2,80.2,112.7,80.1,113,79.8z"/>
	<path class="st0" d="M72,21.6c-0.6-0.2-0.8,0.1-0.8,0.5s-0.2,1-0.2,1.5c0,1.1-0.6,1.4-1.6,1.1c-0.5-0.1-0.8-0.3-0.7-0.9
		c0.4-2.2,0.8-4.5,1.2-6.8c0-0.1,0-0.2,0.1-0.2C71,16,72,16.9,73.1,17c0.8,0.1,0.3,0.8,0.3,1.2s-0.4,0.4-0.8,0.3
		c-0.6-0.1-0.9,0-0.9,0.6s0,0.9,0.6,0.9s0.4,0.6,0.4,1C72.7,21.7,72.4,21.7,72,21.6z"/>
	<path class="st2" d="M75.1,17.4c1.5,0.2,1.6,0.3,1.2,1.7c-0.5,1.9-1,3.9-1.4,5.8c-0.2,0.7-0.4,1-1.2,0.7c-0.6-0.2-1.2-0.2-1-1.2
		c0.6-2.1,1.1-4.3,1.6-6.4C74.5,17.6,74.5,17.1,75.1,17.4z"/>
	<path class="st2" d="M101.9,46.5c-0.6-0.3-0.7-0.9-1-1.3s0.1-0.6,0.4-0.7c2-1.2,3.9-2.5,5.9-3.7c0.8-0.5,0.9,0.3,1.1,0.7
		s0.8,0.7,0,1.2c-2,1.2-3.9,2.5-5.9,3.7L101.9,46.5z"/>
	<path class="st2" d="M106.8,97.6c-0.6-0.8-2.2-0.4-1.7-2.1c0.1-0.3-0.3-0.6-0.6-0.7c-0.6-0.4-1.3-0.8-1.9-1.1c-1-0.4-1-0.9-0.4-1.8
		c0.4-0.6,0.7-0.5,1.2-0.2c1.3,0.8,2.6,1.6,4,2.3s1.4,1.3,0.3,2C107,96.5,107.1,97,106.8,97.6z"/>
	<path class="st0" d="M111.9,64c-0.6,0-1.1-0.4-1.1-1c0,0,0,0,0-0.1c0-0.6,0.4-1.1,1-1.1c0,0,0.1,0,0.1,0c0.6,0,1,0.4,1,1
		C112.9,63.4,112.5,63.9,111.9,64C111.9,64,111.9,64,111.9,64z"/>
	<path class="st0" d="M95.1,30.9C95,31.6,94.6,32,93.9,32c-0.6-0.1-1-0.6-0.9-1.2c0.1-0.5,0.5-0.9,1-0.9
		C94.6,29.9,95.1,30.3,95.1,30.9z"/>
	<path class="st2" d="M85.3,22.5c-0.8-0.4-1.6-0.9-2.4-0.3c-0.7,0.5-1.1,1.3-0.9,2.2c0.2,0.5,0.4,0.9,0.7,1.3c0,0,0,0,0,0.1
		c0.4,0.4,0.8,0.8,0.5,1.4c-0.1,0.2-0.2,0.5-0.5,0.4s-0.3-0.4-0.2-0.6c0.1-0.2,0.2-0.4,0.1-0.7c-0.1-0.1-0.1-0.2-0.2-0.3
		c-1.3-0.5-1.7-0.3-1.7,0.8c0,1.1,0.8,1.6,1.7,2c0.7,0.5,1.7,0.3,2.2-0.4c0.8-1,0.7-1.7-0.3-3.4c-0.2-0.2-0.3-0.4-0.4-0.6
		c-0.1-0.3-0.1-0.7,0.2-0.9c0.1-0.1,0.3-0.2,0.4,0s0,0.5,0,0.8c0,0.2,0.1,0.3,0.1,0.4c0.6,0.2,1.5,1.1,1.7-0.5
		C86.5,23.5,86,22.7,85.3,22.5z"/>
	<path class="st0" d="M102.2,33.3c-0.7-0.8-1.1-0.7-1.7-0.1c-0.5,0.4-0.9,0.7-1.4,1.1c0.1-0.5,0.4-1,0.7-1.3
		c0.8-0.8,0.9-1.5-0.1-2.2c-0.1-0.1-0.2-0.2-0.3-0.4c-0.4-0.6-0.7-0.6-1.2-0.1c-1.6,1.6-3.2,3.2-4.8,4.7c-0.5,0.4-0.4,0.8,0,1.1
		c0.4,0.3,0.6,1,1.3,0.3c0.5-0.7,1.2-1.2,2-1.5c-0.6,0.7-1.2,1.5-1.5,1.9s-0.3,0.7,0.1,1.1s0.7,0.2,1,0c0.7-0.6,1.4-1.1,2.2-1.5
		c-0.2,0.9-1.1,1.2-1.6,1.8c-0.3,0.4-0.8,0.6-0.2,1.2c0.5,0.4,0.8,1.2,1.5,0.3c0,0,0,0,0.1,0c0.3-0.5,0.7-0.9,1.2-1.2l0,0
		c0,0,0,0,0,0c0.9-0.9,1.8-1.8,2.7-2.7C103.4,34.6,103.3,34.6,102.2,33.3z M98.5,36.4c0,0,0.1-0.1,0.1-0.1L98.5,36.4z"/>
	<path class="st2" d="M542.2,91.2c-0.1-0.3,0-0.6-0.3-0.8c0.1-0.2,0.3-0.5,0.4-0.3C542.6,90.5,542.4,90.9,542.2,91.2z"/>
	<path class="st3" d="M383.5,53.2l0.3-0.7c0.2,0.4,0.2,0.9-0.1,1.2L383.5,53.2z"/>
	<path class="st0" d="M61.2,119.1c0-0.7,0-1.3,0-2c0-0.3,0.1-0.7-0.3-0.7s-0.4,0.4-0.4,0.7c0,0.1,0,0.2,0,0.4c0.1,0.9-0.4,1-1.2,0.9
		s-1.1-0.3-1-1.2c0-1.2,0.9-2.3,2.2-2.3c0.1,0,0.2,0,0.3,0c1.7,0,2.5,0.7,2.5,2.4c0,1.4-0.1,2.8-0.2,4.2s-0.9,2-2.3,2
		s-2.5-0.7-2.7-2c-0.2-1.6,0-1.8,1.2-1.8c0.9,0,1.1,0.4,1,1.1c-0.1,0.2-0.1,0.5-0.1,0.7c0,0.2,0.1,0.5,0.4,0.5s0.4-0.3,0.4-0.5
		C61.1,120.7,61.1,119.9,61.2,119.1L61.2,119.1z"/>
	<path class="st2" d="M75.9,114.3c-0.4,0.4-0.1,0.8,0,1.1c0.3,1.1,0.7,2.2,1,3.3c0.3,0.6,0,1.3-0.7,1.6c-0.2,0.1-0.5,0.1-0.8,0.1
		c-0.4,0-0.4-0.4-0.4-0.6c-0.5-1.7-1-3.3-1.5-5c-0.1-0.3-0.3-0.7,0-0.8c1.2-0.4,2.4-0.8,3.7-1.1c0.4-0.1,0.8,0.4,0.9,0.9
		c0.5,1.6,1,3.2,1.5,4.8c0.3,0.9-0.5,0.7-1,0.9s-0.9,0.3-1.1-0.4c-0.3-1.2-0.7-2.4-1.1-3.6C76.4,115,76.4,114.6,75.9,114.3z"/>
	<path class="st2" d="M12.4,71.8c-0.5,0-0.9-0.1-1.4,0c-1,0.1-0.7-0.7-0.8-1.2c-0.1-0.7,0.4-0.7,0.9-0.6c1.7,0.1,3.3,0.2,5,0.4
		c1.3,0.1,2.3,1.2,2.2,2.4c0,0.2-0.1,0.5-0.1,0.7c0,0.3-0.3,0.5-0.6,0.4c-0.1,0-0.3-0.1-0.3-0.2c-0.4-0.9-1-0.4-1.5-0.3
		c-1.5,0.3-2.9,0.7-4.4,1.1c-0.3,0.1-0.9,0.5-0.9-0.2c0-0.6-0.5-1.4,0.6-1.6c0.6-0.1,1.2-0.2,1.8-0.3c0.3-0.2,0.7-0.4,1.1-0.4
		C13.5,72,12.9,71.9,12.4,71.8z"/>
	<path class="st0" d="M86.8,115.1c0.9,2.5,0.9,2.5-1.1,3.1c-0.2-0.7-0.4-1.4-0.5-2.2c-0.2-1.8-0.8-3.5-1.7-5
		c-0.4-0.6-0.1-0.9,0.4-1.1s0.9-0.8,1.3,0c0.9,2.2,2.7,3.6,4.3,5.3c0.2,0.2,1,0.5,0.3,0.9c-0.5,0.3-1,1.1-1.7,0.3
		C87.7,116.1,87.5,115.5,86.8,115.1z"/>
	<path class="st2" d="M18.5,96.1c1.3-0.6,2.6-1.3,3.8-2.1c0.2-0.1,0.2-0.3,0.1-0.5c0,0,0,0,0-0.1c-0.2-0.2-0.4,0-0.6,0
		c-0.4,0-0.7,0.8-1.2,0.1c-0.7-1-0.5-1.5,0.6-1.8c1.1-0.3,2.1,0.3,2.5,1.4c0.6,0.8,0.4,2-0.4,2.6c0,0,0,0-0.1,0
		c-0.9,0.6-1.9,1.2-2.9,1.7c-1,0.5-2.2,0.1-2.7-0.9c0,0,0-0.1,0-0.1c-0.7-0.9-0.6-2.1,0.3-2.8c0,0,0.1-0.1,0.1-0.1
		c0.3-0.2,0.7-0.7,1-0.1c0.2,0.5,1.1,0.9,0.2,1.6C18.7,95.2,18.5,95.6,18.5,96.1z"/>
	<path class="st2" d="M35.2,107.8c0.7-1.1,1.3-1,2.3-0.3c0.7,0.5,1,0.8,0.5,1.8c-0.8,1.4-1.4,2.9-2.1,4.4c-0.1,0.3-0.2,1-0.8,0.5
		c-0.4-0.3-1.3-0.4-0.8-1.3c0.5-0.9,0.9-1.8,1.2-2.8c-0.6,0.7-1.2,1.4-1.8,2.2c-0.6,1-1.1,0.2-1.6-0.1c-0.8-0.4,0-0.7,0.2-1
		C32.5,110.8,34.8,108.3,35.2,107.8z"/>
	<path class="st2" d="M40.8,118.1c-0.4-0.3-1.5-0.6-1.4-0.8c0.4-0.6-0.9-1.8,0.7-2c0.6-0.1,1.7-3.4,1.5-4.1c0-0.3,0.1-0.6,0.3-0.8
		c0.2-0.2,0.5,0,0.7,0.1c1.5,0.6,1.7,1.1,1.1,2.5c-0.5,1.3-1.5,2.4-1.5,4C42.1,117.3,41.2,117.7,40.8,118.1z"/>
	<path class="st2" d="M16.1,93.4c-1.1,0.5-1.4-0.4-1.7-1.1s0.7-1.9,1.3-1.9c1.7,0,3.2-0.8,4.2-2.1c0.2-0.3,0.6-0.7,1.1,0
		c0.9,1.3,0.7,2-0.7,2.8c-1.2,0.7-2.7,0.8-3.5,2.1C16.8,93.4,16.4,93.4,16.1,93.4z"/>
	<path class="st2" d="M17.4,75.5c0.2,1.1-0.3,1.5-1.2,1.7l-3.5,0.5c-0.6,0.1-1,0.6-1.9,0.4c-1.3-0.3-0.9-1.1-1-1.7
		c-0.1-0.3,1.4-1.2,1.7-1.1c1.6,0.6,3.4,0.3,4.8-0.7c0.2-0.1,0.5-0.2,0.7-0.1C17.6,74.7,17.3,75.3,17.4,75.5z"/>
	<path class="st2" d="M53.7,121.2c0.4-0.9-0.4-2.2,1.2-2.4c0.3,0,0.4-0.5,0.4-0.8c0.2-0.7,0.3-1.4,0.3-2.1c0-1.3,0.6-1.3,1.6-1.1
		c0.5,0.1,0.6,0.3,0.5,0.8c-0.2,1.5-0.4,3-0.6,4.6s-0.5,1.7-1.8,1.2C54.8,121.2,54.2,121.2,53.7,121.2z"/>
	<path class="st2" d="M71.9,121.2c-0.4-0.3-0.9-0.2-1.2,0.2c-0.1,0.1-0.3,0.1-0.4,0c0-0.1-0.1-0.1-0.1-0.2c0.1-0.7-0.9-1.7,0.4-2.2
		c0.4-0.2,0.3-0.6,0.3-1c-0.1-0.7-0.2-1.4-0.4-2.1c-0.3-1.1,0.1-1.5,1.2-1.6c0.5,0,0.7,0.1,0.8,0.6c0.2,1.6,0.6,3.1,0.8,4.6
		C73.5,121,73.4,121.2,71.9,121.2z"/>
	<path class="st2" d="M37.9,115.9c-0.5-0.2-1-0.5-1.4-0.9c-0.4-0.3,0.1-0.7,0.3-1c0.8-1.5,1.7-2.9,2.4-4.3c0.4-0.9,0.9-0.5,1.3-0.2
		s1.1,0.4,0.6,1.2c-0.9,1.5-1.7,3-2.6,4.5C38.4,115.5,38.3,115.8,37.9,115.9z"/>
	<path class="st2" d="M11.4,80.3c-0.2-0.6,0.2-0.7,0.5-0.8c1.8-0.4,3.6-0.7,5.4-1.2c0.9-0.2,0.8,0.4,0.8,0.8s0.6,1.1-0.4,1.3
		c-1.8,0.4-3.6,0.8-5.4,1.2C11.1,81.9,11.8,80.6,11.4,80.3z"/>
	<path class="st2" d="M20.5,87.1c0.1,0.4-0.3,0.5-0.5,0.6c-1.7,0.7-3.3,1.3-5,2c-0.7,0.3-0.9-0.1-1-0.6s-0.8-1,0.2-1.4
		c1.5-0.5,3-1.2,4.5-1.8C19.7,85.4,20.5,85.9,20.5,87.1z"/>
	<path class="st0" d="M90.8,111.4c0,0.6-0.4,1-1,1c0,0,0,0-0.1,0c-0.6,0-1.1-0.5-1.1-1.1c0-0.6,0.5-1.1,1.1-1.1
		C90.4,110.3,90.7,110.8,90.8,111.4z"/>
	<path class="st0" d="M25.9,104.7c-0.6-0.1-1.1-0.4-1-1.1c0-0.6,0.5-1.1,1.1-1.1c0.6,0,1,0.5,1,1.1C27,104.2,26.6,104.6,25.9,104.7z
		"/>
	<path class="st0" d="M68.2,119.1c-0.1,0.7-0.4,1.1-1.1,1.1c-0.6,0-1-0.4-1.1-0.9c0,0,0-0.1,0-0.1c0-0.6,0.4-1,0.9-1c0,0,0,0,0.1,0
		C67.6,118.1,68.1,118.5,68.2,119.1C68.2,119.1,68.2,119.1,68.2,119.1z"/>
	<path class="st2" d="M13.8,89.7c0,0.3-0.2,0.5-0.4,0.5c0,0-0.1,0-0.1,0c-0.9-0.1-0.7-1-0.9-1.5s0.4-0.6,0.6-0.5
		C13.6,88.4,13.5,89.2,13.8,89.7z"/>
	<path class="st2" d="M36.3,115.5c0.4,0.4,1.3,0.3,1.4,1.1c0,0.2-0.2,0.8-0.6,0.5s-1.3-0.3-1.4-1.1c0-0.3,0.2-0.5,0.5-0.5
		C36.2,115.5,36.3,115.5,36.3,115.5z"/>
	<path class="st2" d="M11.2,81.3c0.1,0.6-0.2,0.8-0.5,0.7c-0.9-0.2-0.5-1-0.7-1.5s0.2-0.6,0.5-0.6C11.3,80.1,10.9,80.9,11.2,81.3z"
		/>
	<path class="st2" d="M18.8,82.1c0,0,0-0.1,0-0.1c-0.1-0.4-0.5-0.5-0.9-0.4c-1.6,0.3-3.3,0.5-5,0.8c-0.4,0.1-1.2-0.2-0.9,0.8
		c0.2,0.6,0.2,1.4,1.3,1c1-0.3,1.9-0.5,2.9-0.6v0.2c0,0,0,0,0,0l-3,1.3c-1,0.4-0.2,1.1-0.1,1.6c0.1,0.7,0.6,0.2,0.8,0.1
		c1.3-0.6,2.6-1.2,3.8-1.8C19.5,83.9,19.5,84,18.8,82.1z"/>
	<path class="st2" d="M31.9,41.3c-2.5-2.7-5-5.3-7.6-8c-0.8-0.8-1.1-1.4-0.1-2.1c2.2-2,4.5-3.9,6.9-5.6c0.6-0.5,1-0.4,1.4,0.2
		c2.8,3.8,5.7,7.7,8.6,11.5c0.5,0.7,0.4,1-0.3,1.4c-2,1.3-3.8,2.9-5.5,4.7c-0.6,0.7-0.9,0.5-1.3,0C33.3,42.6,32.6,41.9,31.9,41.3z"
		/>
	<path class="st1" d="M60.1,32.5c-0.7-0.1-1.5-0.1-2.2,0c-0.8,0.1-1.1-0.1-1.1-0.9c-0.2-4.7-0.5-9.5-0.8-14.2
		c-0.1-0.9,0.2-1.1,1.1-1.2c2.9-0.2,5.9-0.2,8.9,0c1,0,1.2,0.4,1,1.3c-1,4.6-2,9.3-3,13.9c-0.2,0.9-0.5,1.2-1.4,1
		c-0.8-0.1-1.6-0.1-2.4,0L60.1,32.5z"/>
	<path class="st2" d="M11.6,64.4c-2.4,0-2.3,0.5-2-2.1c0.3-2.7,0.8-5.4,1.5-8.1c0.1-0.6,0.3-0.8,1-0.6c4.8,1.2,9.5,2.3,14.3,3.4
		c0.7,0.2,0.7,0.4,0.5,1c-0.5,1.7-0.8,3.4-1,5.1c-0.1,1-0.8,0.8-1.3,0.8c-3.5,0.1-7.1,0.2-10.6,0.4C13.2,64.3,12.3,64.3,11.6,64.4z"
		/>
	<path class="st2" d="M83.7,82.7l0.3-0.2c0.2,0.2,0.4,0.5,0.1,0.8C83.9,83.3,83.8,82.9,83.7,82.7z"/>
	<path class="st0" d="M506.2,63.7c-7.2-6.8-19.9-6.5-27.2,0.7c-4.6,4.6-7.3,10.7-7.6,17.2c-0.4,3.9,0.1,7.8,1.6,11.4
		c5.8,12.4,20.1,12.8,28,7.6c6.8-4.4,10.9-11.8,11-19.9C512,72.5,510.1,67.3,506.2,63.7z M499.4,75.9c-0.1,4.6-0.8,9.1-2.2,13.5
		c-0.3,1.1-0.8,2.1-1.5,3c-1.5,2.4-4.5,3.5-7.2,2.7c-2.5-0.7-4.2-2.9-4.3-5.4c-0.6-6,0.3-12,2.5-17.6c1-2.5,2.7-4.3,5.5-4.7
		c4.2-0.5,6.8,1.6,7.2,6C499.5,74.1,499.4,75,499.4,75.9z"/>
	<path class="st2" d="M102.1,102.9c-0.5-1.3-3.4-3.2-4.7-3.2c-0.1-0.4,0.8-0.5,0.3-1c-0.4-0.4-1-0.4-1.4-0.1
		c-0.8,0.5-1.5,1.2-1.9,2.1c-0.2,0.7,0.1,1.5,0.7,2c1.3,1.1,2.5,2.3,3.7,3.5c0.5,0.5,0.6,0.5,1.2,0s0.6-1.5,1.6-1.5
		C102,104.2,102.4,103.7,102.1,102.9z M96.7,101.4c-0.3-0.1-0.5-0.3-0.6-0.5c-0.1-0.2,0-0.4,0.1-0.5c0.1,0,0.1,0,0.2,0
		c0.2,0,0.7-0.1,0.6,0.3C97,100.9,97,101.2,96.7,101.4z M99.9,104.3c-0.9-0.6-1.7-1.4-2.3-2.2c-0.2-0.2,0-0.4,0.2-0.4
		c1,0.7,1.8,1.5,2.5,2.4C100.3,104.3,100.2,104.5,99.9,104.3z"/>
	<path class="st2" d="M113.4,52c-0.2-0.7-0.5-1-1.2-0.6c-0.2,0.1-0.5,0.2-0.7,0.2c-0.2-2.2-0.7-2.6-2.8-1.8
		c-1.1,0.4-2.2,0.7-3.2,1.2c-0.2,0.1-0.4,0.2-0.6,0.4c-0.5,0.5-0.5,1.4,0.1,1.8c0.2,0.3,0.4,0.6,0.4,1c0.2,1.5,0.6,1.7,2,1.1
		c1.8-0.7,3.6-1.4,5.5-2C113.9,53.1,113.7,52.7,113.4,52z M110.3,52.2c-1.3,0.6-2.6,1-4,1.2c1.2-0.8,2.4-1.4,3.8-1.7
		c0.2-0.1,0.4,0,0.5,0.2C110.6,52.1,110.4,52.2,110.3,52.2z"/>
	<path class="st2" d="M109.2,46c0-0.1-0.1-0.2-0.2-0.4c-0.5-1-1.7-1.3-2.7-0.8c-0.9,0.4-1.9,0.9-2.8,1.4c-0.8,0.4-1.2,1.4-0.9,2.2
		c0.4,1.1,0.8,2,2.4,2.1c1.2-0.3,2.3-0.8,3.3-1.5C109.7,48.4,109.9,47.4,109.2,46z M104.1,48.6c1.2-1,2.5-1.6,4-2
		C107,47.6,105.6,48.3,104.1,48.6z"/>
	<path class="st2" d="M78.1,19.9c-0.8,0.1-1.3,0.8-1.4,1.6c-0.1,0.8,0.7,0.5,1.1,0.8c0.1,0.1,0.2,0.1,0.3,0.2
		c0.1-0.1,0.2-0.2,0.3-0.4c0.3-0.3,0-1,0.7-1c0.2,0,0.3,0.2,0.2,0.4c0,0,0,0,0,0c-0.1,0.5-0.2,1.1-0.9,1.1c-0.1,0-0.2,0-0.4,0
		c0,0,0,0,0,0c0,0,0,0,0,0c-0.4,0-0.8,0-1.2,0.1c-1,0.2-1.1,1.1-1.3,1.9c-0.2,0.6-0.1,1.2,0.4,1.4c1.1,0.4,2.2,0.8,3.3,1.1
		c0.5,0.1,0.5-0.4,0.6-0.6c0.4-1.2,0.8-2.3,1.2-3.5C81.7,21,80.2,19.4,78.1,19.9z M78.5,24.4c-0.2,0.4-0.1,0.9-0.6,1.1
		c-0.1,0-0.2,0-0.3-0.1c-0.1-0.5,0.1-1,0.5-1.4c0-0.1,0.3-0.2,0.8-0.6C78.6,24,78.5,24.2,78.5,24.4z"/>
	<path class="st2" d="M111.5,82.9c-0.9-0.4-1.9-0.7-2.9-1c-1.4-0.4-2.1,0.1-2.6,1.5c-0.5,1.4-0.2,2.4,1,2.9c0.8,0.4,1.7,0.7,2.6,0.9
		c1.8,0.5,3.1-0.5,3.2-2.5C112.7,83.9,112.2,83.1,111.5,82.9z M106.8,84.1c1-0.5,3.7,0.3,4.8,1.4C109.9,85.2,108.3,84.7,106.8,84.1z
		"/>
	<path class="st2" d="M104.5,97.2c-0.7-0.4-0.7,0.6-1.1,0.8c-0.4,0.6,0.1,0.8,0.5,1c0.3,0.2,0.5,0.3,0.2,0.6c-0.2,0.3-0.4,0-0.7-0.1
		c-0.7-0.4-0.7-0.9-0.4-1.4c0,0,0-0.1,0-0.1c0.1-0.4,0.1-0.7,0.1-1.1c0-1.1-1-1.5-1.8-1.8c-0.1,0-0.1-0.1-0.2-0.1
		c-0.6-0.2-1.2,0.2-1.3,0.7c-0.3,0.7-0.7,1.2-1.2,1.7c-0.5,0.6-0.4,1,0.2,1.4c1.1,0.7,2,1.4,3,2.1c0.4,0.3,0.9,0.5,1.5,0.5
		c1.3,0,2.3-1.1,2.3-2.4C105.8,98.3,105.3,97.5,104.5,97.2z M101.4,98c-0.3-0.3-0.9-0.4-1-1c0-0.1,0.1-0.2,0.2-0.2c0,0,0.1,0,0.1,0
		c0.6,0.3,1.2,0.5,1.2,1.5C101.7,98.2,101.6,98.2,101.4,98z"/>
	<path class="st2" d="M104.3,38.1c0-0.1-0.1-0.1-0.1-0.2c-0.7-0.9-1.9-1-2.8-0.4c-0.6,0.4-1.2,0.8-1.7,1.2c-0.6,0.5-1.1,0.8-1.3,1.2
		c-0.4,1.2,0,2.4,1,3.1c1.1,0.8,2.1,0.2,3-0.4c-0.5-1.5-0.7-1.5-2-1c-0.2,0.1-0.4,0.2-0.6,0s0-0.4,0.1-0.5c0.9-1.1,1.4-1.1,2.2,0
		l0.7,1l0,0c0,0,0,0,0,0c0.5-0.3,0.9-0.6,1.4-1c0,0,0,0,0.1-0.1C105.2,40.3,105.2,38.9,104.3,38.1z M102.6,39.8
		c-0.1,0-0.3-0.1-0.3-0.2c0,0,0-0.1,0-0.1c0.1-0.4,0.5-0.5,0.9-0.8c0.1,0.1,0.3,0.3,0.2,0.4C103.4,39.5,103,39.8,102.6,39.8z"/>
	<path class="st0" d="M27.7,98.9c-0.6-0.5-0.7-1.9-2-0.9c-0.2,0.2-0.4,0.3-0.6,0c-0.2-0.3-0.1-0.5,0.1-0.6l0.8-0.6
		c-0.4-0.6-0.8-1.1-1.3-1.6c-0.4-0.3-0.6,0.3-0.8,0.5c-1.2,1.2-2.4,2.4-3.6,3.6c-1.8,1.8-1.8,1.8-0.1,3.6c0,0,0,0.1,0.1,0.1
		c0.2,0.3,0.7,0.3,0.9,0.1l6.2-3.5C27.6,99.4,28,99.2,27.7,98.9z M23.7,99.5c-0.5,0.3-1,0.6-1.5,0.8l-0.2-0.3
		c0.4-0.4,0.8-0.7,1.2-1.1c0.2-0.2,0.5-0.4,0.7,0C24.3,99.4,23.9,99.4,23.7,99.5z"/>
	<path class="st2" d="M48.6,113.2c-1.1-0.5-2.2-0.9-3.4-1.2c-0.3-0.1-0.4,0.3-0.4,0.5c-0.5,1.4-1.1,2.9-1.5,4.3
		c-0.3,1.2,0.4,2.1,1.9,2.5c0.1,0,0.1,0.1,0.2,0.1c1.1,0.3,2.2-0.4,2.4-1.4c0.1-0.3,0.1-0.5-0.2-0.7c-1.2-0.7-1.7-0.2-2.2,0.9
		c-0.3-1-0.1-1.6,1.1-1.5c0.4,0,0.7,0,1.1-0.1c1-0.1,1.1-1,1.3-1.6C49,114.2,49.2,113.5,48.6,113.2z M46.8,114.5
		c-0.1,0.3-0.3,0.8-0.8,0.9c-0.2-0.5,0.2-0.8,0.3-1.2s0.1-0.8,0.6-0.6C47.3,113.9,47,114.3,46.8,114.5z"/>
	<path class="st2" d="M84.4,114.7c-0.3-0.8-0.7-1.7-1.1-2.5c-0.4-0.9-1.4-1.3-2.3-1c-1.4,0.4-2.2,1.2-2.1,2.4
		c0.2,2.1,1.8,4.5,3.1,4.5C84.1,118.1,85.1,116.6,84.4,114.7z M82.7,116.7c-0.1,0.1-0.3,0.1-0.4-0.1c0,0,0,0,0-0.1
		c-0.5-1.2-1.1-2.4-1.6-3.7c0-0.1,0-0.3,0.1-0.3c0.1-0.1,0.3-0.1,0.4,0.1c0,0,0,0,0,0.1c0.5,1.2,1.1,2.4,1.6,3.6
		C82.8,116.5,82.8,116.6,82.7,116.7z"/>
	<path class="st2" d="M97.4,106.8c-0.7-1.1-1.6-2.1-2.6-3c-0.3-0.3-0.7-0.4-1.1-0.4c-1.7,0-3,1.9-2.5,3.2c0.5,1.2,0.9,1.3,1.9,0.4
		c0.7-0.7-0.1-0.9-0.3-1.3c-0.1-0.2-0.4-0.4-0.1-0.6c0.3-0.3,0.4,0,0.6,0.2c1.1,1,1.2,1.3,0,2.1c-1,0.7-0.7,1.2,0,1.9
		c0.2,0.2,0.4,0.3,0.6,0.5c0.9,0.6,2,0.4,2.7-0.4C97.5,108.6,98,107.8,97.4,106.8z M95.8,108.6c-0.4-0.1-0.6-0.3-0.8-0.7
		c-0.1-0.2,0.1-0.5,0.3-0.4c0.3,0.2,0.5,0.4,0.7,0.6C96.1,108.4,96,108.6,95.8,108.6z"/>
	<path class="st2" d="M52.1,113.8C52.1,113.8,52.1,113.8,52.1,113.8c-1.1-0.4-2.4,0.1-2.8,1.2c-0.3,0.8-0.1,1.1,0.7,1.4
		c0.8,0.2,1-0.1,1.1-0.8c0-0.3,0.1-0.6,0.5-0.6c0.1,0,0.2,0.2,0.2,0.2c0,0.5-0.1,1.1-0.3,1.6c-0.2,0.4-0.8,0.1-1.1,0
		c-1.6-0.4-1.8-0.2-1.8,1.5c0,1.3,0.6,2.1,2.1,2.3c0,0,0.1,0,0.1,0c1.1,0.2,2.1-0.4,2.4-1.5c0.3-1,0.5-2,0.7-3c0,0,0,0,0,0
		C54,115,53.2,114,52.1,113.8z M51.2,118.7c-0.1,0.2,0,0.7-0.5,0.7c-0.2,0-0.3-0.3-0.2-0.5c0.1-0.2,0-0.7,0.4-0.8
		C51.3,118.2,51.3,118.4,51.2,118.7z"/>
	<path class="st2" d="M34,105c-1.3-1.2-2.3-1-3.7,0.4c0,0,0,0,0,0l0,0c0.7,1.3,1,1.4,2.2,0.5c0.2-0.1,0.3-0.3,0.5-0.1
		c0.2,0.2,0.1,0.4,0,0.6c-0.5,1.2-1.1,1.3-2.2,0.5c-0.4-0.3-0.6-0.8-1.2-0.7c-0.2,0.2-0.3,0.5-0.5,0.7c-1,1.4-1,2.3,0.1,3.3
		c1.1,1,2.1,1,3.4,0c0,0,0,0,0,0h0c0.3-0.5,0.6-0.9,1-1.2l0,0c0.2-0.3,0.5-0.6,0.7-0.9c0.1-0.1,0.1-0.1,0.2-0.2
		C35.2,106.9,35,105.7,34,105z M30.1,109.6c0.1-0.7,0.3-1.1,0.8-1.3c0.1,0,0.2,0.2,0.2,0.2C31.1,109.1,30.7,109.3,30.1,109.6z"/>
</g>
</svg>
