<?xml version="1.0" encoding="UTF-8"?>
<svg id="_レイヤー_2" data-name="レイヤー 2" xmlns="http://www.w3.org/2000/svg" viewBox="0 0 117.27 71">
  <defs>
    <style>
      .cls-1 {
        fill: none;
        stroke: #000;
        stroke-miterlimit: 10;
        stroke-width: .92px;
      }
    </style>
  </defs>
  <g id="_レイヤー_1-2" data-name="レイヤー 1">
    <g>
      <polygon class="cls-1" points=".46 .46 116.81 .46 116.62 70.54 .46 70.54 .46 .46 .46 .46"/>
      <path d="m21.26,38.7v-13.47l-7.8-.04v14.61l3.75,4.21,3.11-3.54h6.97v3.54h-13.82v1.77h15.95v-7.09h-8.15Zm-1.77.14l-2.06,2.27-1.84-2.06v-12.05h3.9v11.84Zm13.82-4.04h2.48v2.13h-2.48v-2.13Zm.35,3.19h2.13v7.44h-2.13v-7.44Zm5.35,0h2.12l.07.82c.24-.29.56-.54.94-.72s.8-.29,1.22-.29c.83,0,1.49.25,1.98.75.49.5.73,1.25.73,2.25v4.62h-2.13s0-4.25,0-4.25c0-.43-.11-.74-.34-.99s-.52-.35-.9-.35c-.26,0-.49.04-.71.14s-.37.21-.49.35c-.15.14-.22.32-.3.5-.07.18-.11.39-.11.64v3.97h-2.13v-7.44h.03Zm10.56,0h2.16v4.25c0,.43.11.74.34.99s.52.35.97.35c.26,0,.45-.04.63-.14.19-.11.34-.21.49-.35s.22-.32.3-.53c.07-.21.11-.39.11-.6v-3.97h2.13v7.44h-2.13l-.07-.79c-.24.29-.56.54-.94.72s-.8.29-1.22.29c-.84,0-1.5-.25-1.99-.75-.49-.5-.73-1.25-.73-2.25v-4.65h-.03Zm11.11,5.26c.25.21.57.39.96.57.39.14.78.21,1.13.21.32,0,.6-.04.85-.14.21-.07.32-.25.32-.5,0-.11-.04-.18-.07-.25-.04-.07-.14-.14-.25-.21-.14-.07-.32-.14-.53-.21-.21-.07-.5-.14-.85-.25-.28-.07-.57-.18-.85-.28-.28-.11-.53-.28-.74-.46s-.39-.39-.53-.64-.21-.53-.21-.89.07-.67.25-.92c.14-.28.39-.53.64-.71.28-.21.6-.35.99-.46s.78-.18,1.24-.18c.64,0,1.17.07,1.67.21.46.14.92.35,1.31.64l-.96,1.49c-.25-.14-.53-.28-.82-.43-.32-.14-.67-.18-1.06-.18-.35,0-.6.04-.74.14-.14.11-.25.25-.25.39,0,.25.18.43.5.53s.78.25,1.31.39c.74.21,1.31.5,1.63.85.35.35.5.85.5,1.45,0,.43-.11.74-.28,1.06-.18.28-.43.53-.74.74-.32.18-.67.35-1.06.43-.39.11-.78.14-1.21.14-.67,0-1.28-.11-1.88-.28s-1.06-.46-1.42-.82l1.17-1.45Zm9.1-3.49h-1.38v-1.42h1.42v-2.48h2.13v2.13h1.77v1.77h-1.77v2.91c0,.35.07.64.2.82.14.18.34.28.64.28.24,0,.41-.04.57-.11s.3-.18.44-.28l.88,1.38c-.68.57-1.42.85-2.23.85-.51,0-.91-.07-1.25-.21s-.61-.35-.81-.64c-.2-.28-.37-.6-.44-.96-.1-.39-.14-.78-.14-1.28v-2.76h-.03Zm7.13,2.07c0-.53.11-1.06.28-1.52s.46-.89.82-1.24.78-.64,1.24-.85c.5-.21,1.03-.32,1.63-.32s1.13.11,1.59.32c.5.21.89.5,1.24.85s.6.78.82,1.24c.18.46.28.99.28,1.52s-.11,1.06-.28,1.52-.46.89-.82,1.24-.74.64-1.24.85c-.5.21-1.03.32-1.59.32-.6,0-1.13-.11-1.63-.32-.5-.21-.92-.5-1.24-.85-.35-.35-.6-.78-.82-1.24-.21-.46-.28-.99-.28-1.52Zm3.97,1.98c.28,0,.53-.07.74-.18s.39-.25.57-.46c.14-.18.25-.39.35-.64.07-.25.11-.5.11-.74s-.04-.5-.11-.74c-.07-.25-.18-.46-.35-.64-.14-.18-.35-.32-.57-.43s-.46-.18-.74-.18-.53.07-.78.18c-.21.11-.43.25-.57.43-.14.18-.25.39-.35.64-.07.25-.11.5-.11.74s.04.5.11.74c.07.25.18.46.35.64.14.18.32.35.57.46.21.11.5.18.78.18Zm13.47.74c-.32.32-.71.64-1.21.85-.5.25-1.1.35-1.77.35-.6,0-1.13-.11-1.63-.28-.5-.18-.92-.46-1.24-.82-.35-.35-.6-.78-.82-1.24-.18-.5-.28-1.03-.28-1.59,0-.53.11-1.06.28-1.52.21-.46.46-.89.82-1.24s.78-.64,1.28-.85c.5-.21,1.03-.32,1.59-.32.67,0,1.24.11,1.74.32s.92.53,1.24.89l-1.38,1.49c-.18-.18-.39-.35-.6-.5-.25-.14-.57-.21-.96-.21-.28,0-.53.07-.74.18s-.39.25-.57.43c-.14.18-.28.39-.35.64s-.11.5-.11.74.04.5.11.71c.07.25.18.46.35.64.14.18.32.32.57.46.21.11.46.18.74.18.39,0,.71-.07.99-.21.25-.14.46-.32.64-.5l1.31,1.42Zm2.75-9.76h2.13v5.55l2.29-2.36h2.58l-2.68,2.76,3.04,4.69h-2.83l-1.76-3.16-.63.68v2.48h-2.13v-10.63Z"/>
    </g>
  </g>
</svg>