<?xml version="1.0" encoding="UTF-8"?>
<svg id="_レイヤー_2" data-name="レイヤー 2" xmlns="http://www.w3.org/2000/svg" viewBox="0 0 130.33 37">
  <defs>
    <style>
      .cls-1 {
        fill: none;
      }
    </style>
  </defs>
  <g id="_レイヤー_1-2" data-name="レイヤー 1">
    <g>
      <path d="m11.14,23.07V3.83l-11.14-.05v20.87l5.36,6.01,4.44-5.06h9.95v5.06H0v2.53h22.79v-10.13h-11.65Zm-2.53.2l-2.94,3.24-2.63-2.94V6.36h5.57v16.91Zm19.75-5.77h3.54v3.04h-3.54v-3.04Zm.51,4.56h3.04v10.63h-3.04v-10.63Zm7.64,0h3.03l.1,1.18c.35-.41.79-.77,1.34-1.02s1.14-.41,1.74-.41c1.19,0,2.13.36,2.83,1.07.69.72,1.04,1.79,1.04,3.22v6.59h-3.04s0-6.08,0-6.08c0-.61-.16-1.06-.48-1.42s-.75-.51-1.28-.51c-.37,0-.69.05-1.01.2s-.53.3-.69.51c-.21.2-.32.46-.43.71-.11.25-.16.56-.16.91v5.67h-3.04v-10.63h.05Zm15.09,0h3.09v6.08c0,.61.16,1.06.48,1.42s.75.51,1.39.51c.37,0,.64-.05.91-.2.27-.15.48-.3.69-.51s.32-.46.43-.76c.11-.3.16-.56.16-.86v-5.67h3.04v10.63h-3.04l-.1-1.12c-.35.41-.8.77-1.35,1.02s-1.15.41-1.75.41c-1.2,0-2.15-.36-2.84-1.07-.7-.72-1.05-1.79-1.05-3.22v-6.65h-.05Zm15.86,7.51c.35.3.81.56,1.37.81.56.2,1.11.3,1.62.3.46,0,.86-.05,1.22-.2.3-.1.46-.35.46-.71,0-.15-.05-.25-.1-.35-.05-.1-.2-.2-.35-.3-.2-.1-.46-.2-.76-.3-.3-.1-.71-.2-1.22-.35-.41-.1-.81-.25-1.22-.41-.41-.15-.76-.41-1.06-.66s-.56-.56-.76-.91-.3-.76-.3-1.27.1-.96.35-1.32c.2-.41.56-.76.91-1.01.41-.3.86-.51,1.42-.66s1.11-.25,1.77-.25c.91,0,1.67.1,2.38.3.66.2,1.32.51,1.87.91l-1.37,2.13c-.35-.2-.76-.41-1.16-.61-.46-.2-.96-.25-1.52-.25-.51,0-.86.05-1.06.2-.2.15-.35.35-.35.56,0,.35.25.61.71.76s1.11.35,1.87.56c1.06.3,1.87.71,2.33,1.22.51.51.71,1.22.71,2.08,0,.61-.15,1.06-.41,1.52-.25.41-.61.76-1.06,1.06-.46.25-.96.51-1.52.61-.56.15-1.11.2-1.72.2-.96,0-1.82-.15-2.68-.41s-1.52-.66-2.03-1.16l1.67-2.08Zm13-4.98h-1.98v-2.03h2.03v-3.54h3.04v3.04h2.53v2.53h-2.53v4.15c0,.51.1.91.29,1.16.19.25.48.41.92.41.34,0,.58-.05.82-.15s.43-.25.63-.41l1.25,1.97c-.96.81-2.03,1.22-3.18,1.22-.72,0-1.3-.1-1.78-.3s-.87-.51-1.16-.91c-.29-.41-.53-.86-.63-1.37-.14-.56-.19-1.11-.19-1.82v-3.95h-.05Zm10.19,2.96c0-.76.15-1.52.41-2.18s.66-1.27,1.16-1.77,1.11-.91,1.77-1.22c.71-.3,1.47-.46,2.33-.46s1.62.15,2.28.46c.71.3,1.27.71,1.77,1.22s.86,1.11,1.16,1.77c.25.66.41,1.42.41,2.18s-.15,1.52-.41,2.18-.66,1.27-1.16,1.77-1.06.91-1.77,1.22c-.71.3-1.47.46-2.28.46-.86,0-1.62-.15-2.33-.46-.71-.3-1.32-.71-1.77-1.22-.51-.51-.86-1.11-1.16-1.77-.3-.66-.41-1.42-.41-2.18Zm5.67,2.84c.41,0,.76-.1,1.06-.25s.56-.35.81-.66c.2-.25.35-.56.51-.91.1-.35.15-.71.15-1.06s-.05-.71-.15-1.06c-.1-.35-.25-.66-.51-.91-.2-.25-.51-.46-.81-.61s-.66-.25-1.06-.25-.76.1-1.11.25c-.3.15-.61.35-.81.61-.2.25-.35.56-.51.91-.1.35-.15.71-.15,1.06s.05.71.15,1.06c.1.35.25.66.51.91.2.25.46.51.81.66.3.15.71.25,1.11.25Zm19.24,1.06c-.46.46-1.01.91-1.72,1.22-.71.35-1.57.51-2.53.51-.86,0-1.62-.15-2.33-.41-.71-.25-1.32-.66-1.77-1.16-.51-.51-.86-1.11-1.16-1.77-.25-.71-.41-1.47-.41-2.28,0-.76.15-1.52.41-2.18.3-.66.66-1.27,1.16-1.77s1.11-.91,1.82-1.22c.71-.3,1.47-.46,2.28-.46.96,0,1.77.15,2.48.46s1.32.76,1.77,1.27l-1.97,2.13c-.25-.25-.56-.51-.86-.71-.35-.2-.81-.3-1.37-.3-.41,0-.76.1-1.06.25s-.56.35-.81.61c-.2.25-.41.56-.51.91s-.15.71-.15,1.06.05.71.15,1.01c.1.35.25.66.51.91.2.25.46.46.81.66.3.15.66.25,1.06.25.56,0,1.01-.1,1.42-.3.35-.2.66-.46.91-.71l1.87,2.03Zm3.93-13.94h3.04v7.93l3.27-3.37h3.68l-3.83,3.94,4.35,6.7h-4.05l-2.52-4.52-.9.98v3.54h-3.04v-15.19Z"/>
      <rect class="cls-1" x=".33" width="130" height="37"/>
    </g>
  </g>
</svg>