<?xml version="1.0" encoding="UTF-8"?>
<svg id="_レイヤー_2" data-name="レイヤー 2" xmlns="http://www.w3.org/2000/svg" viewBox="0 0 117.27 71">
  <defs>
    <style>
      .cls-1 {
        fill: #0c152b;
      }

      .cls-2 {
        fill: #4490cd;
      }

      .cls-3 {
        fill: none;
        stroke: #000;
        stroke-miterlimit: 10;
        stroke-width: .92px;
      }
    </style>
  </defs>
  <g id="_レイヤー_1-2" data-name="レイヤー 1">
    <g>
      <g>
        <path class="cls-2" d="m21.47,28.9h2.52v2.52h-2.52v-2.52Z"/>
        <path class="cls-2" d="m25.25,37.07h2.52v2.52h-2.52v-2.52Z"/>
        <path class="cls-2" d="m51.66,37.07h2.52v2.52h-2.52v-2.52Z"/>
        <path class="cls-1" d="m76.19,35.81v3.77h-3.14v-.66c.05.42-.61.65-1.27.65-1.49,0-2.64-.9-2.64-2.17s1.29-2.26,2.96-2.26c.46,0,1.57.3,1.57.3v.37c0-.56-.53-.88-1.44-.88-.61,0-1.16.12-1.67.36l-.83-1.5c.98-.45,2.03-.76,3.21-.76,1.78,0,3.25,1.03,3.25,2.77h0Zm-2.63,1.12c-.31-.16-.7-.25-1.1-.25-.5,0-.87.28-.87.66,0,.36.35.61.82.61,1.13,0,1.15-1.01,1.15-1.01Z"/>
        <path class="cls-1" d="m21.47,32.67h2.52v6.92h-2.52v-6.92Z"/>
        <path class="cls-1" d="m29.65,39.59l-4.78-6.92h2.73l.99,1.43.99-1.43h2.66l-2.33,3.35,2.46,3.57h-2.73Z"/>
        <path class="cls-1" d="m37.78,37.07l1.39,1.46c-.6.61-1.75,1.05-2.78,1.05-2.16,0-3.74-1.48-3.74-3.56s1.54-3.52,3.63-3.52,3.52,1.53,3.52,3.94h-4.79c.17.83.63,1.25,1.27,1.25.51,0,1.06-.21,1.5-.62h0Zm-2.73-1.89h2.33c-.16-.56-.55-.93-1.1-.93-.6,0-1.03.37-1.23.93Z"/>
        <path class="cls-1" d="m95.65,37.07l1.39,1.46c-.6.61-1.75,1.05-2.78,1.05-2.16,0-3.74-1.48-3.74-3.56s1.54-3.52,3.64-3.52,3.52,1.53,3.52,3.94h-4.78c.17.83.63,1.25,1.27,1.25.51,0,1.06-.21,1.5-.62h0Zm-2.73-1.89h2.33c-.16-.56-.55-.93-1.1-.93-.6,0-1.03.37-1.23.93Z"/>
        <path class="cls-1" d="m40.97,29.53h2.52v10.06h-2.52v-10.06Z"/>
        <path class="cls-1" d="m44.38,38.56l.94-1.53c.65.46,1.62.8,2.34.8.47,0,.64-.12.64-.34,0-.24-.39-.37-1.02-.5-1.23-.26-2.6-.56-2.6-2.16,0-1.31,1.06-2.33,2.82-2.33,1.05,0,2.05.38,2.82.89l-.85,1.54c-.56-.37-1.33-.72-1.97-.72-.35,0-.59.18-.59.38,0,.22.3.26.98.42,1.23.27,2.64.68,2.64,2.28,0,1.4-1.11,2.29-2.94,2.29-1.18,0-2.39-.38-3.22-1.02h0Z"/>
        <path class="cls-1" d="m64.48,32.69c-2.38,0-2.53,1.13-2.53,1.14,0-.01-.46-1.14-2.48-1.14-1.27,0-1.52.51-1.52.51v-.53h-2.52v6.92h2.52s0-3.91,0-3.87c0-.75.66-1.13,1.27-1.13s1.25.43,1.25,1.09c.02.03-.02,3.91-.02,3.91h2.53s.03-3.64.03-3.72c0-.74.52-1.33,1.22-1.33s1.27.6,1.27,1.33c0,.08-.02,3.72-.02,3.72h2.53v-4.29c0-1.53-1.41-2.61-3.53-2.61Z"/>
        <path class="cls-1" d="m20.57,35.99c0,2.22-1.57,3.72-3.42,3.72-.91,0-1.33-.75-1.33-.75v3.14h-3.14v-9.43h2.52v.38c.6-.49,1.05-.77,1.96-.77,1.86,0,3.42,1.51,3.42,3.72h0Zm-2.28,0c0-1.02-.68-1.73-1.61-1.73-.86,0-1.63.7-1.63,1.73s.77,1.73,1.63,1.73c.93,0,1.61-.69,1.61-1.73Z"/>
        <path class="cls-1" d="m77.45,39.59v-6.92h1.89v1.85l-.22-.59c.21-.53.54-.93,1-1.19.46-.27,1.74-.4,1.74-.4v2.55c-.11-.01-.21-.03-.3-.03-.09,0-.18-.01-.27-.01-.39,0-.7.1-.95.3-.25.2-.37.55-.37,1.04v3.41h-2.52Z"/>
        <path class="cls-1" d="m83.11,39.59v-9.43h2.52v9.43h-2.52Zm1.89-1.23l.06-3.31,2.35-2.38h3.32l-3.11,3.26-1.41,1.13-1.22,1.29h0Zm2.52,1.23l-1.87-2.36,1.73-2.13,3.53,4.49h-3.4Z"/>
        <path class="cls-1" d="m102.12,39.24c-.84,0-1.49-.23-1.96-.68-.47-.45-.7-1.15-.7-2.08v-5.7h2.52v5.67c0,.21.05.37.15.49.1.12.22.17.37.17.21,0,.4-.06.57-.19l.6,1.95c-.19.12-.43.22-.7.27-.27.06-.55.09-.85.09h0Z"/>
        <path class="cls-1" d="m103.23,32.67h-5.03v1.89h5.03v-1.89Z"/>
      </g>
      <polygon class="cls-3" points=".46 .46 116.81 .46 116.62 70.54 .46 70.54 .46 .46 .46 .46"/>
    </g>
  </g>
</svg>