<?xml version="1.0" encoding="UTF-8"?>
<svg id="_レイヤー_2" data-name="レイヤー 2" xmlns="http://www.w3.org/2000/svg" viewBox="0 0 130.33 37">
  <defs>
    <style>
      .cls-1 {
        fill: #0c152b;
      }

      .cls-2 {
        fill: #4490cd;
      }

      .cls-3 {
        fill: none;
      }
    </style>
  </defs>
  <g id="_レイヤー_1-2" data-name="レイヤー 1">
    <g>
      <g>
        <path class="cls-2" d="m12.58,9.07h3.59v3.59h-3.59v-3.59Z"/>
        <path class="cls-2" d="m17.97,20.75h3.59v3.59h-3.59v-3.59Z"/>
        <path class="cls-2" d="m55.7,20.75h3.59v3.59h-3.59v-3.59Z"/>
        <path class="cls-1" d="m90.75,18.95v5.39h-4.49v-.94c.07.6-.87.92-1.81.92-2.13,0-3.77-1.28-3.77-3.1s1.84-3.24,4.23-3.24c.65,0,2.25.43,2.25.43v.53c0-.8-.76-1.25-2.06-1.25-.88,0-1.65.18-2.39.51l-1.19-2.14c1.4-.64,2.9-1.08,4.59-1.08,2.55,0,4.65,1.47,4.65,3.96h0Zm-3.76,1.59c-.44-.23-1-.36-1.57-.36-.71,0-1.25.4-1.25.94,0,.51.5.87,1.17.87,1.61,0,1.65-1.45,1.65-1.45Z"/>
        <path class="cls-1" d="m12.58,14.46h3.59v9.88h-3.59v-9.88Z"/>
        <path class="cls-1" d="m24.26,24.34l-6.83-9.89h3.9l1.42,2.05,1.42-2.05h3.8l-3.33,4.78,3.52,5.1h-3.9Z"/>
        <path class="cls-1" d="m35.87,20.75l1.98,2.08c-.86.88-2.5,1.49-3.98,1.49-3.08,0-5.34-2.11-5.34-5.08s2.2-5.03,5.19-5.03,5.03,2.19,5.03,5.63h-6.84c.24,1.19.9,1.79,1.81,1.79.73,0,1.51-.3,2.15-.89h0Zm-3.9-2.7h3.32c-.22-.8-.78-1.33-1.57-1.33-.86,0-1.48.52-1.76,1.33Z"/>
        <path class="cls-1" d="m118.55,20.75l1.98,2.08c-.86.88-2.5,1.49-3.98,1.49-3.08,0-5.34-2.11-5.34-5.08s2.2-5.03,5.19-5.03,5.02,2.19,5.02,5.63h-6.84c.24,1.19.9,1.79,1.81,1.79.73,0,1.51-.3,2.15-.89h0Zm-3.9-2.7h3.33c-.22-.8-.78-1.33-1.57-1.33-.86,0-1.48.52-1.76,1.33Z"/>
        <path class="cls-1" d="m40.43,9.96h3.59v14.38h-3.59v-14.38Z"/>
        <path class="cls-1" d="m45.3,22.87l1.34-2.19c.93.65,2.32,1.14,3.34,1.14.67,0,.92-.17.92-.49,0-.34-.56-.52-1.46-.71-1.76-.37-3.72-.8-3.72-3.08,0-1.87,1.51-3.32,4.03-3.32,1.49,0,2.93.54,4.03,1.27l-1.21,2.2c-.8-.52-1.91-1.03-2.82-1.03-.5,0-.84.26-.84.54,0,.32.43.37,1.4.6,1.76.39,3.77.97,3.77,3.25,0,2-1.59,3.27-4.2,3.27-1.68,0-3.42-.54-4.59-1.46h0Z"/>
        <path class="cls-1" d="m74.02,14.48c-3.4,0-3.62,1.61-3.62,1.63,0-.02-.65-1.63-3.54-1.63-1.81,0-2.17.73-2.17.73v-.76h-3.59v9.88h3.59s0-5.59,0-5.53c0-1.07.94-1.62,1.82-1.62s1.79.62,1.79,1.56c.03.05-.03,5.59-.03,5.59h3.61s.04-5.2.04-5.32c0-1.05.74-1.9,1.74-1.9s1.81.85,1.81,1.9c0,.11-.03,5.32-.03,5.32h3.62v-6.12c0-2.18-2.01-3.73-5.05-3.73Z"/>
        <path class="cls-1" d="m11.28,19.21c0,3.17-2.24,5.31-4.89,5.31-1.3,0-1.9-1.07-1.9-1.07v4.48H0v-13.48h3.59v.54c.85-.7,1.5-1.1,2.79-1.1,2.66,0,4.89,2.16,4.89,5.31h0Zm-3.26,0c0-1.46-.97-2.47-2.3-2.47-1.23,0-2.33,1.01-2.33,2.47s1.1,2.47,2.33,2.47c1.33,0,2.3-.99,2.3-2.47Z"/>
        <path class="cls-1" d="m92.54,24.34v-9.89h2.7v2.64l-.32-.84c.29-.76.77-1.33,1.42-1.71.65-.38,2.49-.57,2.49-.57v3.64c-.16-.02-.31-.04-.43-.05-.12-.01-.25-.02-.38-.02-.55,0-1,.14-1.36.43-.35.29-.53.78-.53,1.49v4.87h-3.59Z"/>
        <path class="cls-1" d="m100.63,24.34v-13.48h3.59v13.48h-3.59Zm2.7-1.76l.09-4.73,3.36-3.4h4.74l-4.44,4.66-2.01,1.62-1.74,1.85h0Zm3.59,1.76l-2.67-3.38,2.47-3.04,5.05,6.42h-4.85Z"/>
        <path class="cls-1" d="m127.79,23.85c-1.2,0-2.13-.32-2.8-.97-.67-.65-1-1.64-1-2.98v-8.14h3.59v8.1c0,.3.07.53.21.69.14.17.32.25.53.25.31,0,.58-.09.81-.27l.86,2.79c-.28.18-.61.31-.99.39-.39.08-.79.12-1.22.12h0Z"/>
        <path class="cls-1" d="m129.38,14.46h-7.19v2.7h7.19v-2.7Z"/>
      </g>
      <rect class="cls-3" x=".33" width="130" height="37"/>
    </g>
  </g>
</svg>