<?xml version="1.0" encoding="UTF-8"?>
<svg id="_レイヤー_2" data-name="レイヤー 2" xmlns="http://www.w3.org/2000/svg" viewBox="0 0 130.33 37">
  <defs>
    <style>
      .cls-1 {
        fill: #fff;
      }

      .cls-2 {
        fill: none;
      }
    </style>
  </defs>
  <g id="_レイヤー_1-2" data-name="レイヤー 1">
    <g>
      <g>
        <g>
          <path d="m33.57,15.55l.22-.29c.23.18.47.31.78.31.35,0,.52-.18.52-.41,0-.27-.31-.39-.6-.5-.37-.14-.77-.32-.77-.76,0-.42.34-.75.91-.75.33,0,.61.14.82.3l-.21.29c-.18-.14-.36-.23-.6-.23-.34,0-.49.18-.49.38,0,.25.27.35.57.46.38.15.81.3.81.8,0,.43-.34.78-.96.78-.37,0-.73-.16-.99-.36Z"/>
          <path d="m36.15,11.98h.44v1.61c.23-.24.5-.44.86-.44.55,0,.81.36.81,1.04v1.67h-.44v-1.61c0-.5-.15-.71-.5-.71-.27,0-.46.14-.72.4v1.92h-.44v-3.87Z"/>
          <path d="m39.03,12.37c0-.17.12-.29.3-.29s.3.12.3.29c0,.18-.12.3-.3.3s-.3-.12-.3-.3Zm.07.84h.44v2.64h-.44v-2.64Z"/>
          <path d="m40.24,16.36c0-.22.14-.44.39-.6v-.02c-.14-.08-.24-.22-.24-.43s.16-.39.3-.49v-.02c-.18-.14-.35-.39-.35-.71,0-.58.46-.94.99-.94.15,0,.28.03.37.07h.92v.34h-.54c.13.12.21.32.21.54,0,.56-.43.92-.96.92-.13,0-.28-.03-.39-.09-.1.08-.17.17-.17.32,0,.17.11.29.46.29h.52c.61,0,.92.19.92.63,0,.49-.52.91-1.34.91-.65,0-1.09-.25-1.09-.71Zm1.99-.14c0-.24-.19-.33-.54-.33h-.46c-.1,0-.22-.01-.34-.04-.19.14-.27.29-.27.45,0,.28.29.47.76.47.51,0,.84-.27.84-.54Zm-.34-2.14c0-.38-.25-.62-.56-.62s-.56.23-.56.62.26.63.56.63.56-.24.56-.63Z"/>
          <path d="m43.14,14.89v-1.67h.44v1.62c0,.49.15.7.5.7.27,0,.46-.13.71-.45v-1.87h.44v2.64h-.37l-.03-.41h-.01c-.25.29-.51.48-.88.48-.55,0-.8-.36-.8-1.03Z"/>
          <path d="m46.13,13.21h.36l.04.48h.01c.18-.34.45-.55.75-.55.12,0,.2.01.28.06l-.08.39c-.09-.03-.15-.04-.26-.04-.22,0-.49.16-.67.61v1.7h-.44v-2.64Z"/>
          <path d="m47.82,14.54c0-.86.58-1.39,1.19-1.39.67,0,1.05.49,1.05,1.24,0,.1,0,.19-.02.25h-1.78c.03.56.37.92.88.92.26,0,.47-.08.66-.21l.16.29c-.23.15-.52.27-.88.27-.7,0-1.26-.51-1.26-1.38Zm1.85-.22c0-.53-.24-.82-.66-.82-.37,0-.71.3-.76.82h1.42Z"/>
          <path d="m50.72,13.21h.36l.04.38h.01c.25-.25.53-.45.89-.45.55,0,.81.36.81,1.04v1.67h-.44v-1.61c0-.5-.15-.71-.5-.71-.27,0-.46.14-.72.4v1.92h-.44v-2.64Z"/>
          <path d="m53.62,12.37c0-.17.12-.29.3-.29s.3.12.3.29c0,.18-.12.3-.3.3s-.3-.12-.3-.3Zm.07.84h.44v2.64h-.44v-2.64Z"/>
          <path d="m56.19,13.57h-.36v-.34l.36-.02v-.42c0-.53.24-.87.77-.87.16,0,.32.03.44.09l-.1.34c-.1-.04-.2-.07-.3-.07-.25,0-.37.18-.37.52v.42h.56v.36h-.56v2.28h-.44v-2.28Z"/>
          <path d="m57.7,13.21h.36l.04.48h.01c.18-.34.45-.55.75-.55.12,0,.2.01.28.06l-.08.39c-.09-.03-.15-.04-.26-.04-.22,0-.49.16-.67.61v1.7h-.44v-2.64Z"/>
          <path d="m59.39,14.54c0-.86.58-1.39,1.19-1.39.67,0,1.05.49,1.05,1.24,0,.1,0,.19-.02.25h-1.78c.03.56.37.92.88.92.26,0,.47-.08.66-.21l.16.29c-.23.15-.52.27-.88.27-.7,0-1.26-.51-1.26-1.38Zm1.85-.22c0-.53-.24-.82-.66-.82-.37,0-.71.3-.76.82h1.42Z"/>
          <path d="m62.08,14.54c0-.86.58-1.39,1.19-1.39.67,0,1.05.49,1.05,1.24,0,.1,0,.19-.02.25h-1.78c.03.56.37.92.88.92.26,0,.47-.08.66-.21l.16.29c-.23.15-.52.27-.88.27-.7,0-1.26-.51-1.26-1.38Zm1.85-.22c0-.53-.24-.82-.66-.82-.37,0-.71.3-.76.82h1.42Z"/>
          <path d="m66,12.37c0-.17.12-.29.3-.29s.3.12.3.29c0,.18-.12.3-.3.3s-.3-.12-.3-.3Zm.07.84h.44v2.64h-.44v-2.64Z"/>
          <path d="m67.41,15.33v-3.35h.44v3.38c0,.14.06.19.13.19.02,0,.04,0,.09,0l.06.34c-.06.02-.14.04-.26.04-.33,0-.47-.21-.47-.59Z"/>
          <path d="m68.79,15.33v-3.35h.44v3.38c0,.14.06.19.13.19.02,0,.04,0,.09,0l.06.34c-.06.02-.14.04-.26.04-.33,0-.47-.21-.47-.59Z"/>
          <path d="m70.15,14.89v-1.67h.44v1.62c0,.49.15.7.5.7.27,0,.46-.13.71-.45v-1.87h.44v2.64h-.37l-.03-.41h-.01c-.25.29-.51.48-.88.48-.55,0-.8-.36-.8-1.03Z"/>
          <path d="m72.84,15.55l.22-.29c.23.18.47.31.78.31.35,0,.52-.18.52-.41,0-.27-.31-.39-.6-.5-.37-.14-.77-.32-.77-.76,0-.42.34-.75.91-.75.33,0,.61.14.82.3l-.21.29c-.18-.14-.36-.23-.6-.23-.34,0-.49.18-.49.38,0,.25.27.35.57.46.38.15.81.3.81.8,0,.43-.34.78-.96.78-.37,0-.73-.16-.99-.36Z"/>
          <path d="m75.49,15.04v-1.46h-.39v-.34l.41-.02.05-.74h.37v.74h.72v.36h-.72v1.47c0,.33.1.51.41.51.09,0,.21-.03.3-.07l.09.33c-.15.05-.33.1-.49.1-.56,0-.75-.35-.75-.88Z"/>
          <path d="m35.18,23.85c-.33.31-.83.61-1.25.81-.06-.07-.19-.19-.28-.24.43-.17.89-.43,1.19-.69l.33.13Zm2.58-.05c-.07-.08-.17-.17-.29-.26-.48.01-.97.03-1.45.04v1.15h-.35v-1.14c-.71.02-1.38.03-1.89.04l-.03-.31c.32,0,.71,0,1.13,0,.07-.04.14-.08.21-.13-.24-.18-.61-.39-.91-.54l.23-.2c.1.05.2.1.32.16.17-.13.37-.31.53-.47h-1.53v-.29h1.93v-.31h-1.41v-.28h1.41v-.31h-1.67v-.28h1.67v-.36h.35v.36h1.74v.28h-1.74v.31h1.46v.28h-1.46v.31h1.96v.29h-2.24c-.24.21-.52.45-.76.62.15.09.29.18.4.26.38-.26.76-.55,1.03-.8l.32.18c-.38.31-.87.66-1.31.93.54,0,1.11-.02,1.68-.03-.17-.12-.35-.23-.52-.33l.25-.19c.42.23.93.57,1.18.84l-.27.21Zm-.99-.08c.4.17.93.47,1.2.7l-.28.21c-.25-.22-.76-.53-1.18-.72l.27-.19Z"/>
          <path d="m39.88,22.1c.19.18.74.76.87.9l-.23.31c-.12-.18-.41-.54-.64-.8v2.22h-.35v-2.37c-.23.6-.55,1.17-.88,1.51-.04-.11-.14-.25-.2-.34.42-.4.82-1.14,1.03-1.84h-.92v-.34h.97v-1.05h.35v1.05h.84v.34h-.84v.4Zm2.93.96c-.29-.21-.82-.53-1.28-.77v2.45h-.37v-4.44h.37v1.6c.49.24,1.12.58,1.44.81l-.16.35Z"/>
          <path d="m43.97,21.15c.32-.03,1.24-.13,2.13-.2.53-.04.99-.07,1.31-.09v.39c-.28,0-.71,0-.95.08-.69.22-1.11.96-1.11,1.54,0,.95.89,1.25,1.68,1.28l-.14.4c-.9-.03-1.93-.52-1.93-1.6,0-.76.46-1.38.91-1.64-.52.06-1.76.18-2.29.29l-.04-.42c.18,0,.34-.01.43-.02Zm3.14,1.38l-.25.12c-.11-.23-.25-.49-.4-.69l.25-.11c.11.16.3.46.4.68Zm.55-.21l-.25.12c-.12-.24-.26-.48-.41-.68l.24-.11c.12.16.31.46.42.67Z"/>
          <path d="m50.09,20.86c-.03.14-.07.43-.13.7.23-.02.43-.03.55-.03.43,0,.79.17.79.82,0,.58-.08,1.35-.28,1.76-.16.33-.39.41-.71.41-.18,0-.42-.03-.57-.07l-.06-.4c.2.06.46.1.6.1.18,0,.33-.04.42-.25.16-.33.23-.96.23-1.49,0-.45-.21-.53-.52-.53-.12,0-.31.01-.53.03-.18.7-.51,1.8-1.02,2.62l-.4-.16c.5-.67.86-1.78,1.03-2.43-.26.02-.49.05-.62.07-.11.01-.31.04-.44.06l-.04-.42c.15,0,.28,0,.43,0,.16,0,.45-.03.74-.05.08-.35.13-.73.13-1.06l.45.05c-.02.09-.04.19-.06.29Zm2.62,1.97l-.38.18c-.14-.5-.52-1.36-.87-1.76l.36-.16c.3.39.72,1.29.89,1.74Z"/>
          <path d="m54.29,20.51h.46c-.02.14-.06.41-.1.75,0,0,.01,0,.02,0l.15.17c-.06.09-.15.22-.22.34,0,.1-.02.21-.02.32.54-.44,1.09-.61,1.55-.61.67,0,1.27.48,1.27,1.23,0,.98-.71,1.49-1.77,1.69l-.18-.36c.82-.12,1.56-.5,1.56-1.34,0-.37-.3-.87-.94-.87-.56,0-1.08.28-1.52.7,0,.2-.01.4-.01.57,0,.44,0,.74.02,1.17,0,.09.01.21.02.3h-.42c0-.07.01-.21.01-.29,0-.47,0-.71.01-1.25,0-.05,0-.12,0-.19-.24.36-.56.82-.79,1.15l-.24-.34c.27-.34.83-1.1,1.07-1.48,0-.16.02-.32.03-.47-.22.03-.65.09-.95.13l-.04-.4c.11,0,.2,0,.32,0,.16,0,.45-.04.7-.08.01-.23.02-.41.02-.46,0-.11,0-.24-.02-.36Z"/>
          <path d="m58.8,21.45c0,.31,0,.75.03,1.15.08.81.32,1.35.66,1.35.25,0,.48-.51.6-.99l.31.35c-.29.83-.59,1.11-.91,1.11-.46,0-.9-.46-1.04-1.72-.04-.42-.05-1.02-.05-1.3,0-.11,0-.32-.03-.43h.47c-.02.13-.04.35-.04.48Zm3.43,2.08l-.39.16c-.09-.88-.38-1.88-.85-2.45l.38-.13c.43.56.78,1.6.86,2.42Z"/>
          <path d="m63.66,21.45c0,.31,0,.75.03,1.15.08.81.32,1.35.66,1.35.25,0,.48-.51.6-.99l.31.35c-.29.83-.59,1.11-.91,1.11-.46,0-.9-.46-1.04-1.72-.04-.42-.05-1.02-.05-1.3,0-.11,0-.32-.03-.43h.47c-.02.13-.04.35-.04.48Zm3.43,2.08l-.39.16c-.09-.88-.38-1.88-.85-2.45l.38-.13c.43.56.78,1.6.86,2.42Z"/>
          <path d="m71.34,21.82c-.16.75-.4,1.34-.79,1.78.57.27,1.09.56,1.44.83l-.27.33c-.35-.27-.87-.58-1.45-.88-.53.44-1.25.71-2.29.86-.04-.11-.12-.25-.19-.34.93-.13,1.6-.35,2.09-.71-.37-.17-.76-.33-1.12-.47-.04.08-.08.17-.11.24l-.35-.13c.19-.4.44-.95.68-1.52h-1.21v-.36h1.36c.17-.4.32-.8.45-1.15l.38.07c-.13.34-.27.71-.43,1.08h2.59v.36h-.77Zm-1.97,0c-.16.38-.32.76-.47,1.1.41.14.85.32,1.28.51.38-.4.61-.92.76-1.61h-1.58Z"/>
          <path d="m74.94,24.52l-.23-.36c.16-.01.31-.04.42-.06.62-.14,1.24-.6,1.24-1.44,0-.73-.47-1.34-1.3-1.41-.06.45-.16.95-.29,1.4-.3,1-.68,1.51-1.13,1.51s-.87-.5-.87-1.3c0-1.06.94-1.98,2.13-1.98s1.86.8,1.86,1.79-.67,1.7-1.82,1.85Zm-1.28-.81c.23,0,.49-.33.73-1.15.12-.4.22-.87.27-1.31-.93.12-1.51.91-1.51,1.58,0,.61.28.89.5.89Z"/>
          <path d="m81.85,22.82h-2v1.45c0,.24-.06.35-.24.41-.18.06-.5.07-.96.06-.03-.1-.09-.27-.16-.37.39.01.75.01.85,0,.11,0,.14-.03.14-.12v-1.45h-2.01v-.36h2.01v-.78h.23c.35-.19.72-.45,1-.69h-2.74v-.35h3.12l.09-.02.26.2c-.41.42-1.05.87-1.59,1.16v.48h2v.36Z"/>
          <path d="m84.68,24.52l-.23-.36c.16-.01.31-.04.42-.06.62-.14,1.24-.6,1.24-1.44,0-.73-.47-1.34-1.3-1.41-.06.45-.16.95-.29,1.4-.3,1-.68,1.51-1.13,1.51s-.87-.5-.87-1.3c0-1.06.94-1.98,2.13-1.98s1.86.8,1.86,1.79-.67,1.7-1.82,1.85Zm-1.28-.81c.23,0,.49-.33.73-1.15.12-.4.22-.87.27-1.31-.93.12-1.51.91-1.51,1.58,0,.61.28.89.5.89Z"/>
          <path d="m89.49,21.71c.51-.32.99-.74,1.33-1.14l.33.3c-.37.38-.82.75-1.31,1.08v2.05c0,.18,0,.42.03.52h-.48c.01-.09.03-.34.03-.52v-1.8c-.51.29-1.18.58-1.85.79l-.19-.38c.84-.23,1.59-.57,2.13-.91Z"/>
          <path d="m96.02,22.17c-.13.48-.35.99-.71,1.38-.51.56-1.12.85-1.74,1.02l-.3-.35c.69-.14,1.3-.45,1.71-.89.3-.31.49-.72.58-1.07h-2.58c-.12,0-.3,0-.48.01v-.41c.18.02.35.03.48.03h2.56c.11,0,.21,0,.27-.04l.28.17s-.05.11-.06.14Zm-2.65-1.4h1.91c.16,0,.33,0,.44-.02v.4c-.12,0-.28-.01-.45-.01h-1.91c-.15,0-.31,0-.44.01v-.4c.13.02.28.02.44.02Z"/>
          <path d="m100.45,21.33c-.17.42-.47.99-.82,1.42.51.44,1.1,1.07,1.42,1.45l-.34.29c-.33-.43-.84-1-1.34-1.44-.52.56-1.18,1.09-1.9,1.42l-.31-.33c.78-.31,1.5-.88,2-1.44.33-.37.69-.95.81-1.35h-1.9c-.17,0-.44.02-.49.02v-.44c.07,0,.35.03.49.03h1.88c.16,0,.29-.01.36-.04l.25.19s-.09.15-.12.21Z"/>
          <path d="m103.19,21.11c0-.14,0-.35-.04-.51h.48c-.01.15-.03.36-.03.51v.79c.64.19,1.57.54,2.08.8l-.17.41c-.53-.29-1.37-.61-1.91-.78,0,.73,0,1.46,0,1.6,0,.15,0,.41.03.57h-.47c.02-.16.03-.39.03-.57v-2.83Z"/>
          <path d="m108.17,23.85c-.33.31-.83.61-1.25.81-.06-.07-.19-.19-.28-.24.43-.17.89-.43,1.19-.69l.33.13Zm2.58-.05c-.07-.08-.17-.17-.29-.26-.48.01-.97.03-1.45.04v1.15h-.35v-1.14c-.71.02-1.38.03-1.89.04l-.03-.31c.32,0,.71,0,1.13,0,.07-.04.14-.08.21-.13-.24-.18-.61-.39-.91-.54l.23-.2c.1.05.2.1.32.16.18-.13.37-.31.54-.47h-1.53v-.29h1.93v-.31h-1.41v-.28h1.41v-.31h-1.67v-.28h1.67v-.36h.35v.36h1.74v.28h-1.74v.31h1.46v.28h-1.46v.31h1.96v.29h-2.24c-.24.21-.52.45-.76.62.15.09.29.18.4.26.38-.26.76-.55,1.03-.8l.32.18c-.38.31-.87.66-1.31.93.53,0,1.11-.02,1.68-.03-.17-.12-.35-.23-.52-.33l.25-.19c.42.23.93.57,1.18.84l-.27.21Zm-.99-.08c.4.17.93.47,1.2.7l-.28.21c-.25-.22-.76-.53-1.18-.72l.27-.19Z"/>
          <path d="m113.32,23.03c-.11-.17-.36-.52-.56-.78v2.49h-.36v-2.33c-.21.57-.49,1.12-.77,1.45-.04-.1-.13-.25-.2-.34.37-.4.74-1.16.92-1.83h-.75v-.35h.81v-1.04h.36v1.04h.66v.35h-.66v.13c.18.19.67.76.79.9l-.23.31Zm2.61-1.34h-.5v2.56c0,.25-.06.36-.22.41-.16.06-.45.07-.86.07-.02-.1-.08-.27-.13-.37.32,0,.63,0,.72,0,.09,0,.12-.03.12-.12v-2.07c-.38.7-.94,1.39-1.47,1.79-.06-.09-.17-.22-.26-.29.61-.41,1.25-1.23,1.61-1.99h-1.32v-.35h1.45v-1.04h.37v1.04h.5v.35Z"/>
          <path d="m118.26,24.59l-.33-.31c.89-.34,1.33-.76,1.33-2.12v-.2h-1.39v.79c0,.18.01.39.02.44h-.43s.02-.26.02-.44v-.79h-.53c-.21,0-.43.01-.49.02v-.42s.28.03.49.03h.53v-.62c0-.1,0-.24-.02-.35h.43s-.02.18-.02.35v.62h1.39v-.61c0-.19-.01-.35-.02-.4h.44s-.02.21-.02.4v.61h.54c.21,0,.38-.01.45-.02v.41c-.05,0-.23-.01-.45-.01h-.54v.17c0,1.29-.28,1.96-1.39,2.46Z"/>
          <path d="m123.56,21.71c.51-.32.99-.74,1.33-1.14l.33.3c-.37.38-.82.75-1.31,1.08v2.05c0,.18,0,.42.03.52h-.48c.01-.09.03-.34.03-.52v-1.8c-.51.29-1.18.58-1.85.79l-.19-.38c.84-.23,1.59-.57,2.13-.91Z"/>
          <path d="m127.52,21.11c0-.14,0-.35-.04-.51h.48c-.01.15-.03.36-.03.51v.79c.64.19,1.57.54,2.08.8l-.17.41c-.53-.29-1.37-.61-1.91-.78,0,.73,0,1.46,0,1.6,0,.15,0,.41.03.57h-.47c.02-.16.03-.39.03-.57v-2.83Z"/>
        </g>
        <g id="_グループ_19" data-name="グループ 19">
          <path id="_パス_12" data-name="パス 12" class="cls-1" d="m.56,27.6c.23.03,3.08.01,3.81-.23s3.38-3.2,2.42-5.53c.28-.14.56-.27.86-.38,0,0,1.38,1.44,1.44,1.53s1.22,1.93,1.22,1.93c0,0,2.36,1.45,3.79,1.85s10.05,2.77,11.01-4.66c1.16-1.55,4.01-6.28-3-10.84-7.01-4.56-12.79.78-13.69,2.52s-1,1.87-1,1.87c0,0-1.83-.64-3.28.34-1.25,1.41-1.51,2.72-1.32,5.16s.44,3.77.44,3.77l-1.3,2.19-1.39.48Z"/>
          <g id="svg0_2" data-name="svg0 2">
            <g>
              <path id="_パス_1" data-name="パス 1" d="m23.16,18.33c.05.05.09.11.14.17.03.03.05.05.07.08l-.04-.05.04.06c.09.13.18.26.27.39.16.25.29.51.41.77v.03c.04.05.04.04,0-.03.02.03.03.07.04.1.02.06.04.11.07.17.05.15.1.3.15.46s.07.28.11.43c.01.06.02.12.04.18,0,.03.02.24.04.25v-.07s0,.05,0,.07c0,.02,0,.07.01.11,0,.07.01.15.02.22.01.15.01.29.01.44s0,.29-.02.43c0,.07-.01.14-.02.22,0,.03-.01.07-.01.1,0-.17,0-.04,0,0-.04.27-.11.53-.2.79-.02.05-.04.1-.06.16l-.04.09s-.07.13,0,0c-.07.12-.12.26-.18.38-.06.11-.12.21-.18.31-.08.12-.18.23-.25.35.07-.13.03-.04,0,0l-.06.08c-.04.05-.09.1-.13.15-.09.1-.18.19-.28.28-.1.09-.2.18-.3.26-.03.03-.12.07,0,0-.03.02-.05.04-.08.06-.05.04-.11.08-.16.12-.24.16-.49.3-.76.42-.04.02-.23.11-.09.04-.07.04-.15.06-.23.09-.17.06-.34.12-.51.17-.32.09-.64.16-.97.21-.04,0-.08.02-.12.02.15-.01.01,0-.02,0-.07,0-.14.02-.21.02-.18.02-.36.03-.54.04-.34.01-.67.02-1.01.01-.38,0-.76-.02-1.14-.06-.1,0-.2-.02-.29-.03h-.13s-.06-.02-.06-.02c-.18-.02-.36-.05-.54-.09-.37-.07-.74-.15-1.1-.26-.18-.05-.37-.12-.56-.18-.09-.03-.18-.07-.28-.1l-.12-.05-.08-.03c.07.03.07.03.02,0-.13-.07-.28-.09-.43-.06-.14.04-.26.13-.33.25-.13.24-.09.63.2.75,1.37.58,2.83.87,4.32.94,1.43.07,2.91-.01,4.26-.52.63-.24,1.22-.57,1.75-.99.46-.37.86-.82,1.17-1.32.67-1.05.93-2.3.84-3.53-.1-1.29-.54-2.58-1.33-3.62-.11-.15-.23-.29-.35-.43-.19-.22-.59-.21-.78,0-.21.22-.21.56,0,.78h0Z"/>
              <path d="m18.44,28.04c-.27,0-.54,0-.83-.02-1.58-.07-3.04-.39-4.33-.94-.12-.05-.21-.15-.26-.29-.06-.17-.05-.38.04-.53.08-.14.21-.23.36-.27.16-.04.32-.02.46.06l.18.07c.09.04.18.07.27.1.19.07.37.13.56.18.36.1.72.19,1.1.25h.08c.15.04.3.07.45.09l.19.02c.1.01.19.02.29.03.36.03.74.05,1.13.06.35,0,.69,0,1.01-.01.18,0,.36-.02.53-.04.07,0,.14-.01.21-.02,0,0,.02,0,.03,0,.02,0,.05,0,.07-.01h.03c.33-.06.65-.13.97-.21.17-.05.34-.1.51-.16.02,0,.05-.02.08-.03.05-.02.1-.04.15-.06,0,0,0,0,0,0h0s.01,0,.02,0l.08-.04c.26-.12.51-.26.75-.42.05-.04.11-.07.16-.11,0,0,0-.02.03-.03h0s0,0,0,0c0,0,.01,0,.02-.01,0,0,.02-.01.03-.02.1-.08.2-.17.3-.26.09-.09.19-.18.27-.28.04-.05.09-.1.13-.15l.06-.07h0s.03-.06.04-.07c.03-.04.06-.09.09-.13.04-.05.07-.1.11-.15.06-.09.12-.19.18-.31.03-.05.05-.11.08-.16.02-.05.04-.09.06-.14,0-.01.02-.03.04-.07l.03-.09s.03-.08.05-.12v-.03c.1-.26.16-.52.21-.78,0,0,0,0,0,0,0-.07,0-.09.01-.1,0-.07.01-.14.02-.21.01-.14.02-.29.02-.43,0-.15,0-.29-.01-.43,0-.07-.01-.15-.02-.22,0-.03,0-.07-.01-.1-.01-.03-.02-.08-.04-.2,0-.03,0-.05,0-.06-.01-.06-.02-.12-.04-.18-.04-.16-.07-.28-.11-.42-.04-.15-.09-.3-.15-.45-.02-.05-.04-.1-.06-.15v-.02s-.01-.02-.02-.03h0s0,0,0,0c0,0,0,0,0,0,0,0,0-.02-.01-.03v-.03c-.13-.27-.27-.52-.42-.77-.09-.14-.19-.28-.27-.39l-.04-.06h0s-.02-.02-.02-.03c-.03-.03-.05-.06-.07-.09-.02-.03-.04-.05-.07-.08h0c-.22-.24-.22-.6,0-.84.1-.11.26-.17.43-.17h0c.17,0,.32.07.41.17.11.12.22.26.35.44.76,1,1.23,2.29,1.34,3.65.1,1.29-.2,2.55-.85,3.56-.32.5-.72.95-1.18,1.33-.53.42-1.12.76-1.76,1-.97.37-2.08.55-3.45.55Zm-4.87-1.98s-.09,0-.13.02c-.13.04-.23.12-.3.23-.07.13-.08.31-.03.45.03.08.09.18.21.23,1.28.55,2.73.86,4.3.93,1.75.08,3.09-.08,4.24-.52.63-.24,1.21-.57,1.73-.98.46-.37.85-.81,1.16-1.31.63-.99.93-2.24.83-3.5-.1-1.34-.57-2.62-1.32-3.6-.14-.18-.24-.31-.35-.43-.08-.09-.2-.14-.34-.14-.14,0-.28.05-.37.14-.19.2-.19.51,0,.71h0s0,0,0,0c.02.03.05.05.07.08.02.03.05.06.07.08.03.03.05.06.07.09h0s0,0,0,0c.08.11.18.25.27.39.16.25.3.51.41.78h0s.04.07.05.11v.02s.05.1.06.15c.06.15.1.3.15.46.04.14.07.27.11.43.01.06.02.12.04.18,0,0,0,.03,0,.06,0,.03,0,.08.01.12h.01s.02.16.02.16h0s0,.01,0,.02c0,.07.01.15.02.22,0,.14.01.29.01.44,0,.15,0,.29-.02.44,0,.07-.01.15-.02.22,0,.02,0,.04,0,.06,0,.01,0,.03,0,.04h0c-.04.28-.11.55-.2.81v.03s-.04.08-.06.13l-.03.09h0s0,0,0,0c0,0,0,0,0,0-.01.03-.02.05-.03.06-.02.05-.05.1-.07.14-.03.06-.05.11-.08.17-.06.12-.13.22-.19.32-.03.05-.07.1-.11.15-.03.04-.06.08-.09.13,0,.02-.02.04-.04.07h0s0,0,0,0l-.06.07c-.04.05-.09.1-.13.15-.09.1-.18.19-.28.28-.1.09-.2.18-.3.26h0s-.03.02-.04.04c-.01,0-.02.02-.03.03-.05.04-.11.08-.17.12-.24.16-.5.31-.76.43l-.07.04s-.03.02-.05.02c0,0-.01,0-.02,0h0s0,0,0,0c-.04.02-.07.03-.11.04-.03,0-.05.02-.08.03-.17.06-.34.12-.52.17-.32.09-.65.16-.98.21h-.03s0,0,0,0c-.01,0-.03.01-.1.01h0s-.01,0-.02,0c-.06,0-.13.02-.2.02-.17.02-.36.03-.54.04-.32.01-.67.02-1.02.02-.39,0-.78-.03-1.14-.06-.1,0-.2-.02-.29-.03l-.19-.02c-.16-.02-.31-.04-.46-.07h-.08c-.37-.08-.75-.17-1.1-.27-.18-.05-.37-.12-.56-.18-.09-.03-.18-.07-.28-.1l-.14-.06h0s-.04-.02-.04-.02c0,0,0,0,0,0,0,0,0,0-.01,0h0,0c-.08-.04-.17-.06-.25-.06Z"/>
            </g>
            <g>
              <path id="_パス_2" data-name="パス 2" d="m11.65,20.72c-.54-.11-1.1-.01-1.57.27-.47.3-.83.73-1.03,1.25-.4.99-.05,2.11.68,2.85.42.42.94.72,1.51.87.28.07.61-.09.68-.38.08-.29-.1-.59-.39-.68-.1-.03-.19-.06-.28-.09-.02,0-.04-.02-.06-.02.12.03.08.04.04.02-.06-.03-.11-.05-.16-.08-.08-.04-.16-.09-.24-.15-.02-.01-.15-.11-.08-.05s-.01-.01-.02-.02l-.06-.05c-.07-.06-.14-.13-.2-.19-.04-.04-.07-.08-.11-.12s-.01-.05.03.03c-.02-.03-.04-.05-.06-.08-.05-.08-.1-.15-.15-.23-.02-.04-.04-.09-.07-.13s-.03-.09.02.04c-.01-.03-.02-.06-.03-.09-.03-.09-.06-.18-.08-.27,0-.04-.01-.08-.02-.13.04.17,0,0,0-.05,0-.1,0-.19,0-.29,0,.16,0,.04,0-.01s.03-.12.04-.17.03-.09.05-.14c0-.02.02-.04.02-.06-.05.14-.03.07-.02.04.04-.09.09-.18.15-.26.02-.04.13-.15.02-.03.03-.03.05-.07.08-.1s.07-.08.11-.11c.04-.03.08-.07.12-.1,0,0-.11.08-.04.03.03-.02.05-.04.08-.05.04-.03.09-.05.13-.08s.2-.08.04-.02c.05-.02.09-.04.15-.05s.1-.02.15-.04c.11-.02-.12.01-.04,0h.08c.06-.01.12-.01.17,0h.06s.02,0-.07,0h.06c.28.07.61-.07.68-.37.06-.27-.08-.62-.39-.68h0Z"/>
              <path d="m11.38,26.03s-.1,0-.15-.02c-.58-.15-1.11-.46-1.53-.88-.81-.82-1.08-1.96-.69-2.9.21-.52.57-.96,1.05-1.27.48-.3,1.05-.39,1.6-.28h0c.14.03.25.11.33.23.09.15.13.33.09.5-.08.34-.44.48-.74.42h-.05c-.06,0-.11,0-.17,0h-.04s-.04.01-.04.01c-.03,0-.06.01-.1.02-.02,0-.04.01-.06.02,0,0-.02.01-.03.01-.02,0-.07.02-.08.04l-.03.02s-.07.04-.1.06c-.02,0-.03.02-.04.03,0,0,0,0,0,0-.04.04-.07.07-.11.1-.03.03-.08.08-.1.11,0,0-.02.02-.03.03,0,.01-.01.02-.02.03-.02.02-.04.05-.05.06-.05.08-.1.16-.14.25,0,.02-.02.04-.02.05-.01.03-.02.06-.03.1-.02.06-.03.12-.04.17,0,.01,0,.03,0,.04,0,.03,0,.05,0,.06,0,0,0,.02,0,.03,0,.06,0,.11,0,.17,0,.02,0,.08.01.1,0,0,0,.02,0,.03,0,.01,0,.03,0,.04.02.09.05.18.08.27,0,0,0,0,0,0,0,.01.01.03.02.05.02.04.04.08.06.12.04.08.09.16.14.23.02,0,.03.03.06.07.03.03.05.06.08.09.06.06.13.13.2.19l.06.05s0,0,.01,0c.01,0,.03.02.05.03.02.01.03.02.04.03.08.05.16.1.24.14.04.02.09.04.13.06.05.01.07.02.09.04.08.03.16.06.24.08.32.09.5.41.42.73-.03.14-.12.26-.26.34-.1.06-.22.09-.33.09Zm-.17-5.3c-.39,0-.77.11-1.1.31-.46.29-.81.72-1.01,1.23-.37.91-.11,2.01.67,2.8.41.41.92.71,1.49.86.13.03.29.01.41-.07.11-.07.19-.17.22-.29.07-.27-.09-.54-.36-.62-.09-.02-.19-.06-.29-.09h0s-.02,0-.02,0h-.02s-.01-.01-.02-.01h0s-.09-.04-.13-.07c-.08-.05-.17-.1-.25-.15,0,0-.02-.01-.04-.03,0,0-.01,0-.02,0h0s0,0,0,0c0,0-.01-.01-.02-.02,0,0-.02-.01-.03-.02l-.06-.05c-.07-.06-.14-.13-.21-.2-.03-.03-.06-.07-.09-.1h0s0,0,0,0c0,0,0,0,0,0h-.01s-.02-.03-.02-.05c0,0,0,0,0,0-.06-.08-.11-.16-.15-.24-.02-.03-.03-.06-.05-.1h0s0,0,0-.01c0,0,0-.01,0-.02h0s-.02-.05-.02-.06c-.03-.09-.06-.18-.08-.27,0-.02,0-.05-.01-.07,0-.02,0-.04,0-.05,0,0,0,0,0,0h0s0-.04,0-.06c0-.06,0-.12,0-.17,0-.02,0-.03,0-.05,0-.02,0-.04,0-.05,0,0,0-.01,0-.02h0s0-.02,0-.02c.01-.05.03-.12.04-.18.01-.05.02-.08.04-.11,0-.01,0-.03.02-.05h0s0-.03.01-.04h0c.04-.08.09-.16.13-.23,0,0,.01-.02.02-.03h0s0,0,0,0h0s.02-.03.03-.04c.02-.02.03-.04.05-.06.03-.03.07-.08.11-.12.01-.01.03-.02.04-.03,0-.01.01-.02.02-.03h0s0,0,0,0c0,0,.01-.01.02-.02h.02s0-.02,0-.02c0,0,0,0,0,0l.08-.08v.03s.05-.03.08-.04l.03-.02s.03-.01.05-.02h0,0s0,0,0,0c.02,0,.03-.01.05-.02.03-.01.06-.02.09-.03.02,0,.05-.01.07-.02.01-.01.04-.02.07-.02.03,0,.06,0,.07,0,.05,0,.11,0,.16,0h0c.08,0,.1,0,.12.02.25.03.52-.09.58-.36.03-.14,0-.31-.08-.43-.05-.07-.13-.16-.27-.19h0c-.14-.03-.29-.04-.43-.04Z"/>
            </g>
            <g>
              <path id="_パス_3" data-name="パス 3" d="m19.86,20.25l.19,1.42c0,.07.01.15.05.21.02.07.06.13.11.18.22.21.57.22.78,0,0,0,0,0,0,0,.11-.1.16-.24.16-.39l-.19-1.42c0-.07-.01-.15-.05-.21-.02-.07-.06-.13-.11-.18-.22-.21-.57-.22-.78,0,0,0,0,0,0,0-.11.1-.16.24-.16.39h0Z"/>
              <path d="m20.61,22.27c-.15,0-.31-.06-.43-.18-.06-.05-.1-.12-.13-.2-.04-.07-.05-.15-.05-.23l-.19-1.42c0-.16.06-.31.18-.42h.01c.22-.23.6-.23.84,0,.06.05.1.12.13.19.04.07.05.15.05.23l.19,1.41c0,.16-.06.32-.18.43h-.01c-.11.12-.26.17-.41.17Zm-.7-2.02l.19,1.42c0,.07.01.14.04.2.02.07.06.12.1.16.2.2.52.2.72,0h0c.09-.1.15-.23.14-.36l-.19-1.41c0-.07-.01-.14-.04-.2-.02-.07-.06-.12-.1-.16-.2-.2-.52-.2-.72,0h0c-.09.1-.15.22-.14.35Z"/>
            </g>
            <g>
              <path id="_パス_4" data-name="パス 4" d="m17.13,20.33l.16,1.42c0,.14.06.28.16.39.11.1.25.16.39.16.15,0,.29-.06.39-.16.11-.1.16-.24.16-.39l-.16-1.42c0-.14-.06-.28-.16-.39-.22-.21-.57-.22-.78,0,0,0,0,0,0,0-.11.1-.16.24-.16.39Z"/>
              <path d="m17.85,22.35c-.16,0-.31-.06-.42-.17-.11-.12-.17-.26-.18-.42l-.16-1.42c0-.16.06-.31.18-.42.24-.23.62-.23.85,0,.11.12.17.26.18.42l.16,1.42c0,.16-.06.32-.18.43-.11.11-.26.17-.42.17Zm-.67-2.02l.16,1.42c0,.14.06.26.15.36.1.09.22.14.36.15.13,0,.26-.05.36-.15.1-.09.15-.22.15-.36l-.16-1.42c0-.14-.06-.26-.15-.36-.2-.2-.52-.2-.72,0h0c-.09.09-.14.22-.14.36Z"/>
            </g>
            <g>
              <path id="_パス_5" data-name="パス 5" d="m20.13,14.84s0,.07.02.11c-.01-.09-.01-.1-.03-.04v.03c.03.07.04.14.04.21,0,.14,0,.28,0,.42,0,.04,0,.07.06.11v.04c-.07.06-.07.05-.06-.04-.02.06-.03.13-.03.19-.03.14-.06.28-.11.41-.02.06-.04.12-.06.18-.01.03-.03.07-.04.1.03-.08.04-.09.01-.03v.03c-.07.13-.14.26-.22.38-.04.06-.07.12-.12.18-.02.03-.04.06-.06.09l-.02.03s-.03.04.02-.03c0,.02-.11.13-.13.15-.05.06-.1.11-.16.17-.22.21-.22.56,0,.78.22.21.57.21.78,0,.98-.99,1.41-2.39,1.17-3.75-.05-.28-.42-.47-.68-.38-.31.1-.44.37-.39.68h0Z"/>
              <path d="m19.64,18.52c-.15,0-.31-.06-.42-.17-.11-.11-.18-.26-.18-.42s.06-.31.18-.42c.05-.05.11-.11.16-.16,0,0,.01-.01.03-.03,0,0,.03-.03.05-.05,0,0,0-.01,0-.02h0s0,0,0,0c0,0,.01-.02.02-.02l.02-.03s.04-.06.06-.09c.04-.06.08-.12.11-.18.07-.12.14-.25.2-.37h0s.02-.07.04-.1c.02-.06.04-.12.06-.18.04-.13.08-.27.11-.41,0-.06.01-.13.03-.2h.02s-.02-.06-.02-.09c.01-.14.01-.28,0-.42,0-.07,0-.13-.04-.19v-.02s0-.05,0-.05c0-.01,0-.02.01-.03h0c-.06-.35.1-.63.42-.73.15-.05.33-.02.48.07.14.08.23.21.26.35.24,1.38-.2,2.79-1.18,3.79-.12.12-.27.17-.42.17Zm-.06-1.29s-.04.07-.11.15c-.01.01-.02.02-.02.02-.05.06-.11.11-.16.17-.1.09-.15.22-.15.36s.05.26.15.36c.2.2.52.2.72,0,.96-.98,1.4-2.37,1.16-3.71-.02-.11-.1-.21-.21-.29-.13-.08-.29-.1-.41-.06-.27.09-.41.32-.36.62h0s0,0,0,.01c0,.02.01.05.02.09h-.03c.03.08.03.14.04.21,0,.14,0,.29,0,.43,0,.03,0,.04.03.06h.02v.1h-.02s-.05.05-.07.06c0,.02,0,.05,0,.07-.03.15-.07.29-.11.42-.02.06-.04.13-.06.18,0,0,0,0,0,.02,0,0,0,.01,0,.02h0s0,0,0,0c0,.01-.01.03-.02.06h0s0,0,0,0c-.06.13-.13.26-.2.38-.04.06-.08.12-.12.18-.02.03-.04.05-.05.08Z"/>
            </g>
            <g>
              <path id="_パス_6" data-name="パス 6" d="m17.28,15.19c0,.15-.01.3-.03.45-.01.12.02-.12,0,0,0,.04-.01.08-.02.12-.01.08-.03.15-.05.23-.03.15-.08.3-.12.45-.02.07-.05.14-.07.21l-.04.1s-.06.16-.03.07-.02.03-.02.05c-.02.04-.04.08-.05.12-.03.06-.06.13-.1.19-.07.14-.15.27-.24.4-.04.06-.08.12-.12.17-.06.09.08-.09-.01.01-.02.03-.05.06-.08.09-.1.11-.2.22-.31.32-.21.22-.21.56,0,.78.22.21.57.21.78,0,1.02-.94,1.59-2.37,1.62-3.75,0-.3-.25-.55-.55-.55s-.55.25-.55.55h0Z"/>
              <path d="m16.38,19.14c-.15,0-.3-.06-.42-.17-.23-.23-.23-.61,0-.84.11-.1.22-.21.31-.32.03-.03.05-.06.08-.09,0,0,0,0,0,0,0,0,0,0,0,0l.03-.05s.06-.08.09-.13c.08-.12.16-.26.24-.39.03-.06.07-.13.1-.19.02-.04.04-.08.05-.11,0,0,0-.02.02-.04,0-.02.01-.04.02-.05,0-.02.01-.03.01-.03l.04-.1c.02-.07.05-.13.07-.2.05-.15.09-.3.12-.45.02-.07.03-.15.04-.22,0-.04.01-.08.02-.12v-.02c.02-.14.03-.28.03-.42v-.02c0-.32.28-.58.6-.58s.6.27.6.59c-.04,1.46-.65,2.88-1.64,3.78-.12.11-.27.17-.42.17Zm.02-1.34s-.04.05-.06.07c-.1.11-.2.22-.31.32-.19.19-.19.51,0,.71.2.19.52.19.72,0,.97-.89,1.57-2.28,1.61-3.72,0-.28-.23-.5-.51-.5s-.51.22-.51.5v.02c0,.13-.01.27-.03.4,0,.02,0,.04,0,.06,0,0,0,.02,0,.04,0,.02,0,.05-.01.07-.01.08-.03.15-.05.23-.03.15-.08.3-.12.45-.02.07-.05.14-.07.21l-.04.1s-.01.04-.02.06c0,0,0,.02-.01.03h0s0,.02,0,.02c0,0,0,0,0,.01-.02.04-.04.08-.05.12-.03.07-.07.13-.1.19-.08.14-.16.27-.24.4-.03.04-.06.09-.09.13h0s-.01.04-.02.05c0,.01-.02.03-.03.04Z"/>
            </g>
            <g>
              <path id="_パス_7" data-name="パス 7" d="m14.3,15.68c-.06.29-.15.57-.26.84l-.04.1c-.04.09.04-.1,0,0-.03.07-.06.14-.1.21-.06.13-.13.26-.21.39s-.15.25-.24.37c-.04.06-.09.13-.13.18-.02.03-.04.05-.06.08,0,0,.07-.09.03-.04l-.04.05c-.19.23-.39.44-.61.64-.06.05-.12.11-.18.16-.03.03-.06.05-.09.08l-.04.03c-.06.05.09-.06.03-.02-.14.1-.28.2-.42.29-.25.15-.37.5-.2.75s.5.37.76.2c1.15-.72,2.04-1.78,2.55-3.03.14-.32.25-.66.32-1,.06-.28-.08-.61-.39-.68-.28-.06-.62.08-.68.38h0Z"/>
              <path d="m12.23,20.12c-.2,0-.4-.11-.53-.3-.08-.12-.1-.26-.07-.41.04-.17.14-.32.29-.41.12-.08.25-.16.39-.26,0,0,0,0,0,0l.04-.03s.04-.03.06-.05l.04-.03c.06-.05.12-.11.18-.16.22-.2.42-.41.6-.63l.03-.04s.02-.03.03-.04l.02-.02s.03-.05.05-.07c.03-.04.05-.07.08-.11.08-.11.16-.23.23-.37.08-.14.15-.26.21-.39.03-.06.06-.13.09-.19h0s.04-.11.04-.11c.11-.27.19-.55.25-.83v-.02c.04-.13.12-.24.24-.32.14-.09.33-.12.5-.09.34.08.49.44.42.73-.08.35-.19.69-.32,1.01-.52,1.26-1.41,2.31-2.57,3.05-.09.06-.19.09-.3.09Zm.11-1.29c-.14.1-.26.18-.38.26-.12.08-.21.21-.24.35-.02.09-.02.21.06.34.16.25.47.33.7.18,1.14-.72,2.02-1.76,2.54-3,.14-.32.24-.66.32-1,.05-.25-.07-.56-.35-.62-.14-.03-.3,0-.43.07-.07.05-.17.13-.2.28v.02c-.07.28-.16.56-.26.83l-.03.07s0,0,0,0h0s0,0,0,0c0,0,0,.01,0,.02,0,0,0,.01,0,.02h0s0,0,0,0c-.03.06-.06.12-.09.18-.06.12-.13.25-.21.39-.08.14-.16.26-.24.37-.02.04-.05.07-.08.11-.02.02-.04.05-.05.07l-.02.02s0,0,0,0h0s-.01.01-.01.01c0,.01-.02.03-.03.04h0s-.01.01-.01.01c-.19.23-.39.45-.61.64-.06.05-.12.11-.19.16l-.04.03s-.03.03-.05.04c0,0-.01.01-.02.02-.02.02-.04.03-.05.04Z"/>
            </g>
            <g>
              <path id="_パス_8" data-name="パス 8" d="m21.93,11.8c.42.19.82.42,1.2.67.08.06.17.12.25.18l.05.04s.1.08.02.02l.02.02.08.06c.16.13.32.27.47.42.15.14.29.29.43.45.07.08.14.16.2.23.03.03.12.17.02.03.03.05.07.09.11.14.25.33.46.69.65,1.05.04.09.08.17.12.26.01.02.02.05.03.07.03.07-.05-.13-.01-.03.02.05.04.1.06.15.07.19.14.39.2.58s.11.42.15.63c.02.11.02.22.05.33,0-.01-.02-.14,0-.04v.07c.02.07.02.14.03.21.04.45.03.9-.01,1.35,0,.06-.01.12-.02.18v.07c-.02.1,0-.03,0-.04-.03.12-.04.23-.06.35-.04.23-.09.46-.15.68-.07.24-.14.48-.23.72-.02.05-.04.11-.06.16-.01.03-.03.06-.04.09-.04.1.05-.11,0,0s-.1.22-.15.32c-.1.21-.22.42-.35.62-.06.1-.13.19-.2.29-.01.02-.02.03-.04.05-.07.09.08-.1.01-.01-.04.05-.08.1-.12.14-.18.22-.23.57,0,.78.21.19.58.23.78,0,.61-.74,1.07-1.59,1.35-2.51.3-.93.44-1.91.41-2.89-.07-1.88-.83-3.66-2.14-5.02-.74-.76-1.61-1.38-2.57-1.82-.26-.12-.61-.08-.76.2-.13.24-.08.62.2.75h0Z"/>
              <path d="m25.08,23.3c-.16,0-.33-.06-.45-.17-.25-.23-.2-.61,0-.84.04-.04.07-.09.11-.13v-.02s.03-.02.03-.03c.07-.1.14-.19.2-.29.13-.2.24-.4.35-.61.03-.07.07-.14.1-.2.02-.04.04-.08.05-.12,0-.01.01-.02.02-.03,0-.02.01-.03.02-.05.02-.05.04-.11.06-.16.09-.23.16-.47.23-.71.06-.21.11-.44.15-.67.01-.11.03-.23.05-.34v-.04s.01-.08.02-.11v-.07c.05-.44.05-.9.02-1.34,0-.07-.01-.14-.02-.21v-.03c-.02-.06-.03-.13-.04-.19,0-.04-.01-.08-.02-.12-.04-.2-.09-.43-.15-.63-.06-.19-.12-.39-.2-.58l-.06-.14s-.02-.04-.02-.05c-.04-.09-.08-.17-.12-.26-.18-.37-.4-.72-.64-1.05-.02-.03-.04-.05-.05-.07,0,0,0,0-.01-.01h0s0,0,0,0c0,0,0,0-.01-.01-.02-.02-.04-.06-.05-.07-.06-.08-.13-.16-.2-.23-.13-.15-.28-.3-.43-.44-.15-.14-.31-.28-.47-.41l-.08-.06s0,0-.01,0c-.01,0-.03-.02-.03-.02l-.05-.04c-.08-.06-.16-.12-.25-.18-.38-.25-.78-.48-1.19-.67h0c-.12-.06-.21-.16-.26-.3-.06-.16-.04-.36.04-.51.17-.31.55-.35.82-.22.97.45,1.84,1.06,2.58,1.83,1.31,1.37,2.08,3.16,2.15,5.05.03.99-.11,1.96-.41,2.91-.28.93-.74,1.77-1.36,2.52-.09.1-.21.16-.36.17-.01,0-.03,0-.04,0Zm-.3-1.05s-.06.07-.08.1c-.17.2-.22.51,0,.71.11.1.27.15.42.15.09,0,.21-.03.3-.14.61-.74,1.07-1.57,1.34-2.49.3-.93.43-1.9.4-2.88-.07-1.87-.83-3.64-2.13-4.99-.73-.76-1.6-1.37-2.56-1.81-.24-.11-.56-.09-.7.18-.07.13-.08.3-.03.44.03.08.09.19.21.25h0c.42.19.82.42,1.2.67.09.06.17.12.25.18l.05.04s.01.01.03.02h0s.01,0,.02.01l.09.07c.17.13.33.28.48.42.15.14.3.3.43.45.07.08.14.16.2.24,0,0,.01.02.02.03h0s.03.04.05.07c.02.02.04.05.06.08.24.33.46.69.65,1.06.04.09.08.17.12.26,0,0,0,0,0,.01h0s0,0,0,0c0,0,0,0,0,0,0,.01.01.02.02.04,0,0,0,.01,0,.02h0s0,0,0,0c0,0,0,0,0,0l.04.1c.07.19.14.39.2.59.06.2.12.43.16.63,0,.04.01.09.02.13,0,.03,0,.07.01.1.02.02.02.05.02.11h0v.02c.01.07.02.14.02.21.04.45.03.91-.01,1.36v.07s-.01.07-.02.11v.04s0,0,0,0c0,0,0,0,0,0v.03s0,.05-.02.06c-.02.08-.03.17-.04.25-.04.24-.1.47-.15.69-.07.25-.14.49-.23.72-.02.06-.04.11-.06.16,0,.02-.02.04-.03.06,0,.01-.01.03-.02.04,0,.01-.01.02-.02.03-.01.02-.02.05-.03.07-.03.07-.06.14-.1.21-.1.21-.22.42-.35.62-.06.1-.13.2-.2.29,0,0,0,0,0,0,0,0,0,0,0,.01h0s0,0,0,0c0,0-.01.02-.02.03,0,0-.01.02-.02.02,0,0,0,0,0,0h0s0,0,0,0Z"/>
            </g>
            <g>
              <path id="_パス_9" data-name="パス 9" d="m20.02,9.75c-.71-.36-1.47-.6-2.26-.71-.8-.12-1.61-.16-2.42-.1-.67.03-1.33.15-1.96.34-.77.26-1.5.6-2.18,1.04-1.45.91-2.72,2.15-3.58,3.63-.97,1.65-1.33,3.58-.99,5.46.26,1.5.98,2.99,2.08,4.06.11.1.22.2.34.3.11.1.25.16.39.16.15,0,.29-.06.39-.16.18-.2.24-.59,0-.78-.23-.19-.45-.4-.65-.62-.05-.06-.1-.12-.15-.18-.01-.02-.02-.03-.04-.05-.06-.07.03.04.03.04-.03-.04-.05-.07-.08-.11-.1-.14-.2-.28-.29-.42-.19-.31-.36-.62-.5-.95-.04-.08.01.03.02.04,0-.02-.02-.04-.03-.06-.02-.04-.03-.08-.05-.13-.04-.09-.07-.18-.1-.27-.06-.18-.12-.37-.17-.56s-.09-.38-.13-.58c0-.05-.02-.09-.02-.14,0-.02,0-.05-.01-.07-.01-.07.01.11,0,.04-.01-.11-.03-.21-.03-.31-.04-.42-.04-.85,0-1.27,0-.05.01-.11.02-.16s.02-.2,0-.05c.01-.11.04-.23.06-.34.04-.22.09-.45.16-.66.06-.22.14-.44.23-.67.02-.05.04-.11.07-.16.03-.08-.04.08,0,0,.01-.03.02-.05.03-.08.04-.09.08-.18.13-.27.18-.36.38-.7.6-1.03.05-.08.11-.16.17-.24l.09-.12.04-.06c.06-.08-.05.06,0,.01.12-.16.25-.31.39-.46.27-.3.55-.58.85-.85.15-.13.3-.26.46-.38.04-.03.08-.06.11-.09l-.04.03.06-.04c.09-.06.17-.13.26-.19.32-.22.65-.43.99-.62.17-.09.33-.18.51-.26.08-.04.15-.07.23-.11l.12-.05c.09-.04-.03.01-.04.02l.09-.04c.28-.12.58-.21.88-.29.14-.03.28-.06.42-.09.07-.01.15-.03.22-.04l.12-.02c-.19.03-.02,0,.03,0,.72-.08,1.44-.09,2.17-.03.09,0,.17.02.26.03l.14.02c.07,0-.12-.02-.05,0h.09c.19.04.38.08.57.12.36.08.71.18,1.06.32l.05.02c.07.03-.11-.05-.04-.02l.12.05c.08.04.16.08.24.12.26.13.61.07.76-.2.14-.25.07-.61-.2-.75h0Z"/>
              <path d="m9.44,23.97c-.16,0-.31-.07-.42-.17-.11-.09-.23-.19-.34-.3-1.06-1.02-1.83-2.51-2.1-4.09-.34-1.89.02-3.84,1-5.49.83-1.43,2.07-2.69,3.59-3.65.69-.43,1.42-.78,2.19-1.04.64-.2,1.31-.31,1.98-.34.81-.05,1.62-.02,2.43.1.8.11,1.56.35,2.28.71h0c.12.07.22.19.26.33.05.16.03.34-.05.49-.16.3-.55.36-.82.22-.08-.04-.16-.08-.24-.12l-.12-.05c-.34-.13-.69-.24-1.05-.32-.18-.04-.37-.07-.57-.11l-.18-.02c-.08,0-.17-.02-.26-.03-.72-.06-1.44-.05-2.16.03-.03,0-.1.01-.12.01h0s0,0,0,0h-.02c-.07.01-.15.03-.22.04-.14.03-.28.06-.41.09-.3.08-.59.17-.87.29l-.18.07c-.08.03-.15.07-.23.11-.17.08-.34.17-.5.26-.34.19-.67.39-.98.61-.09.06-.17.12-.26.19l-.02.02s-.04.03-.06.05c-.02.01-.03.02-.05.04-.15.12-.3.24-.46.38-.3.26-.58.55-.85.84-.13.15-.26.3-.38.45,0,0,0,0,0,0l-.12.16c-.06.08-.11.16-.17.24-.22.33-.42.67-.6,1.02-.05.09-.09.18-.13.27-.01.03-.02.05-.03.08,0,0,0,.01-.01.02v.03s-.04.07-.05.1c-.09.23-.16.45-.22.67-.06.22-.11.44-.16.66v.07c-.03.07-.04.15-.05.22,0,.02,0,.05,0,.09h0c0,.06-.01.11-.01.16-.04.42-.04.84,0,1.26,0,.1.02.19.03.28,0,.02,0,.04,0,.07,0,.04.01.07.02.11v.03c.04.2.08.39.13.58.05.19.11.37.17.55.03.09.06.18.1.27l.06.15s0,0,0,0c.14.33.31.65.5.95.09.14.19.28.29.42l.03.04s.02.03.03.04c0,0,0,.01.01.02h0c.05.08.11.14.15.19.19.22.41.43.64.62.1.08.16.2.18.35.01.18-.05.37-.17.5-.12.11-.27.17-.43.18Zm6.65-15.02c-.25,0-.49,0-.74.02-.66.03-1.32.15-1.95.34-.76.25-1.49.6-2.17,1.03-1.51.95-2.74,2.2-3.56,3.62-.97,1.64-1.32,3.57-.99,5.43.27,1.56,1.02,3.03,2.07,4.04.11.11.22.2.34.29.1.09.23.15.36.15.13,0,.26-.05.36-.15.1-.11.16-.28.14-.43,0-.08-.04-.2-.14-.28-.23-.19-.45-.4-.65-.63-.04-.05-.1-.11-.15-.18h0s0,0,0,0c0,0,0,0,0,0,0,0-.02-.03-.03-.04,0,0,0,0,0,0h0s0,0,0,0h0s-.03-.05-.03-.05c-.1-.14-.2-.28-.29-.43-.18-.29-.35-.6-.49-.92h0v-.03s-.02-.02-.02-.03h0s0,0,0,0c0,0,0,0,0,0l-.05-.12c-.04-.09-.07-.18-.1-.28-.06-.18-.12-.37-.17-.56-.05-.19-.09-.38-.13-.58v-.03s-.02-.07-.02-.12c0,0,0,0,0-.01,0,0,0,0,0,0h0s0-.04,0-.05c0,0,0,0,0,0h0s0,0,0,0h0c-.01-.1-.02-.18-.03-.26-.04-.42-.04-.85,0-1.27,0-.05,0-.1.01-.15h0s0-.04,0-.06h0s0-.04,0-.06c0,0,0,0,0,0h0s0,0,0-.01c0-.07.02-.13.03-.19v-.07c.06-.22.11-.45.17-.67.06-.22.14-.45.23-.68.01-.03.03-.07.04-.1v-.03s.02-.03.03-.05l.02-.04h0s0,0,0-.01c.04-.09.08-.18.13-.28.18-.36.38-.7.61-1.03.05-.08.11-.16.17-.24l.11-.15s0,0,0,0h0,0s.01-.02.02-.03c0,0,0,0,0,0h0s0,0,0,0c.11-.14.23-.29.36-.42.27-.3.56-.59.85-.85.16-.14.31-.27.46-.39.01-.01.03-.02.05-.04,0,0,.02-.01.03-.02h0s.04-.03.04-.03h0s.02-.01.02-.01c.09-.07.17-.13.26-.19.32-.22.65-.43.99-.62.16-.09.33-.18.51-.26.08-.04.15-.07.23-.11l.09-.04h0s.03-.01.03-.01c0,0,.01,0,.02,0h.02s0,0,0,0h.02c.28-.12.58-.22.88-.3.14-.03.28-.06.42-.09.08-.01.15-.03.23-.04h.04s.05-.01.07-.02h0s0,0,0,0c.01,0,.03,0,.04,0,.71-.08,1.45-.09,2.17-.03.09,0,.17.02.26.03h.08s0,0,0,0h0s0,0,0,0c.01,0,.03,0,.05,0,0,0,.01,0,.02,0h0s0,0,0,0c0,0,0,0,0,0h.02c.21.03.4.07.58.11.36.08.71.18,1.04.31,0,0,0,0,.01,0h0s.01,0,.02,0c.02,0,.03.01.04.02h0s0,0,0,0l.06.03c.08.04.17.08.25.12.23.12.56.08.7-.18.07-.13.08-.28.04-.42-.03-.08-.09-.2-.22-.27l.02-.04-.02.04c-.71-.36-1.46-.6-2.25-.7-.55-.08-1.11-.13-1.67-.13Z"/>
            </g>
            <g>
              <path id="_パス_10" data-name="パス 10" d="m6.39,15.05c-1.06-.27-2.15.13-2.93.86-.82.77-1.17,1.88-1.28,2.96-.11,1.16.11,2.32.28,3.47.01.07.02.13.03.2-.02-.14,0,0,0,.03v.09c.03.15.05.3.06.46.02.27.04.53.04.8,0,.14,0,.27,0,.41,0,.14-.01.27-.04.41.04-.15,0-.02,0,.02,0,.03,0,.05-.01.08-.01.07-.03.13-.04.2-.03.13-.07.26-.11.39-.02.08-.05.16-.09.23,0-.01.05-.11.01-.03l-.04.09c-.06.12-.12.23-.19.34-.03.05-.07.1-.11.15-.07.09.06-.08.01-.02l-.08.09c-.08.09-.17.18-.26.26l-.05.04-.05.04c.07-.06-.01,0-.02.02l-.08.06c-.1.07-.21.12-.32.18-.1.05.1-.04.03-.01-.04.01-.07.03-.11.04-.05.02-.11.03-.16.05-.07,0-.13.02-.19.04.09-.04.1-.01.05,0s-.09,0-.13.01c-.29.01-.57.24-.55.55.01.29.24.56.55.55,1.07-.05,1.99-.72,2.51-1.61.58-.97.65-2.16.55-3.26-.05-.62-.15-1.24-.24-1.85-.02-.13-.04-.26-.06-.4.02.13,0,.02,0,0v-.11c-.02-.08-.03-.16-.04-.24-.03-.28-.05-.57-.06-.85,0-.26,0-.51.02-.77,0-.06.01-.13.02-.19,0-.03,0-.05,0-.08.01-.13-.02.13,0,0s.04-.25.07-.38.06-.23.09-.35c.02-.05.03-.11.05-.16.02-.07.04-.15.08-.21,0,0-.05.12-.01.03.01-.03.03-.06.04-.09.02-.05.05-.1.08-.15.07-.12.14-.24.22-.35l.04-.06.04-.05-.04.06s.12-.14.14-.16c.09-.09.18-.18.28-.26l.05-.04c.08-.07-.1.07.01,0,.05-.04.1-.07.16-.11.11-.07.22-.13.33-.18.01,0,.12-.05.03-.01s.05-.02.06-.02c.05-.02.11-.04.16-.05s.13-.03.2-.05h.07s.05-.02.07-.02h-.08c.07,0,.14,0,.2,0h.17s.07,0,.1,0c.03,0,.14.04-.01,0,.07.02.13.03.2.04.28.07.61-.09.68-.38.08-.29-.1-.59-.39-.68h0Z"/>
              <path d="m.57,28.13c-.13,0-.26-.05-.36-.14-.12-.11-.2-.28-.21-.45,0-.14.04-.27.14-.38.11-.13.28-.21.46-.21.03,0,.05,0,.08,0h0s.06-.02.08-.02c.04,0,.07-.01.11-.02.05-.01.1-.03.15-.04.03,0,.05-.02.08-.03.11-.05.21-.11.31-.17l.08-.06s.02-.01.03-.02c0,0,.01,0,.02-.01l.07-.06c.09-.08.18-.17.26-.26l.08-.1s.06-.08.08-.12c.07-.11.13-.22.19-.33l.04-.09s.01-.02.01-.03c.02-.05.04-.11.06-.17.04-.13.08-.26.11-.39.01-.06.03-.13.04-.2,0-.03.01-.05.01-.07h0s0,0,0-.02h0s0,0,0-.01c0,0,0-.02,0-.02.02-.12.03-.24.03-.36,0-.14,0-.28,0-.41,0-.25-.02-.51-.04-.8-.01-.15-.03-.3-.05-.46v-.09s-.01-.05-.02-.07c0,0,0,0,0-.01,0-.05-.01-.1-.02-.15-.02-.17-.05-.34-.07-.51-.15-.97-.3-1.98-.2-2.98.13-1.3.56-2.3,1.29-2.99.85-.8,1.96-1.12,2.97-.87h.03c.3.11.47.43.39.74-.03.14-.12.26-.25.34-.15.09-.33.12-.48.08-.03,0-.06-.01-.09-.02,0,0-.01,0-.02,0-.01,0-.03,0-.06-.01h-.03s0,0,0,0c-.02,0-.05,0-.08,0h-.17c-.05,0-.11.01-.17.01,0,0,0,0-.01,0h-.06c-.07.03-.14.04-.19.06-.05.02-.11.03-.16.05-.02,0-.03.01-.04.02,0,0-.01,0-.02,0h-.02c-.11.06-.22.12-.33.19-.05.03-.11.07-.16.11,0,0,0,0-.01,0l-.05.04c-.09.08-.19.17-.27.26,0,0-.01.02-.03.03-.06.08-.09.11-.11.13l-.03.04c-.08.11-.15.23-.22.35-.03.05-.05.1-.08.15v.02s-.03.04-.04.06c0,.02-.02.04-.02.05-.02.04-.03.09-.04.13-.02.06-.04.11-.05.17-.04.12-.06.23-.09.35-.03.12-.05.23-.07.36,0,0,0,.01,0,.02,0,0,0,.02,0,.03,0,.01,0,.03,0,.04,0,.07-.01.13-.02.19-.02.25-.03.51-.02.76,0,.26.03.54.06.85v.04c.01.07.02.14.03.2v.11s.01,0,.01.01c.02.13.04.26.06.39l.05.32c.07.5.15,1.02.2,1.53.12,1.36-.06,2.44-.56,3.28-.58.98-1.53,1.59-2.55,1.64,0,0-.02,0-.03,0Zm.12-1.1h0s-.06,0-.09,0c-.15,0-.29.08-.39.18-.06.06-.12.17-.12.32,0,.14.07.29.18.39.06.06.17.12.32.12.99-.05,1.92-.64,2.48-1.59.49-.83.67-1.88.55-3.23-.04-.51-.12-1.03-.2-1.53l-.05-.32c-.02-.11-.03-.22-.05-.33,0-.02,0-.04,0-.09v-.1c-.02-.07-.03-.14-.04-.21v-.04c-.04-.31-.06-.59-.07-.86,0-.26,0-.52.02-.77,0-.06.01-.13.02-.19,0,0,0-.02,0-.03,0-.01,0-.02,0-.03,0-.02,0-.04.01-.06.02-.12.04-.23.06-.34.03-.12.06-.23.09-.35.02-.06.03-.11.05-.16.01-.06.03-.11.06-.17,0-.02.02-.04.02-.05,0,0,0,0,0,0h0s0,0,0,0h0s0-.02.01-.03v-.02c.04-.05.06-.1.09-.15.07-.12.14-.23.21-.34h0l.1-.13h0s.04-.05.05-.06c.01-.02.03-.04.03-.04.09-.1.18-.19.28-.27l.02-.02s.02-.02.03-.03c.01,0,.03-.02.04-.03.04-.03.09-.06.13-.09.1-.07.21-.13.33-.18,0,0,0,0,.01,0h0s0,0,0,0c0,0,.01,0,.02,0,.01,0,.02,0,.03-.01,0,0,0,0,0,0h0s.02,0,.03-.01c.06-.02.11-.04.17-.05.05-.02.13-.04.2-.05h.06s0-.01,0-.01h.08s0,0,0,0c.04,0,.08,0,.12-.01h.18s.07,0,.11,0c.03,0,.06.01.07.02,0,0,.02,0,.02,0,.03,0,.07.01.1.02.13.03.29,0,.41-.07.11-.07.19-.17.21-.28.07-.27-.09-.54-.35-.62h-.02c-.97-.24-2.04.07-2.86.84-.71.67-1.14,1.66-1.27,2.94-.09.99.06,1.99.2,2.95.03.17.05.34.07.51,0,.05.01.1.02.14h0s0,.01,0,.02c0,.01,0,.02,0,.04t0,0h0s0,.03,0,.04v.09c.03.15.05.3.06.46.03.29.04.56.04.8,0,.14,0,.28,0,.41,0,.11,0,.21-.02.32,0,0,0,.02,0,.03h0s0,0,0,0c0,.01,0,.02,0,.04,0,.01,0,.02,0,.03,0,.03,0,.06-.01.09-.01.06-.03.13-.04.2-.03.14-.07.27-.11.4-.02.06-.04.12-.06.17,0,.02-.01.04-.03.07h0l-.03.06c-.06.12-.12.23-.19.34-.02.04-.05.08-.08.11,0,.02-.02.04-.04.06,0,0-.01.02-.02.02l-.03.04c-.08.09-.17.18-.27.26l-.09.07s0,0-.01.01h0s-.02.02-.03.02l-.08.06c-.09.06-.18.11-.27.15-.01.01-.03.02-.06.03-.02,0-.03.01-.05.01-.01,0-.02,0-.03.01-.05.02-.11.03-.16.05-.03,0-.07.01-.1.02-.01,0-.03.02-.06.02h-.03s0,0-.01,0h0Z"/>
            </g>
            <g>
              <path id="_パス_11" data-name="パス 11" d="m6.33,22.18s.03.22,0,.03c0,.05.01.1.02.15.01.1.02.2.02.31,0,.2,0,.4-.01.59,0,.05,0,.1-.01.16,0,.05-.04.23,0,.04-.02.1-.03.21-.05.31-.04.2-.09.4-.15.6-.03.1-.06.19-.1.29-.02.04-.03.09-.05.13,0,.02-.02.05-.03.07-.04.11.05-.12,0-.01-.08.18-.17.37-.28.55-.1.17-.21.34-.33.5,0,.01-.07.09-.01.02s0,0-.01.02c-.03.04-.06.07-.09.11-.07.08-.14.16-.21.23s-.16.15-.24.22c-.04.03-.08.06-.11.09.13-.12,0,0-.04.03-.18.12-.37.23-.57.32-.27.12-.35.52-.2.75.18.27.47.32.76.2.82-.36,1.47-1.04,1.94-1.79.49-.81.79-1.72.88-2.66.05-.52.04-1.04-.06-1.55-.05-.28-.42-.47-.68-.38-.31.1-.44.37-.39.68h0Z"/>
              <path d="m4.34,28c-.21,0-.39-.1-.51-.28-.08-.13-.11-.32-.05-.49.05-.16.15-.28.27-.33.2-.09.39-.19.56-.31.02-.01.06-.05.08-.07,0,0,0,0,0,0h0s.01,0,.02-.01c.01,0,.02-.02.04-.03.09-.07.17-.15.24-.22.07-.07.14-.14.21-.23.03-.03.05-.05.07-.08h.01s.03-.05.03-.05c.12-.16.23-.33.33-.5.09-.16.18-.33.27-.53.01-.03.02-.05.03-.07.02-.04.03-.08.05-.12h0c.04-.11.07-.2.1-.3.06-.2.11-.4.15-.6.01-.05.02-.1.03-.16,0-.02,0-.04,0-.05,0-.02,0-.04,0-.06,0-.03.01-.06.01-.08,0-.05.01-.1.01-.15.02-.2.02-.39.01-.59,0-.1,0-.19-.02-.3,0-.02,0-.04,0-.06,0,0,0,0,0,0h0s0,0,0,0c0,0,0-.01,0-.01,0-.02,0-.04,0-.06h0v-.04c-.07-.35.1-.63.41-.73.15-.05.34-.02.49.07.14.08.23.21.25.35.09.51.11,1.04.06,1.56-.09.94-.4,1.87-.89,2.68-.37.6-1.01,1.39-1.96,1.81-.11.05-.21.07-.31.07Zm.37-1.37s-.03.03-.04.03c-.18.12-.37.23-.57.32-.1.05-.18.15-.22.27-.04.15-.03.3.04.41.15.24.42.31.7.18.93-.41,1.56-1.19,1.92-1.78.48-.8.78-1.71.88-2.64.05-.51.04-1.03-.05-1.53-.02-.11-.1-.21-.21-.28-.13-.08-.29-.1-.41-.06-.26.08-.4.31-.36.6v.03s.01.02.01.04h0v.06s.01.06.02.09c.01.11.02.21.02.31,0,.2,0,.4-.01.6,0,.05,0,.11-.01.16,0,0,0,.03,0,.04h0c0,.05-.02.1-.03.15,0,.05-.02.11-.03.16-.04.2-.09.41-.15.61-.03.1-.06.19-.1.29-.02.05-.03.1-.05.14,0,0,0,.01,0,.02,0,.01,0,.03-.01.04,0,.02-.02.04-.03.06-.09.18-.17.35-.25.5-.1.17-.2.33-.32.48,0,0,0,0,0,.01h0s-.02.02-.02.02c0,0,0,0,0,0h0s0,.02,0,.02c-.03.04-.06.07-.09.11-.07.08-.14.16-.22.23-.07.07-.16.15-.24.22-.02.02-.04.03-.06.05-.02.01-.04.03-.05.04h0Z"/>
            </g>
          </g>
        </g>
      </g>
      <rect class="cls-2" x=".33" width="130" height="37"/>
    </g>
  </g>
</svg>