<?xml version="1.0" encoding="UTF-8"?>
<svg id="_レイヤー_2" data-name="レイヤー 2" xmlns="http://www.w3.org/2000/svg" viewBox="0 0 117.27 71">
  <defs>
    <style>
      .cls-1 {
        fill: #211715;
      }

      .cls-2 {
        fill: none;
        stroke: #000;
        stroke-miterlimit: 10;
        stroke-width: .92px;
      }
    </style>
  </defs>
  <g id="_レイヤー_1-2" data-name="レイヤー 1">
    <g>
      <polygon class="cls-2" points=".46 .46 116.81 .46 116.62 70.54 .46 70.54 .46 .46 .46 .46"/>
      <g id="_レイヤー_2-2" data-name="レイヤー 2">
        <g id="_レイヤー_1-2" data-name="レイヤー 1-2">
          <path class="cls-1" d="m14.61,34.77c-1.07-2.64-2.39-5.17-3.94-7.55l1.3-.54c1.52,2.42,2.85,4.95,3.99,7.58l-1.35.52Zm3.76,10.07l-1.22-.85c5.28-4.92,8.16-9.74,10.12-17.79l1.38.34c-2.03,8.23-5.11,13.29-10.28,18.3Z"/>
          <path class="cls-1" d="m79.78,44.42c-2.38-2.72-4.94-5.27-7.65-7.65-2.6,3.03-5.68,5.61-9.11,7.65l-.95-1.04c6.4-3.73,11.25-8.86,13.41-15.11h-11.99v-1.7h13.82c-.88,3.48-2.37,6.51-4.39,9.17,2.83,2.39,5.48,4.99,7.92,7.78l-1.05.9Z"/>
          <polygon class="cls-1" points="37.12 27.42 37.12 28.27 50.73 28.27 50.73 41.88 37.12 41.88 37.12 43.58 52.43 43.58 52.43 27.42 37.12 27.42"/>
          <path class="cls-1" d="m101.67,35.15c-3.15-1.1-9.27-3.07-9.27-3.07v-6.36h-1.7v19.56h.85v-11.77c3.65.91,6.75,1.91,9.81,2.97l.31-1.33Z"/>
        </g>
      </g>
    </g>
  </g>
</svg>