<?xml version="1.0" encoding="UTF-8"?>
<svg id="_レイヤー_2" data-name="レイヤー 2" xmlns="http://www.w3.org/2000/svg" viewBox="0 0 130.33 37">
  <defs>
    <style>
      .cls-1 {
        fill: none;
      }
    </style>
  </defs>
  <g id="_レイヤー_1-2" data-name="レイヤー 1">
    <g>
      <g>
        <path d="m6.25,30.3c-2.15,0-3.73-.59-4.74-1.78s-1.51-2.97-1.51-5.36v-9.97h5.86v10c0,.88.19,1.53.56,1.96s.92.64,1.65.64c.83,0,1.52-.3,2.07-.91.55-.6.82-1.4.82-2.39v-9.31h5.86v16.72h-5.73v-2.99h.49c-.5,1.07-1.21,1.91-2.12,2.5-.91.59-1.98.89-3.21.89Z"/>
        <path d="m20.43,29.9v-12.17c0-.75-.02-1.5-.07-2.27-.04-.77-.11-1.52-.2-2.27h5.66l.33,2.9h-.36c.55-1.03,1.32-1.84,2.32-2.42,1-.58,2.14-.87,3.44-.87,1.97,0,3.44.58,4.41,1.74.96,1.16,1.45,2.96,1.45,5.4v9.97h-5.86v-9.71c0-1.07-.19-1.83-.56-2.25s-.9-.64-1.58-.64c-.94,0-1.7.3-2.27.89-.57.59-.86,1.39-.86,2.4v9.31h-5.86Z"/>
        <path d="m41.29,29.9V6.7h9.31c2.76,0,5.09.47,6.98,1.4,1.89.93,3.32,2.26,4.29,3.98s1.46,3.79,1.46,6.2-.49,4.49-1.46,6.22c-.98,1.73-2.41,3.07-4.29,4-1.89.93-4.21,1.4-6.98,1.4h-9.31Zm6.09-4.94h2.9c2.37,0,4.13-.55,5.28-1.65s1.73-2.77,1.73-5.03-.58-3.94-1.73-5.03c-1.15-1.1-2.91-1.65-5.28-1.65h-2.9v13.36Z"/>
        <path d="m66.63,29.9v-12.14c0-.77-.02-1.54-.07-2.3-.04-.77-.11-1.52-.2-2.27h5.66l.66,5.17-.89-.03c.22-1.23.56-2.25,1.02-3.08s1.06-1.44,1.79-1.84,1.6-.61,2.58-.61c.46,0,.81.02,1.04.07.23.04.48.12.74.23v5.13c-.53-.24-.96-.39-1.3-.46-.34-.07-.76-.1-1.27-.1-.92,0-1.67.16-2.24.48-.57.32-.99.81-1.25,1.48-.26.67-.39,1.51-.39,2.52v7.77h-5.89Z"/>
        <path d="m87.29,30.3c-1.43,0-2.69-.36-3.78-1.07-1.1-.71-1.96-1.72-2.58-3.01-.62-1.29-.94-2.85-.94-4.67s.31-3.36.94-4.67c.63-1.32,1.49-2.33,2.6-3.03,1.11-.7,2.36-1.05,3.77-1.05,1.32,0,2.5.31,3.54.92,1.04.61,1.73,1.43,2.06,2.43h-.33l.36-2.96h5.66c-.09.75-.15,1.5-.2,2.27-.04.77-.07,1.52-.07,2.27v12.17h-5.82l-.03-2.83h.36c-.33.97-1.01,1.74-2.06,2.34-1.04.59-2.2.89-3.47.89Zm1.91-4.38c.99,0,1.79-.35,2.4-1.04.61-.69.92-1.8.92-3.34s-.31-2.65-.92-3.34c-.61-.69-1.42-1.04-2.4-1.04s-1.79.35-2.4,1.04c-.61.69-.92,1.8-.92,3.34s.3,2.65.91,3.34c.6.69,1.41,1.04,2.42,1.04Z"/>
        <path d="m106.71,29.9l-6.91-16.72h5.92l4.18,10.99h-.82l4.11-10.99h3.68l4.11,10.99h-.69l4.08-10.99h5.63l-6.94,16.72h-4.87l-4.51-11.35h2.24l-4.28,11.35h-4.94Z"/>
      </g>
      <rect class="cls-1" x=".33" width="130" height="37"/>
    </g>
  </g>
</svg>