<?xml version="1.0" encoding="UTF-8"?>
<svg id="_レイヤー_2" data-name="レイヤー 2" xmlns="http://www.w3.org/2000/svg" viewBox="0 0 130.17 37">
  <defs>
    <style>
      .cls-1 {
        fill: none;
      }

      .cls-2 {
        fill: #211715;
      }
    </style>
  </defs>
  <g id="_レイヤー_1-2" data-name="レイヤー 1">
    <g>
      <g id="_レイヤー_2-2" data-name="レイヤー 2">
        <g id="_レイヤー_1-2" data-name="レイヤー 1-2">
          <path class="cls-2" d="m5.79,17.46C4.27,13.69,2.38,10.07.17,6.67l1.86-.78c2.17,3.46,4.08,7.08,5.7,10.83l-1.93.74Zm5.37,14.39l-1.74-1.21c7.54-7.03,11.66-13.91,14.46-25.42l1.97.49c-2.9,11.76-7.3,18.99-14.69,26.15Z"/>
          <path class="cls-2" d="m98.9,31.24c-3.4-3.88-7.05-7.53-10.93-10.93-3.72,4.32-8.11,8.01-13.01,10.93l-1.36-1.48c9.14-5.33,16.07-12.66,19.16-21.59h-17.13v-2.43h19.74c-1.26,4.98-3.39,9.29-6.27,13.1,4.04,3.42,7.83,7.13,11.31,11.12l-1.51,1.29Z"/>
          <polygon class="cls-2" points="37.96 6.96 37.96 8.17 57.4 8.17 57.4 27.61 37.96 27.61 37.96 30.04 59.83 30.04 59.83 6.96 37.96 6.96"/>
          <path class="cls-2" d="m130.17,18c-4.5-1.57-13.24-4.39-13.24-4.39V4.53h-2.43v27.94h1.21V15.66c5.21,1.3,9.64,2.72,14.02,4.24l.44-1.9Z"/>
        </g>
      </g>
      <rect class="cls-1" width="130" height="37"/>
    </g>
  </g>
</svg>