<?xml version="1.0" encoding="UTF-8"?>
<svg id="_レイヤー_2" data-name="レイヤー 2" xmlns="http://www.w3.org/2000/svg" viewBox="0 0 117.27 71">
  <defs>
    <style>
      .cls-1 {
        fill: #fff;
      }

      .cls-2 {
        fill: none;
        stroke: #000;
        stroke-miterlimit: 10;
        stroke-width: .92px;
      }
    </style>
  </defs>
  <g id="_レイヤー_1-2" data-name="レイヤー 1">
    <g>
      <polygon class="cls-2" points=".46 .46 116.81 .46 116.62 70.54 .46 70.54 .46 .46 .46 .46"/>
      <g>
        <g>
          <path d="m34.17,33.44l.15-.2c.16.13.33.22.55.22.25,0,.36-.13.36-.29,0-.19-.22-.27-.42-.35-.26-.1-.54-.22-.54-.53,0-.29.24-.52.64-.52.23,0,.43.1.57.21l-.15.2c-.13-.1-.26-.16-.42-.16-.23,0-.34.12-.34.27,0,.18.19.24.4.32.27.1.57.21.57.56,0,.3-.24.55-.67.55-.26,0-.51-.11-.69-.26Z"/>
          <path d="m35.97,30.94h.31v1.12c.16-.17.35-.31.6-.31.39,0,.57.25.57.73v1.17h-.31v-1.13c0-.35-.11-.49-.35-.49-.19,0-.32.1-.51.28v1.34h-.31v-2.71Z"/>
          <path d="m37.99,31.21c0-.12.09-.2.21-.2s.21.08.21.2c0,.13-.08.21-.21.21s-.21-.08-.21-.21Zm.05.59h.31v1.85h-.31v-1.85Z"/>
          <path d="m38.84,34c0-.16.1-.31.27-.42h0c-.1-.07-.17-.17-.17-.32s.11-.28.21-.34h0c-.12-.11-.24-.29-.24-.51,0-.41.32-.66.69-.66.1,0,.19.02.26.05h.64v.24h-.38c.09.09.15.22.15.38,0,.4-.3.64-.67.64-.09,0-.19-.02-.28-.06-.07.06-.12.12-.12.22,0,.12.07.2.32.2h.36c.43,0,.65.14.65.44,0,.34-.36.64-.94.64-.45,0-.76-.18-.76-.5Zm1.4-.1c0-.17-.13-.23-.38-.23h-.32c-.07,0-.16-.01-.24-.03-.13.1-.19.2-.19.31,0,.2.2.33.53.33.35,0,.59-.19.59-.38Zm-.24-1.49c0-.27-.18-.43-.39-.43s-.39.16-.39.43.18.44.39.44.39-.17.39-.44Z"/>
          <path d="m40.87,32.97v-1.17h.31v1.13c0,.34.1.49.35.49.19,0,.32-.09.5-.31v-1.31h.31v1.85h-.26l-.02-.29h-.01c-.17.2-.36.33-.61.33-.39,0-.56-.25-.56-.72Z"/>
          <path d="m42.96,31.8h.26l.03.34h.01c.13-.23.32-.38.52-.38.08,0,.14.01.2.04l-.06.27c-.06-.02-.11-.03-.18-.03-.15,0-.34.11-.47.43v1.19h-.31v-1.85Z"/>
          <path d="m44.14,32.73c0-.6.41-.97.83-.97.47,0,.74.34.74.87,0,.07,0,.13-.01.18h-1.25c.02.4.26.65.61.65.18,0,.33-.05.46-.15l.11.2c-.16.11-.36.19-.61.19-.49,0-.89-.36-.89-.97Zm1.3-.15c0-.37-.17-.57-.46-.57-.26,0-.49.21-.53.57h.99Z"/>
          <path d="m46.17,31.8h.26l.03.27h.01c.18-.17.37-.31.62-.31.39,0,.57.25.57.73v1.17h-.31v-1.13c0-.35-.11-.49-.35-.49-.19,0-.32.1-.51.28v1.34h-.31v-1.85Z"/>
          <path d="m48.2,31.21c0-.12.09-.2.21-.2s.21.08.21.2c0,.13-.08.21-.21.21s-.21-.08-.21-.21Zm.05.59h.31v1.85h-.31v-1.85Z"/>
          <path d="m50,32.05h-.25v-.23l.25-.02v-.3c0-.37.17-.61.54-.61.11,0,.22.02.31.06l-.07.23c-.07-.03-.14-.05-.21-.05-.18,0-.26.13-.26.36v.29h.39v.25h-.39v1.6h-.31v-1.6Z"/>
          <path d="m51.06,31.8h.26l.03.34h.01c.13-.23.32-.38.52-.38.08,0,.14.01.2.04l-.06.27c-.06-.02-.11-.03-.18-.03-.15,0-.34.11-.47.43v1.19h-.31v-1.85Z"/>
          <path d="m52.24,32.73c0-.6.41-.97.83-.97.47,0,.74.34.74.87,0,.07,0,.13-.01.18h-1.25c.02.4.26.65.61.65.18,0,.33-.05.46-.15l.11.2c-.16.11-.36.19-.61.19-.49,0-.89-.36-.89-.97Zm1.3-.15c0-.37-.17-.57-.46-.57-.26,0-.49.21-.53.57h.99Z"/>
          <path d="m54.13,32.73c0-.6.41-.97.83-.97.47,0,.74.34.74.87,0,.07,0,.13-.01.18h-1.25c.02.4.26.65.61.65.18,0,.33-.05.46-.15l.11.2c-.16.11-.36.19-.61.19-.49,0-.89-.36-.89-.97Zm1.3-.15c0-.37-.17-.57-.46-.57-.26,0-.49.21-.53.57h.99Z"/>
          <path d="m56.87,31.21c0-.12.09-.2.21-.2s.21.08.21.2c0,.13-.08.21-.21.21s-.21-.08-.21-.21Zm.05.59h.31v1.85h-.31v-1.85Z"/>
          <path d="m57.85,33.28v-2.34h.31v2.36c0,.1.04.13.09.13.02,0,.03,0,.06,0l.04.24s-.1.03-.18.03c-.23,0-.33-.15-.33-.41Z"/>
          <path d="m58.83,33.28v-2.34h.31v2.36c0,.1.04.13.09.13.02,0,.03,0,.06,0l.04.24s-.1.03-.18.03c-.23,0-.33-.15-.33-.41Z"/>
          <path d="m59.77,32.97v-1.17h.31v1.13c0,.34.1.49.35.49.19,0,.32-.09.5-.31v-1.31h.31v1.85h-.26l-.02-.29h0c-.17.2-.36.33-.61.33-.39,0-.56-.25-.56-.72Z"/>
          <path d="m61.66,33.44l.15-.2c.16.13.33.22.55.22.25,0,.36-.13.36-.29,0-.19-.22-.27-.42-.35-.26-.1-.54-.22-.54-.53,0-.29.24-.52.64-.52.23,0,.43.1.57.21l-.15.2c-.13-.1-.26-.16-.42-.16-.23,0-.34.12-.34.27,0,.18.19.24.4.32.27.1.57.21.57.56,0,.3-.24.55-.67.55-.26,0-.51-.11-.69-.26Z"/>
          <path d="m63.51,33.08v-1.02h-.28v-.23l.29-.02.04-.52h.26v.52h.5v.25h-.5v1.03c0,.23.07.36.29.36.06,0,.15-.02.21-.05l.06.23c-.11.03-.23.07-.34.07-.39,0-.53-.25-.53-.62Z"/>
          <path d="m35.29,39.25c-.23.21-.58.43-.87.57-.04-.05-.14-.14-.19-.17.3-.12.63-.3.83-.48l.23.09Zm1.8-.03c-.05-.05-.12-.12-.2-.18-.34.01-.68.02-1.01.03v.81h-.24v-.8c-.5.01-.96.02-1.32.03l-.02-.21c.22,0,.49,0,.79,0,.05-.03.1-.06.15-.09-.17-.13-.43-.28-.64-.38l.16-.14c.07.03.14.07.22.11.12-.09.26-.22.37-.33h-1.07v-.2h1.35v-.22h-.98v-.19h.98v-.22h-1.17v-.19h1.17v-.25h.25v.25h1.22v.19h-1.22v.22h1.02v.19h-1.02v.22h1.37v.2h-1.57c-.17.15-.36.31-.53.43.1.06.2.12.28.18.27-.18.53-.39.72-.56l.22.13c-.27.22-.61.46-.92.65.37,0,.78-.01,1.18-.02-.12-.09-.24-.16-.36-.23l.17-.13c.29.16.65.4.83.59l-.19.15Zm-.69-.05c.28.12.65.33.84.49l-.2.15c-.18-.15-.53-.37-.83-.5l.19-.13Z"/>
          <path d="m38.59,38.02c.14.13.52.53.61.63l-.16.22c-.09-.13-.29-.37-.45-.56v1.56h-.25v-1.66c-.16.42-.38.82-.62,1.06-.03-.07-.1-.18-.14-.24.29-.28.58-.8.72-1.29h-.64v-.24h.68v-.74h.25v.74h.59v.24h-.59v.28Zm2.05.67c-.2-.15-.57-.37-.9-.54v1.71h-.26v-3.1h.26v1.12c.34.17.79.41,1.01.57l-.11.25Z"/>
          <path d="m41.45,37.35c.22-.02.86-.09,1.49-.14.37-.03.69-.05.92-.06v.27c-.19,0-.49,0-.67.05-.48.16-.78.67-.78,1.08,0,.66.62.87,1.17.9l-.1.28c-.63-.02-1.35-.36-1.35-1.12,0-.53.32-.96.64-1.15-.36.04-1.23.12-1.6.2l-.03-.3c.13,0,.24-.01.3-.02Zm2.2.96l-.17.08c-.08-.16-.18-.34-.28-.48l.17-.08c.08.11.21.32.28.47Zm.39-.15l-.18.09c-.08-.17-.18-.33-.29-.48l.17-.08c.08.11.22.32.3.47Z"/>
          <path d="m45.73,37.15c-.02.1-.05.3-.09.49.16-.01.3-.02.38-.02.3,0,.55.12.55.58,0,.4-.05.95-.2,1.23-.11.23-.28.29-.5.29-.13,0-.29-.02-.4-.05l-.04-.28c.14.04.32.07.42.07.13,0,.23-.03.3-.17.11-.23.16-.67.16-1.04,0-.31-.15-.37-.36-.37-.08,0-.22.01-.37.02-.13.49-.36,1.26-.71,1.83l-.28-.11c.35-.47.6-1.24.72-1.7-.18.02-.34.04-.43.05-.08.01-.22.03-.31.04l-.03-.3c.11,0,.19,0,.3,0,.11,0,.31-.02.52-.04.05-.25.09-.51.09-.74l.32.03c-.01.06-.03.14-.04.2Zm1.83,1.38l-.27.13c-.1-.35-.36-.95-.61-1.23l.25-.11c.21.28.51.9.62,1.22Z"/>
          <path d="m48.67,36.91h.32c-.02.1-.04.29-.07.52,0,0,.01,0,.02,0l.1.12c-.04.06-.1.15-.15.24,0,.07-.01.15-.02.22.37-.31.76-.43,1.09-.43.47,0,.89.33.89.86,0,.68-.5,1.04-1.24,1.18l-.13-.26c.58-.08,1.09-.35,1.09-.94,0-.26-.21-.61-.66-.61-.39,0-.76.2-1.07.49,0,.14-.01.28-.01.4,0,.31,0,.52.01.82,0,.06.01.15.02.21h-.3s.01-.15.01-.2c0-.33,0-.5.01-.87,0-.03,0-.08,0-.14-.17.25-.39.58-.56.81l-.17-.23c.19-.24.58-.77.75-1.04,0-.11.01-.22.02-.33-.16.02-.45.06-.67.09l-.03-.28c.07,0,.14,0,.22,0,.11,0,.31-.03.49-.06.01-.16.02-.29.02-.32,0-.07,0-.17-.01-.25Z"/>
          <path d="m51.83,37.56c0,.21,0,.52.02.81.05.57.22.95.46.95.17,0,.33-.35.42-.69l.21.24c-.2.58-.41.78-.64.78-.32,0-.63-.32-.73-1.2-.03-.3-.04-.71-.04-.91,0-.08,0-.22-.02-.3h.33c-.01.09-.03.25-.03.34Zm2.4,1.46l-.27.11c-.06-.62-.27-1.31-.59-1.71l.27-.09c.3.39.55,1.12.6,1.69Z"/>
          <path d="m55.23,37.56c0,.21,0,.52.02.81.05.57.22.95.46.95.17,0,.33-.35.42-.69l.21.24c-.2.58-.41.78-.64.78-.32,0-.63-.32-.73-1.2-.03-.3-.04-.71-.04-.91,0-.08,0-.22-.02-.3h.33c-.01.09-.03.25-.03.34Zm2.4,1.46l-.27.11c-.06-.62-.27-1.31-.59-1.71l.27-.09c.3.39.55,1.12.6,1.69Z"/>
          <path d="m60.61,37.83c-.11.53-.28.94-.55,1.25.4.19.76.39,1.01.58l-.19.23c-.24-.19-.61-.41-1.02-.61-.37.31-.88.5-1.6.6-.03-.07-.08-.18-.13-.24.65-.09,1.12-.25,1.46-.5-.26-.12-.53-.23-.79-.33-.03.06-.05.12-.08.17l-.25-.09c.14-.28.31-.66.47-1.06h-.85v-.26h.95c.12-.28.22-.56.31-.81l.27.05c-.09.24-.19.49-.3.76h1.81v.26h-.54Zm-1.38,0c-.11.27-.22.53-.33.77.29.1.6.22.9.36.27-.28.43-.65.53-1.13h-1.1Z"/>
          <path d="m63.13,39.71l-.16-.25c.11-.01.21-.03.29-.04.44-.1.86-.42.86-1.01,0-.51-.33-.94-.91-.99-.04.32-.11.66-.2.98-.21.7-.48,1.06-.79,1.06s-.61-.35-.61-.91c0-.74.66-1.39,1.49-1.39s1.3.56,1.3,1.25-.47,1.19-1.28,1.3Zm-.9-.57c.16,0,.34-.23.51-.8.09-.28.15-.61.19-.92-.65.08-1.06.64-1.06,1.1,0,.43.2.62.35.62Z"/>
          <path d="m67.96,38.52h-1.4v1.02c0,.17-.04.25-.17.29-.13.04-.35.05-.67.04-.02-.07-.06-.19-.11-.26.27.01.52.01.6,0,.08,0,.1-.02.1-.08v-1.02h-1.41v-.25h1.41v-.54h.16c.24-.13.5-.31.7-.48h-1.92v-.25h2.24s.18.13.18.13c-.29.29-.74.61-1.11.81v.33h1.4v.25Z"/>
          <path d="m69.94,39.71l-.16-.25c.11-.01.21-.03.29-.04.44-.1.86-.42.86-1.01,0-.51-.33-.94-.91-.99-.04.32-.11.66-.2.98-.21.7-.48,1.06-.79,1.06s-.61-.35-.61-.91c0-.74.66-1.39,1.49-1.39s1.3.56,1.3,1.25-.47,1.19-1.28,1.3Zm-.9-.57c.16,0,.34-.23.51-.8.09-.28.15-.61.19-.92-.65.08-1.06.64-1.06,1.1,0,.43.2.62.35.62Z"/>
          <path d="m73.32,37.74c.35-.22.69-.52.93-.8l.23.21c-.26.27-.57.53-.92.76v1.44c0,.13,0,.3.02.36h-.33c0-.06.02-.23.02-.36v-1.26c-.36.2-.82.41-1.3.56l-.14-.27c.59-.16,1.11-.4,1.49-.64Z"/>
          <path d="m77.89,38.07c-.09.34-.25.69-.5.97-.36.39-.78.59-1.22.71l-.21-.24c.48-.1.91-.32,1.2-.62.21-.22.34-.51.4-.75h-1.81c-.08,0-.21,0-.33.01v-.29c.13.01.24.02.33.02h1.79c.08,0,.15,0,.19-.03l.19.12s-.04.07-.04.1Zm-1.85-.98h1.34c.11,0,.23,0,.31-.02v.28c-.08,0-.2-.01-.31-.01h-1.33c-.11,0-.21,0-.31.01v-.28c.09.01.2.02.31.02Z"/>
          <path d="m80.99,37.48c-.12.29-.33.69-.57,1,.36.31.77.75.99,1.02l-.24.2c-.23-.3-.59-.7-.94-1.01-.36.39-.82.77-1.33.99l-.22-.23c.55-.21,1.05-.62,1.4-1.01.23-.26.48-.66.57-.95h-1.33c-.12,0-.31.01-.34.02v-.31s.24.02.34.02h1.31c.11,0,.2-.01.26-.03l.17.13s-.06.1-.09.15Z"/>
          <path d="m82.9,37.33c0-.1,0-.25-.03-.35h.33c-.01.11-.02.25-.02.35v.55c.45.14,1.1.38,1.45.56l-.12.29c-.37-.2-.96-.43-1.34-.55,0,.51,0,1.02,0,1.12,0,.11,0,.29.02.4h-.33c.02-.11.02-.28.02-.4v-1.98Z"/>
          <path d="m86.39,39.25c-.23.21-.58.43-.87.57-.04-.05-.14-.14-.19-.17.3-.12.63-.3.83-.48l.23.09Zm1.8-.03c-.05-.05-.12-.12-.2-.18-.34.01-.68.02-1.01.03v.81h-.25v-.8c-.5.01-.96.02-1.32.03l-.02-.21c.22,0,.49,0,.79,0,.05-.03.1-.06.15-.09-.17-.13-.43-.28-.64-.38l.16-.14c.07.03.14.07.22.11.12-.09.26-.22.37-.33h-1.07v-.2h1.35v-.22h-.98v-.19h.98v-.22h-1.17v-.19h1.17v-.25h.25v.25h1.22v.19h-1.22v.22h1.02v.19h-1.02v.22h1.37v.2h-1.57c-.17.15-.36.31-.53.43.1.06.2.12.28.18.27-.18.53-.39.72-.56l.22.13c-.27.22-.61.46-.92.65.37,0,.78-.01,1.18-.02-.12-.09-.25-.16-.36-.23l.17-.13c.29.16.65.4.83.59l-.19.15Zm-.69-.05c.28.12.65.33.84.49l-.2.15c-.18-.15-.53-.37-.83-.5l.19-.13Z"/>
          <path d="m89.99,38.67c-.07-.12-.25-.36-.39-.54v1.74h-.25v-1.63c-.15.4-.34.79-.54,1.02-.03-.07-.09-.18-.14-.24.26-.28.52-.81.64-1.28h-.53v-.24h.57v-.73h.25v.73h.46v.24h-.46v.09c.13.14.47.53.55.63l-.16.22Zm1.82-.94h-.35v1.79c0,.17-.04.25-.16.29-.11.04-.31.05-.6.05-.01-.07-.05-.19-.09-.26.22,0,.44,0,.5,0,.06,0,.09-.02.09-.08v-1.45c-.27.49-.66.97-1.03,1.25-.04-.06-.12-.15-.18-.2.43-.29.87-.86,1.12-1.39h-.93v-.24h1.01v-.73h.26v.73h.35v.24Z"/>
          <path d="m93.45,39.77l-.23-.21c.62-.24.93-.53.93-1.48v-.14h-.97v.55c0,.13.01.28.01.31h-.3s.01-.18.01-.31v-.55h-.37c-.15,0-.3.01-.34.01v-.3s.2.02.34.02h.37v-.44c0-.07,0-.17-.01-.25h.3s-.02.13-.02.25v.44h.97v-.43c0-.13-.01-.25-.02-.28h.31s-.02.15-.02.28v.43h.37c.15,0,.27-.01.31-.02v.29s-.16-.01-.31-.01h-.37v.12c0,.91-.19,1.37-.97,1.72Z"/>
          <path d="m97.16,37.74c.35-.22.69-.52.93-.8l.23.21c-.26.27-.57.53-.92.76v1.44c0,.13,0,.3.02.36h-.33c.01-.06.02-.23.02-.36v-1.26c-.36.2-.82.41-1.3.56l-.14-.27c.59-.16,1.11-.4,1.49-.64Z"/>
          <path d="m99.93,37.33c0-.1,0-.25-.03-.35h.33c-.01.11-.02.25-.02.35v.55c.45.14,1.1.38,1.45.56l-.12.29c-.37-.2-.96-.43-1.34-.55,0,.51,0,1.02,0,1.12,0,.11,0,.29.02.4h-.33c.02-.11.02-.28.02-.4v-1.98Z"/>
        </g>
        <g id="_グループ_19" data-name="グループ 19">
          <path id="_パス_12" data-name="パス 12" class="cls-1" d="m11.06,41.87c.16.02,2.16,0,2.67-.16s2.36-2.24,1.69-3.87c.19-.1.39-.19.6-.26,0,0,.96,1.01,1.01,1.07s.85,1.35.85,1.35c0,0,1.65,1.02,2.65,1.3s7.04,1.94,7.71-3.26c.81-1.08,2.81-4.4-2.1-7.59s-8.96.55-9.59,1.76-.7,1.31-.7,1.31c0,0-1.28-.45-2.3.24-.87.99-1.06,1.91-.92,3.61s.31,2.64.31,2.64l-.91,1.53-.98.33Z"/>
          <g id="svg0_2" data-name="svg0 2">
            <g>
              <path id="_パス_1" data-name="パス 1" d="m26.88,35.38s.06.08.1.12c.02.02.03.04.05.06l-.03-.04.03.04c.06.09.13.18.19.27.11.17.21.35.29.54v.02s.02.03,0-.02c.01.02.02.05.03.07.02.04.03.08.05.12.04.1.07.21.1.32s.05.2.07.3c0,.04.02.08.02.13,0,.02.01.17.03.18v-.05s0,.03,0,.05c0,.02,0,.05,0,.08,0,.05,0,.1.01.15,0,.1.01.2.01.31s0,.2-.01.3c0,.05,0,.1-.01.15,0,.02,0,.05,0,.07,0-.12,0-.03,0,0-.03.19-.08.37-.14.56-.01.04-.03.07-.04.11l-.03.06s-.05.09,0,0c-.05.09-.08.18-.13.27-.04.07-.08.15-.13.22-.05.08-.12.16-.17.24.05-.09.02-.03,0,0l-.04.05s-.06.07-.09.1c-.06.07-.13.13-.19.2-.07.06-.14.12-.21.18-.02.02-.09.05,0,0-.02.01-.04.03-.06.04-.04.03-.08.05-.12.08-.17.11-.35.21-.53.3-.03.01-.16.08-.06.03-.05.02-.11.04-.16.06-.12.04-.24.08-.36.12-.22.06-.45.11-.68.15-.03,0-.06.01-.09.01.11,0,0,0-.01,0-.05,0-.1.01-.14.02-.12.01-.25.02-.37.03-.24.01-.47.01-.71.01-.27,0-.53-.02-.79-.04-.07,0-.14-.01-.21-.02h-.09s-.04-.01-.04-.01c-.13-.01-.25-.04-.38-.06-.26-.05-.52-.11-.77-.18-.13-.04-.26-.08-.39-.13-.06-.02-.13-.05-.19-.07l-.08-.03-.05-.02s.05.02.01,0c-.09-.05-.2-.06-.3-.04-.1.03-.18.09-.23.18-.09.17-.06.44.14.53.96.41,1.98.61,3.02.66,1,.05,2.04,0,2.98-.37.44-.17.85-.4,1.22-.69.32-.26.6-.57.82-.92.47-.73.65-1.61.59-2.47-.07-.91-.38-1.81-.93-2.54-.08-.1-.16-.21-.25-.3-.13-.15-.41-.15-.55,0-.15.15-.15.39,0,.54h0Z"/>
              <path d="m23.58,42.18c-.19,0-.38,0-.58-.01-1.11-.05-2.13-.27-3.03-.66-.08-.04-.15-.1-.18-.2-.04-.12-.03-.26.03-.37.06-.09.15-.16.25-.19.11-.03.22-.01.32.04l.12.05c.06.02.13.05.19.07.13.05.26.09.39.13.25.07.51.13.77.18h.06c.1.03.21.05.32.06h.13c.07.02.14.03.2.04.25.02.52.04.79.04.24,0,.48,0,.71,0,.13,0,.25-.01.37-.03.05,0,.1,0,.14-.02,0,0,.01,0,.02,0,.02,0,.03,0,.05,0h.02c.23-.04.46-.09.68-.15.12-.03.24-.07.36-.12.02,0,.04-.01.05-.02.03-.01.07-.03.1-.04,0,0,0,0,0,0h0s0,0,.01,0l.05-.03c.18-.08.36-.18.53-.29.04-.02.07-.05.11-.08,0,0,0-.01.02-.02h0s0,0,0,0c0,0,0,0,.01,0,0,0,.01,0,.02-.01.07-.06.14-.12.21-.18.07-.06.13-.13.19-.2.03-.03.06-.07.09-.1l.04-.05h0s.02-.04.03-.05c.02-.03.04-.06.07-.09.03-.03.05-.07.07-.1.04-.06.08-.14.13-.22.02-.04.04-.08.05-.11.01-.03.03-.06.04-.1,0,0,.01-.02.03-.05l.02-.06s.02-.06.03-.09v-.02c.07-.18.11-.36.14-.55,0,0,0,0,0,0,0-.05,0-.06,0-.07,0-.05,0-.1.01-.15,0-.1.01-.2.01-.3,0-.11,0-.21-.01-.3,0-.05,0-.1-.01-.15,0-.02,0-.05,0-.07-.01-.02-.02-.06-.02-.14,0-.02,0-.03,0-.04,0-.04-.02-.09-.02-.13-.02-.11-.05-.2-.07-.3-.03-.11-.06-.21-.1-.32-.01-.03-.03-.07-.04-.1v-.02s-.01-.02-.01-.02h0s0,0,0,0c0,0,0,0,0,0,0,0,0-.01,0-.02v-.02c-.09-.19-.19-.37-.3-.54-.06-.1-.13-.2-.19-.27l-.03-.04h0s-.01-.01-.02-.02c-.02-.02-.04-.04-.05-.06-.02-.02-.03-.04-.05-.06h0c-.16-.17-.16-.42,0-.59.07-.08.18-.12.3-.12h0c.12,0,.22.05.29.12.08.09.15.18.25.31.53.7.86,1.6.94,2.55.07.9-.14,1.79-.59,2.49-.22.35-.5.67-.83.93-.37.3-.79.53-1.23.7-.68.26-1.45.38-2.41.38Zm-3.41-1.38s-.06,0-.09.01c-.09.02-.16.08-.21.16-.05.09-.06.22-.02.32.02.05.06.13.15.16.9.38,1.91.6,3.01.65,1.22.06,2.17-.06,2.97-.36.44-.16.85-.4,1.21-.69.32-.26.59-.57.81-.92.44-.69.65-1.56.58-2.45-.07-.94-.4-1.83-.92-2.52-.09-.12-.17-.22-.24-.3-.06-.06-.14-.1-.24-.1-.1,0-.2.04-.26.1-.14.14-.14.36,0,.5h0s0,0,0,0c.02.02.03.04.05.06.02.02.03.04.05.06.02.02.03.04.05.06h0s0,0,0,0c.05.07.12.17.19.28.11.17.21.36.29.54h0s.02.05.03.08h0s.03.08.04.12c.04.11.07.21.1.32.03.1.05.19.07.3,0,.04.02.08.02.13,0,0,0,.02,0,.04,0,.02,0,.06,0,.08h0s.02.11.02.11h0s0,0,0,.01c0,.05,0,.1.01.15,0,.1.01.2.01.31,0,.1,0,.21-.01.31,0,.05,0,.1-.01.15,0,.01,0,.03,0,.04,0,0,0,.02,0,.03h0c-.03.19-.08.38-.14.56v.02s-.03.06-.04.09l-.02.06h0s0,0,0,0c0,0,0,0,0,0,0,.02-.02.03-.02.04-.02.03-.03.07-.05.1-.02.04-.04.08-.06.12-.05.08-.09.16-.13.22-.02.04-.05.07-.08.11-.02.03-.04.06-.06.09,0,.01-.01.03-.03.05h0s0,0,0,0l-.04.05s-.06.07-.09.1c-.06.07-.13.14-.2.2-.07.06-.14.13-.21.18h0s-.02.02-.03.02c0,0-.02.01-.02.02-.04.03-.08.05-.12.08-.17.11-.35.21-.54.3l-.05.02s-.02.01-.03.02c0,0,0,0-.01,0h0s0,0,0,0c-.02.01-.05.02-.07.03-.02,0-.04.01-.05.02-.12.04-.24.08-.36.12-.22.06-.45.11-.69.15h-.02s0,0,0,0c0,0-.02,0-.07,0h0s0,0-.01,0c-.04,0-.09.01-.14.01-.12.01-.25.02-.38.03-.23,0-.47.01-.71.01-.28,0-.54-.02-.8-.04-.07,0-.14-.01-.21-.02h-.13c-.11-.03-.22-.05-.32-.06h-.06c-.26-.06-.52-.12-.77-.19-.13-.04-.26-.08-.39-.13-.06-.02-.13-.05-.19-.07l-.1-.04h0s-.03-.01-.03-.01c0,0,0,0,0,0,0,0,0,0-.01,0h0,0c-.06-.03-.12-.04-.18-.04Z"/>
            </g>
            <g>
              <path id="_パス_2" data-name="パス 2" d="m18.83,37.06c-.38-.08-.77,0-1.1.19-.33.21-.58.51-.72.87-.28.69-.03,1.48.48,2,.29.29.65.5,1.06.61.19.05.43-.06.48-.27.05-.2-.07-.41-.27-.47-.07-.02-.13-.04-.2-.06-.01,0-.03-.01-.04-.02.08.02.06.02.03.01-.04-.02-.08-.04-.11-.06-.06-.03-.11-.06-.17-.1-.01-.01-.11-.08-.05-.04s0,0-.02-.01l-.04-.04s-.1-.09-.14-.14c-.03-.03-.05-.06-.08-.09s0-.04.02.02c-.01-.02-.02-.04-.04-.06-.04-.05-.07-.11-.1-.16-.02-.03-.03-.06-.05-.09s-.02-.06.01.03c0-.02-.02-.04-.02-.06-.02-.06-.04-.13-.06-.19,0-.03-.01-.06-.02-.09.02.12,0,0,0-.03,0-.07,0-.14,0-.2,0,.11,0,.03,0,0s.02-.08.03-.12.02-.06.03-.1c0-.01.01-.03.02-.04-.03.1-.02.05-.01.03.03-.06.07-.13.11-.19.02-.03.09-.11.01-.02.02-.02.04-.05.06-.07s.05-.05.08-.08c.03-.02.06-.05.08-.07,0,0-.08.06-.03.02.02-.01.04-.03.05-.04.03-.02.06-.04.09-.05s.14-.05.03-.02c.03-.01.06-.02.1-.04s.07-.02.11-.02c.08-.02-.08,0-.03,0h.05s.08,0,.12,0h.04s.01,0-.05,0h.05c.2.05.43-.05.48-.26.04-.19-.06-.43-.27-.47h0Z"/>
              <path d="m18.63,40.77s-.07,0-.1-.01c-.41-.11-.78-.32-1.07-.62-.57-.57-.76-1.37-.49-2.03.15-.37.4-.67.73-.89.34-.21.73-.28,1.12-.2h0c.1.02.18.07.23.16.07.1.09.23.06.35-.05.24-.31.33-.51.29h-.04s-.08,0-.12,0h-.03s-.03,0-.03,0c-.02,0-.04,0-.07.02-.01,0-.03,0-.04.01,0,0-.02,0-.02.01-.02,0-.05.02-.06.02h-.02s-.05.04-.07.05c-.01,0-.02.01-.03.02,0,0,0,0,0,0-.02.02-.05.05-.08.07-.02.02-.05.05-.07.07,0,0-.01.01-.02.02,0,0,0,.01-.01.02-.01.01-.03.03-.03.04-.04.06-.07.11-.1.17,0,.02-.01.03-.01.04,0,.02-.02.04-.02.07-.01.04-.02.08-.03.12,0,0,0,.02,0,.03,0,.02,0,.03,0,.04,0,0,0,.01,0,.02,0,.04,0,.08,0,.12,0,.01,0,.05,0,.07,0,0,0,.01,0,.02,0,0,0,.02,0,.03.01.06.03.13.05.19,0,0,0,0,0,0,0,0,0,.02.01.04.01.03.03.05.04.08.03.05.06.11.1.16.01,0,.02.02.04.05.02.02.04.04.06.06.04.05.09.09.14.13l.04.04s0,0,0,0c0,0,.02.01.03.02.01,0,.02.02.03.02.05.04.11.07.17.1.03.02.06.03.09.05.04,0,.05.02.06.03.06.02.11.04.17.05.22.06.35.29.29.51-.02.1-.09.18-.18.24-.07.04-.15.07-.23.07Zm-.12-3.71c-.27,0-.54.07-.77.22-.32.21-.57.5-.71.86-.26.64-.08,1.41.47,1.96.29.29.65.5,1.04.6.09.02.2,0,.29-.05.08-.05.13-.12.15-.2.05-.19-.06-.38-.25-.43-.06-.02-.13-.04-.2-.06h0s-.01,0-.02,0h-.01s0,0-.01,0h0s-.06-.03-.09-.05c-.06-.03-.12-.07-.17-.1,0,0-.01,0-.03-.02,0,0,0,0-.01,0h0s0,0,0,0c0,0-.01,0-.02-.01,0,0-.01,0-.02-.02l-.04-.04c-.05-.04-.1-.09-.14-.14-.02-.02-.04-.05-.06-.07h0s0,0,0,0c0,0,0,0,0,0h0s-.01-.02-.02-.03c0,0,0,0,0,0-.04-.06-.07-.11-.11-.17-.01-.02-.02-.04-.03-.07h0s0,0,0,0c0,0,0,0,0-.01h0s-.01-.03-.01-.04c-.02-.06-.04-.13-.06-.19,0-.02,0-.03,0-.05,0-.01,0-.02,0-.04,0,0,0,0,0,0h0s0-.03,0-.04c0-.04,0-.08,0-.12,0-.01,0-.02,0-.03,0-.01,0-.03,0-.04,0,0,0,0,0-.01h0s0-.01,0-.02c0-.04.02-.08.03-.12,0-.03.02-.05.03-.08,0,0,0-.02.01-.03h0s0-.02,0-.03h0c.03-.05.06-.11.09-.16,0,0,.01-.01.02-.02h0s0,0,0,0h0s.02-.02.02-.03c.01-.01.02-.03.03-.04.02-.02.05-.05.08-.08.01,0,.02-.01.03-.02,0,0,0-.01.02-.02h0s0,0,0,0c0,0,0,0,.02-.01h.01s0-.01,0-.01c0,0,0,0,0,0l.06-.06v.02s.04-.02.05-.03h.02s.02-.02.03-.03h0,0s0,0,0,0c.01,0,.02,0,.04-.01.02,0,.04-.01.06-.02.02,0,.03,0,.05-.01.01,0,.03-.01.05-.02.02,0,.04,0,.05,0,.04,0,.07,0,.11,0h0c.05,0,.07,0,.08.01.17.02.36-.06.41-.25.02-.1,0-.22-.05-.3-.03-.05-.09-.11-.19-.13h0c-.1-.02-.2-.03-.3-.03Z"/>
            </g>
            <g>
              <path id="_パス_3" data-name="パス 3" d="m24.57,36.73l.13.99c0,.05,0,.1.03.15.02.05.04.09.08.12.15.15.4.15.55,0,0,0,0,0,0,0,.07-.07.12-.17.11-.27l-.13-.99c0-.05,0-.1-.03-.15-.02-.05-.04-.09-.08-.12-.15-.15-.4-.15-.55,0,0,0,0,0,0,0-.07.07-.12.17-.11.27h0Z"/>
              <path d="m25.09,38.14c-.11,0-.22-.04-.3-.12-.04-.04-.07-.08-.09-.14-.02-.05-.04-.1-.03-.16l-.13-.99c0-.11.04-.22.12-.3h0c.16-.16.42-.16.59,0,.04.04.07.08.09.14.02.05.04.1.03.16l.13.99c0,.11-.04.22-.12.3h0c-.08.08-.18.12-.29.12Zm-.49-1.41l.13.99c0,.05,0,.1.03.14.02.05.04.09.07.12.14.14.36.14.5,0h0c.07-.07.1-.16.1-.25l-.13-.99c0-.05,0-.1-.03-.14-.02-.05-.04-.08-.07-.11-.14-.14-.36-.14-.5,0h0c-.07.07-.1.16-.1.25Z"/>
            </g>
            <g>
              <path id="_パス_4" data-name="パス 4" d="m22.66,36.78l.11,1c0,.1.04.2.11.27.07.07.17.11.27.11.1,0,.2-.04.27-.11.07-.07.12-.17.11-.27l-.11-1c0-.1-.04-.2-.11-.27-.15-.15-.4-.15-.55,0,0,0,0,0,0,0-.07.07-.12.17-.11.27Z"/>
              <path d="m23.16,38.19c-.11,0-.22-.04-.3-.12-.08-.08-.12-.19-.12-.29l-.11-1c0-.11.04-.22.12-.3.17-.16.43-.16.59,0,.08.08.12.18.12.29l.11.99c0,.11-.04.22-.12.3-.08.08-.18.12-.3.12Zm-.47-1.42l.11.99c0,.1.04.19.11.25.07.06.16.1.25.1.09,0,.18-.04.25-.1.07-.07.11-.16.1-.25l-.11-.99c0-.1-.04-.19-.11-.25-.14-.14-.36-.14-.5,0h0c-.06.07-.1.16-.1.25Z"/>
            </g>
            <g>
              <path id="_パス_5" data-name="パス 5" d="m24.76,32.94s0,.05.01.07c0-.06,0-.07-.02-.03v.02s.03.1.03.15c0,.1,0,.2,0,.3,0,.02,0,.05.04.07v.02c-.05.04-.05.03-.04-.03-.01.04-.02.09-.02.13-.02.1-.04.19-.07.29-.01.04-.03.09-.04.13-.01.02-.02.05-.03.07.02-.05.03-.06,0-.02v.02c-.05.09-.1.18-.15.27-.03.04-.05.08-.08.13-.01.02-.03.04-.04.06v.02s-.03.03,0-.02c0,.01-.07.09-.09.1-.04.04-.07.08-.11.12-.15.15-.15.39,0,.54.15.15.4.15.55,0,.68-.69.99-1.67.82-2.63-.03-.2-.29-.33-.48-.27-.22.07-.31.26-.27.47h0Z"/>
              <path d="m24.42,35.51c-.11,0-.22-.04-.3-.12-.08-.08-.12-.18-.12-.3s.04-.22.12-.29c.04-.04.07-.08.11-.12,0,0,0,0,.02-.02,0,0,.02-.02.03-.03,0,0,0,0,0-.01h0s0,0,0,0c0,0,0-.01.01-.02v-.02s.04-.04.06-.06c.03-.04.05-.08.08-.13.05-.08.1-.17.14-.26h0s.02-.05.03-.07c.02-.04.03-.08.04-.12.03-.09.05-.19.07-.29,0-.04,0-.09.02-.14h.02s-.01-.04-.01-.06c0-.1,0-.2,0-.3,0-.05,0-.09-.03-.14h0s0-.05,0-.05c0,0,0-.02,0-.02h0c-.04-.24.07-.44.29-.51.1-.03.23-.01.34.05.1.06.16.15.18.24.17.96-.14,1.96-.83,2.66-.08.08-.19.12-.3.12Zm-.04-.9s-.03.05-.08.1c0,0-.01.01-.02.02-.04.04-.07.08-.11.12-.07.07-.1.15-.1.25s.04.18.1.25c.14.14.36.14.5,0,.68-.68.98-1.66.81-2.6-.01-.08-.07-.15-.15-.2-.09-.05-.2-.07-.29-.04-.19.06-.29.23-.25.43h0s0,0,0,0c0,.01,0,.03.01.06h-.02c.02.05.02.1.03.15,0,.1,0,.2,0,.3,0,.02,0,.03.02.04h.02v.07h-.01s-.03.04-.05.04c0,.02,0,.03,0,.05-.02.1-.05.2-.08.3-.01.04-.03.09-.05.13,0,0,0,0,0,.01,0,0,0,0,0,.01h0s0,0,0,0c0,0,0,.02-.02.04h0s0,0,0,0c-.04.09-.09.18-.14.27-.03.04-.05.09-.08.13-.01.02-.02.04-.04.05Z"/>
            </g>
            <g>
              <path id="_パス_6" data-name="パス 6" d="m22.77,33.18c0,.1,0,.21-.02.31,0,.08.01-.08,0,0,0,.03,0,.06-.01.09,0,.05-.02.11-.03.16-.02.11-.05.21-.09.32-.02.05-.03.1-.05.14l-.03.07s-.04.11-.02.05-.01.02-.02.04c-.01.03-.02.05-.04.08-.02.05-.05.09-.07.13-.05.1-.11.19-.17.28-.03.04-.06.08-.09.12-.05.06.05-.06,0,0-.02.02-.04.04-.05.06-.07.08-.14.15-.22.23-.15.15-.15.39,0,.54.15.15.4.15.55,0,.72-.66,1.11-1.66,1.13-2.63,0-.21-.17-.38-.39-.38s-.39.17-.39.38h0Z"/>
              <path d="m22.13,35.94c-.11,0-.21-.04-.3-.12-.16-.16-.16-.43,0-.59.08-.07.15-.15.22-.22.02-.02.04-.04.05-.06,0,0,0,0,0,0,0,0,0,0,0,0l.02-.03s.04-.06.06-.09c.06-.09.12-.18.17-.28.02-.04.05-.09.07-.13.01-.03.03-.05.04-.08,0,0,0-.01.01-.03,0-.01.01-.02.02-.03,0-.01,0-.02,0-.02l.03-.07s.03-.09.05-.14c.03-.1.06-.21.09-.31.01-.05.02-.1.03-.16,0-.03,0-.06.01-.09h0c.01-.11.02-.21.02-.3h0c0-.24.19-.42.42-.42s.42.19.42.42c-.03,1.02-.45,2.01-1.14,2.65-.08.08-.19.12-.3.12Zm.01-.94s-.03.03-.04.05c-.07.08-.14.15-.22.23-.14.14-.14.36,0,.5.14.13.36.13.5,0,.68-.62,1.1-1.6,1.12-2.6,0-.19-.16-.35-.35-.35s-.35.16-.35.35h0c0,.1,0,.2-.02.29,0,.01,0,.02,0,.04,0,0,0,.02,0,.02,0,.02,0,.03,0,.05,0,.05-.02.11-.03.16-.02.11-.05.21-.09.32-.02.05-.03.1-.05.15l-.03.07s0,.02-.02.04c0,0,0,.01,0,.02h0s0,.01,0,.02c0,0,0,0,0,0-.01.03-.02.05-.04.08-.02.05-.05.09-.07.14-.05.1-.11.19-.17.28-.02.03-.04.06-.06.09h0s-.01.03-.01.03c0,0-.01.02-.02.03Z"/>
            </g>
            <g>
              <path id="_パス_7" data-name="パス 7" d="m20.68,33.52c-.04.2-.1.4-.18.59l-.03.07c-.03.06.03-.07,0,0-.02.05-.04.1-.07.15-.04.09-.09.18-.15.27s-.11.18-.17.26c-.03.04-.06.09-.09.13-.01.02-.03.04-.05.06,0,0,.05-.06.02-.03l-.03.04c-.13.16-.27.31-.42.45-.04.04-.09.08-.13.11-.02.02-.04.04-.06.05l-.03.02s.06-.04.02-.01c-.1.07-.19.14-.3.2-.17.11-.26.35-.14.53s.35.26.53.14c.8-.51,1.43-1.25,1.79-2.12.1-.23.17-.46.23-.7.04-.2-.06-.43-.27-.47-.2-.04-.43.06-.48.27h0Z"/>
              <path d="m19.23,36.63c-.14,0-.28-.07-.37-.21-.05-.08-.07-.18-.05-.29.02-.12.1-.22.2-.29.09-.05.17-.11.27-.18,0,0,0,0,0,0l.03-.02s.02-.02.04-.03l.02-.02s.09-.07.13-.11c.15-.14.29-.29.42-.44l.02-.02s.01-.02.02-.03h.01s.02-.05.04-.07c.02-.02.04-.05.05-.08.06-.08.11-.16.16-.26.06-.1.1-.18.14-.27.02-.04.04-.09.06-.14h0s.03-.08.03-.08c.07-.19.13-.39.18-.58h0c.02-.11.08-.18.16-.24.1-.06.23-.09.35-.06.24.05.34.31.3.51-.05.24-.13.48-.23.71-.37.88-.99,1.62-1.8,2.13-.06.04-.14.06-.21.06Zm.08-.91c-.09.07-.18.13-.27.18-.09.05-.15.15-.17.24-.01.06-.02.15.04.24.12.17.33.23.49.13.8-.51,1.41-1.23,1.78-2.1.09-.22.17-.46.22-.7.04-.17-.05-.39-.25-.43-.1-.02-.21,0-.3.05-.05.03-.12.09-.14.19h0c-.04.21-.1.41-.18.6l-.02.05s0,0,0,0h0s0,0,0,0c0,0,0,0,0,.01,0,0,0,0,0,.01h0s0,0,0,0c-.02.04-.04.09-.06.13-.04.09-.09.18-.15.27-.06.1-.11.18-.17.26-.02.03-.04.05-.06.08-.01.02-.03.03-.04.05v.02s-.02,0-.02,0h0s0,0,0,0c0,0-.01.02-.02.03h0s0,0,0,0c-.13.16-.27.31-.43.45-.04.04-.09.08-.13.11l-.03.02s-.02.02-.03.03c0,0,0,0-.01.01-.01.01-.03.02-.04.03Z"/>
            </g>
            <g>
              <path id="_パス_8" data-name="パス 8" d="m26.02,30.81c.29.13.57.29.84.47.06.04.12.08.18.12l.04.03s.07.05.02.01h.02s.06.06.06.06c.11.09.23.19.33.29.11.1.21.2.3.31.05.05.09.11.14.16.02.02.08.12.02.02.02.03.05.06.07.1.17.23.32.48.45.74.03.06.06.12.09.18,0,.02.01.03.02.05.02.05-.04-.09,0-.02.01.03.03.07.04.1.05.13.1.27.14.41s.08.29.11.44c.01.07.02.16.04.23,0,0-.01-.1,0-.03v.05s.02.1.02.15c.03.32.02.63,0,.95,0,.04,0,.08-.01.13v.05c-.01.07,0-.02,0-.03-.02.08-.03.16-.04.25-.03.16-.06.32-.11.47-.05.17-.1.34-.16.5-.01.04-.03.08-.04.11,0,.02-.02.04-.03.06-.03.07.03-.08,0,0s-.07.15-.11.23c-.07.15-.15.29-.24.43-.04.07-.09.14-.14.2,0,.01-.02.02-.03.04-.05.06.06-.07,0,0-.03.03-.05.07-.08.1-.13.15-.16.4,0,.54.14.13.41.16.55,0,.43-.52.75-1.11.95-1.75.21-.65.3-1.34.28-2.02-.05-1.31-.58-2.56-1.5-3.52-.52-.53-1.13-.96-1.8-1.27-.18-.09-.43-.06-.53.14-.09.17-.06.43.14.53h0Z"/>
              <path d="m28.22,38.86c-.11,0-.23-.04-.31-.12-.18-.16-.14-.43,0-.59.03-.03.05-.06.08-.09h0s0-.02.01-.03c.05-.07.1-.13.14-.2.09-.14.17-.28.24-.43.02-.05.05-.1.07-.14.01-.03.02-.05.04-.08,0,0,0-.02.01-.02,0-.01,0-.02.01-.04.02-.04.03-.08.04-.11.06-.16.11-.33.16-.5.04-.15.08-.31.11-.47,0-.08.02-.16.04-.24v-.03s0-.05.01-.08v-.05c.03-.31.04-.63.01-.94,0-.05,0-.1-.01-.15v-.02s-.02-.09-.03-.14c0-.03,0-.06-.01-.09-.03-.14-.07-.3-.11-.44-.04-.14-.09-.27-.14-.4l-.04-.1s-.01-.02-.02-.04c-.03-.06-.06-.12-.09-.18-.13-.26-.28-.5-.45-.73-.01-.02-.03-.03-.04-.05,0,0,0,0,0,0h0s0,0,0,0c0,0,0,0,0,0-.01-.01-.03-.04-.04-.05-.04-.05-.09-.11-.14-.16-.09-.11-.2-.21-.3-.31-.1-.1-.22-.2-.33-.29l-.06-.04s0,0,0,0c0,0-.02-.01-.02-.02l-.04-.03c-.06-.04-.12-.08-.17-.12-.26-.18-.54-.33-.83-.47h0c-.09-.04-.15-.11-.18-.21-.04-.12-.03-.25.03-.36.12-.22.38-.24.57-.15.68.31,1.29.74,1.81,1.28.92.96,1.46,2.22,1.51,3.54.02.69-.07,1.38-.29,2.03-.2.65-.52,1.24-.95,1.77-.06.07-.15.12-.25.12,0,0-.02,0-.03,0Zm-.21-.74s-.04.05-.06.07c-.12.14-.16.36,0,.5.08.07.19.11.29.1.06,0,.14-.02.21-.1.43-.52.75-1.1.94-1.74.21-.65.3-1.33.28-2.01-.05-1.31-.58-2.55-1.49-3.5-.51-.53-1.12-.96-1.79-1.27-.16-.08-.39-.06-.49.12-.05.09-.06.21-.02.31.02.06.06.13.15.17h0c.29.13.57.29.84.47.06.04.12.08.18.12l.04.03s0,0,.02.01h0s0,0,.01,0l.06.05c.12.09.23.19.33.29.11.1.21.21.3.32.05.05.1.11.14.17,0,0,.01.01.02.02h0s.02.03.04.05c.01.02.03.03.04.05.17.23.32.48.45.74.03.06.06.12.09.18,0,0,0,0,0,0h0s0,0,0,0c0,0,0,0,0,0,0,0,0,.02.01.03,0,0,0,.01,0,.02h0s0,0,0,0c0,0,0,0,0,0l.03.07c.05.13.1.27.14.41.04.14.08.3.11.44,0,.03,0,.06.01.09,0,.02,0,.05,0,.07.01.01.02.04.02.08h0v.02s.01.1.02.15c.03.32.02.64,0,.95v.05s-.01.05-.01.08v.03s0,0,0,0c0,0,0,0,0,0v.02s0,.03-.01.04c-.01.06-.02.12-.03.18-.03.17-.07.33-.11.48-.05.17-.1.34-.16.51-.01.04-.03.08-.04.11,0,.01-.01.03-.02.04,0,0,0,.02-.01.03,0,0,0,.02-.01.02,0,.02-.01.03-.02.05-.02.05-.04.1-.07.15-.07.15-.16.29-.25.43-.04.07-.09.14-.14.2,0,0,0,0,0,0,0,0,0,0,0,0h0s0,0,0,0c0,0,0,.01-.02.02,0,0,0,.01-.01.02,0,0,0,0,0,0h0s0,0,0,0Z"/>
            </g>
            <g>
              <path id="_パス_9" data-name="パス 9" d="m24.68,29.37c-.5-.25-1.03-.42-1.58-.5-.56-.09-1.13-.11-1.69-.07-.47.02-.93.1-1.38.24-.54.18-1.05.42-1.53.73-1.01.64-1.9,1.51-2.5,2.54-.68,1.15-.93,2.51-.69,3.82.18,1.05.68,2.1,1.46,2.84.08.07.15.14.24.21.07.07.17.11.27.11.1,0,.2-.04.27-.11.13-.14.17-.41,0-.54-.16-.13-.31-.28-.45-.44-.04-.04-.07-.08-.11-.13,0-.01-.02-.02-.03-.03-.04-.05.02.02.02.03-.02-.03-.04-.05-.06-.08-.07-.1-.14-.19-.2-.3-.13-.21-.25-.44-.35-.67-.03-.06,0,.02.01.03,0-.01-.01-.03-.02-.04-.01-.03-.02-.06-.04-.09-.03-.06-.05-.13-.07-.19-.04-.13-.08-.26-.12-.39s-.07-.27-.09-.41c0-.03-.01-.06-.02-.1,0-.02,0-.03,0-.05,0-.05.01.08,0,.03,0-.07-.02-.15-.02-.22-.03-.3-.03-.59,0-.89,0-.04,0-.07.01-.11s.01-.14,0-.04c0-.08.02-.16.04-.24.03-.16.07-.31.11-.47.04-.15.1-.31.16-.47.01-.04.03-.08.05-.11.02-.05-.03.06,0,0,0-.02.02-.04.02-.05.03-.07.06-.13.09-.19.12-.25.26-.49.42-.72.04-.06.08-.11.12-.17l.06-.08.03-.04c.04-.06-.04.04,0,0,.09-.11.18-.22.27-.32.19-.21.39-.41.59-.59.1-.09.21-.18.32-.27.03-.02.05-.04.08-.06l-.03.02.04-.03c.06-.05.12-.09.18-.13.22-.16.45-.3.69-.43.12-.06.23-.12.35-.18.05-.03.11-.05.16-.07l.09-.04c.06-.03-.02,0-.03.01l.06-.03c.2-.08.4-.15.61-.2.1-.02.19-.04.29-.06.05,0,.1-.02.16-.03h.08c-.13.01-.01-.01.02-.01.5-.06,1.01-.07,1.52-.02.06,0,.12.01.18.02h.1c.05.02-.08,0-.03,0h.06c.13.03.27.05.4.08.25.05.5.13.74.22h.03s-.08-.02-.03,0l.08.04c.06.03.11.05.17.08.18.09.43.05.53-.14.09-.18.05-.43-.14-.53h0Z"/>
              <path d="m17.27,39.33c-.11,0-.22-.05-.3-.12-.08-.06-.16-.13-.24-.21-.74-.72-1.28-1.76-1.47-2.86-.23-1.32.01-2.69.7-3.85.58-1,1.45-1.89,2.51-2.55.48-.3,1-.55,1.54-.73.45-.14.91-.22,1.38-.24.57-.04,1.14-.01,1.7.07.56.08,1.09.25,1.59.5h0c.09.05.15.13.18.23.03.11.02.24-.03.34-.11.21-.39.25-.57.15-.06-.03-.11-.06-.17-.08l-.08-.04c-.24-.09-.49-.17-.74-.22-.13-.03-.26-.05-.4-.07l-.12-.02c-.06,0-.12-.01-.18-.02-.5-.04-1.01-.04-1.51.02-.02,0-.07,0-.08,0h0s0,0,0,0h-.02c-.05,0-.1.02-.16.03-.1.02-.19.04-.29.06-.21.05-.41.12-.61.2l-.12.05c-.05.02-.11.05-.16.07-.12.06-.24.12-.35.18-.24.13-.47.28-.69.43-.06.04-.12.09-.18.13h-.02s-.03.03-.04.05c-.01,0-.02.02-.03.03-.1.08-.21.17-.32.27-.21.18-.41.38-.59.59-.09.1-.18.21-.27.32,0,0,0,0,0,0l-.08.11c-.04.05-.08.11-.12.16-.16.23-.3.47-.42.72-.03.06-.06.13-.09.19,0,.02-.02.04-.02.05,0,0,0,.01,0,.02v.02s-.03.05-.04.07c-.06.16-.11.32-.16.47-.04.15-.08.31-.11.46v.05c-.02.05-.03.1-.04.15,0,.02,0,.04,0,.07h0s0,.08-.01.11c-.03.29-.03.59,0,.88,0,.07.01.13.02.2,0,.01,0,.03,0,.05,0,.03,0,.05.01.08v.02c.03.14.06.27.09.4.03.13.07.26.12.39.02.06.05.13.07.19l.04.1s0,0,0,0c.1.23.22.45.35.66.06.1.13.2.2.29l.02.03s.02.02.02.03c0,0,0,0,.01.01h0c.04.06.08.1.1.13.14.16.29.3.45.43.07.06.12.14.12.24,0,.12-.04.26-.12.35-.08.08-.19.12-.3.12Zm4.65-10.51c-.17,0-.34,0-.52.02-.46.02-.92.1-1.37.24-.53.18-1.05.42-1.52.72-1.05.66-1.92,1.54-2.49,2.53-.68,1.15-.92,2.5-.69,3.8.19,1.09.72,2.12,1.45,2.82.08.07.15.14.24.21.07.07.16.1.26.11.09,0,.18-.04.25-.1.07-.08.11-.19.1-.3,0-.06-.03-.14-.1-.2-.16-.13-.32-.28-.46-.44-.03-.03-.07-.08-.11-.13h0s0,0,0,0c0,0,0,0,0,0,0,0-.02-.02-.02-.03,0,0,0,0,0,0h0s0,0,0,0h0s-.02-.03-.02-.03c-.07-.1-.14-.2-.2-.3-.13-.21-.24-.42-.34-.65h0v-.02s-.01-.02-.02-.02h0s0,0,0,0c0,0,0,0,0,0l-.03-.08c-.03-.06-.05-.13-.07-.19-.04-.13-.08-.26-.12-.39-.04-.13-.07-.27-.09-.41v-.02s-.01-.05-.02-.08c0,0,0,0,0,0,0,0,0,0,0,0h0s0-.02,0-.04c0,0,0,0,0,0h0s0,0,0,0h0c0-.07-.01-.13-.02-.18-.03-.3-.03-.6,0-.89,0-.03,0-.07.01-.1h0s0-.03,0-.04h0s0-.03,0-.04c0,0,0,0,0,0h0s0,0,0,0c0-.05.01-.09.02-.14v-.05c.04-.16.08-.31.12-.47.04-.15.1-.31.16-.47,0-.02.02-.05.03-.07v-.02s.02-.02.02-.03v-.03s.02,0,.02,0c0,0,0,0,0-.01.03-.06.06-.13.09-.19.12-.25.27-.49.42-.72.04-.06.08-.11.12-.17l.08-.11s0,0,0,0h0,0s.01-.02.02-.02c0,0,0,0,0,0h0s0,0,0,0c.08-.1.16-.2.25-.29.19-.21.39-.41.6-.6.11-.1.22-.19.32-.27.01,0,.02-.02.03-.03,0,0,.01,0,.02-.02h0s.03-.02.03-.02h0s.01,0,.01,0c.06-.05.12-.09.18-.13.22-.16.46-.3.7-.43.11-.06.23-.12.36-.18.05-.03.11-.05.16-.07l.06-.03h0s.02,0,.02,0c0,0,0,0,.01,0h.02s0,0,0,0h.02c.2-.09.41-.16.62-.21.1-.02.19-.04.29-.06.05,0,.11-.02.16-.03h.03s.03,0,.05-.01h0s0,0,0,0c0,0,.02,0,.03,0,.5-.06,1.01-.07,1.52-.02.06,0,.12.01.18.02h.05s0,0,0,0h0s0,0,0,0c0,0,.02,0,.03,0,0,0,0,0,.01,0h0s0,0,0,0c0,0,0,0,0,0h.02c.14.02.28.05.4.08.25.05.49.13.73.22,0,0,0,0,0,0h0s0,0,.01,0c.01,0,.02,0,.03.01h0s0,0,0,0l.04.02c.06.03.12.06.17.09.16.08.39.05.49-.12.05-.09.06-.2.03-.29-.02-.06-.06-.14-.15-.19v-.03s0,.03,0,.03c-.49-.25-1.02-.42-1.57-.49-.39-.06-.78-.09-1.17-.09Z"/>
            </g>
            <g>
              <path id="_パス_10" data-name="パス 10" d="m15.14,33.08c-.74-.19-1.51.09-2.05.6-.57.54-.82,1.31-.9,2.07-.08.81.08,1.63.19,2.43,0,.05.01.09.02.14-.01-.1,0,0,0,.02v.06c.02.11.03.21.04.32.02.19.03.37.03.56,0,.1,0,.19,0,.29,0,.1,0,.19-.03.28.02-.1,0-.01,0,.01,0,.02,0,.04,0,.06,0,.05-.02.09-.03.14-.02.09-.05.18-.08.27-.01.06-.03.11-.06.16,0,0,.03-.07,0-.02l-.03.06c-.04.08-.08.16-.13.24-.02.04-.05.07-.07.11-.05.06.04-.05,0-.01l-.05.06c-.06.06-.12.12-.18.18l-.04.03-.03.03c.05-.04,0,0-.02.01l-.06.04c-.07.05-.15.09-.22.12-.07.03.07-.03.02,0-.03,0-.05.02-.08.03-.04.01-.07.02-.11.03-.05,0-.09.02-.14.03.06-.03.07,0,.03,0s-.06,0-.09,0c-.2,0-.4.17-.39.38,0,.2.17.4.39.38.75-.04,1.39-.5,1.76-1.13.4-.68.46-1.51.39-2.28-.04-.43-.11-.87-.17-1.3-.01-.09-.03-.19-.04-.28.01.09,0,.02,0,0v-.08c-.02-.06-.02-.11-.03-.17-.02-.2-.04-.4-.04-.6,0-.18,0-.36.01-.54,0-.04,0-.09.01-.13,0-.02,0-.04,0-.05.01-.09-.01.09,0,0s.03-.18.05-.26.04-.16.06-.24c.01-.04.02-.08.04-.11.01-.05.03-.1.06-.15,0,0-.04.08,0,.02,0-.02.02-.04.03-.06.02-.04.04-.07.05-.11.05-.09.1-.17.16-.25l.03-.04.03-.04-.03.04s.08-.1.09-.11c.06-.07.13-.13.19-.18l.04-.03c.06-.05-.07.05,0,0,.04-.03.07-.05.11-.07.07-.05.15-.09.23-.13,0,0,.08-.03.02,0s.03-.01.04-.02c.04-.01.08-.03.11-.04s.09-.02.14-.03h.05s.03-.01.05-.02h-.06s.09,0,.14,0h.12s.05,0,.07,0c.02,0,.1.03,0,0,.05.01.09.02.14.03.19.05.43-.06.48-.27.05-.2-.07-.41-.27-.47h0Z"/>
              <path d="m11.07,42.24c-.09,0-.18-.04-.25-.1-.09-.08-.14-.2-.15-.31,0-.1.03-.19.1-.27.08-.09.2-.14.32-.15.02,0,.04,0,.06,0h0s.04-.01.06-.01c.03,0,.05,0,.08-.01.03,0,.07-.02.11-.03.02,0,.04-.01.06-.02.07-.03.15-.07.22-.12l.06-.04s.01,0,.02-.02c0,0,0,0,.01,0l.05-.04c.06-.06.12-.12.18-.18l.06-.07s.04-.06.06-.08c.05-.07.09-.15.13-.23l.03-.06s0-.02.01-.02c.02-.04.03-.08.04-.12.03-.09.05-.18.08-.27.01-.05.02-.09.03-.14,0-.02,0-.03,0-.05h0s0,0,0-.01h0s0,0,0,0c0,0,0-.01,0-.02.01-.08.02-.17.02-.25,0-.1,0-.19,0-.29,0-.17-.01-.35-.03-.56-.01-.11-.02-.21-.04-.32v-.06s-.01-.03-.01-.05c0,0,0,0,0,0,0-.03,0-.07-.02-.1-.02-.12-.03-.24-.05-.35-.1-.68-.21-1.38-.14-2.08.09-.91.4-1.61.91-2.1.59-.56,1.37-.79,2.08-.61h.02c.21.08.33.3.28.51-.02.1-.09.18-.18.24-.1.06-.23.08-.34.05-.02,0-.04,0-.06-.01,0,0,0,0-.01,0,0,0-.02,0-.04,0h-.02s0,0,0,0c-.02,0-.03,0-.05,0h-.12s-.08,0-.12.01c0,0,0,0,0,0h-.04s-.1.03-.14.04c-.04.01-.08.02-.11.04-.01,0-.02,0-.03.01,0,0,0,0-.02,0h-.02c-.08.04-.16.09-.23.13-.04.02-.07.05-.11.07,0,0,0,0,0,0l-.03.03c-.07.06-.13.12-.19.18,0,0,0,.01-.02.02-.04.05-.06.08-.08.09l-.02.03c-.06.08-.11.16-.16.24-.02.03-.04.07-.05.11v.02s-.02.03-.03.04c0,.02-.01.03-.02.03-.01.03-.02.06-.03.09-.01.04-.03.08-.04.12-.02.08-.05.16-.06.24-.02.08-.03.16-.05.25,0,0,0,0,0,.01,0,0,0,.01,0,.02,0,0,0,.02,0,.03,0,.05,0,.09-.01.14-.01.18-.02.36-.01.54,0,.18.02.38.04.59v.03s.01.1.02.14v.08s0,0,0,.01c.01.09.03.18.04.27l.03.23c.05.35.11.71.14,1.07.09.95-.04,1.71-.39,2.3-.4.68-1.07,1.11-1.79,1.15,0,0-.01,0-.02,0Zm.09-.77h0s-.04,0-.06,0c-.1,0-.21.05-.27.13-.04.04-.09.12-.08.22,0,.1.05.2.13.27.05.04.12.09.23.08.69-.03,1.34-.45,1.73-1.11.34-.58.47-1.32.38-2.26-.03-.36-.08-.72-.14-1.07l-.03-.23c-.01-.08-.02-.15-.03-.23,0-.01,0-.03,0-.06v-.07s-.02-.1-.03-.14v-.03c-.03-.22-.04-.42-.05-.6,0-.18,0-.36.01-.54,0-.04,0-.09.01-.13,0,0,0-.01,0-.02,0,0,0-.02,0-.02,0-.02,0-.03,0-.04.01-.08.03-.16.05-.24.02-.09.04-.16.07-.25.01-.04.02-.08.04-.12,0-.04.02-.08.04-.12,0-.01.01-.03.02-.03,0,0,0,0,0,0h0s0,0,0,0h0s0-.01,0-.02v-.02s.04-.07.06-.11c.05-.08.1-.16.15-.24h0l.07-.09h0s.03-.03.04-.04c.01-.01.02-.02.02-.03.06-.07.13-.13.2-.19h.01s.02-.03.02-.03c0,0,.02-.01.03-.02.03-.02.06-.04.09-.06.07-.05.15-.09.23-.13,0,0,0,0,0,0h0s0,0,0,0c0,0,.01,0,.02,0,0,0,.01,0,.02,0,0,0,0,0,0,0h0s.02,0,.02,0c.04-.01.08-.03.12-.04.04-.01.09-.02.14-.03h.04s0,0,0,0h.06s0,0,0,0c.03,0,.06,0,.08,0h.12s.05,0,.08,0c.02,0,.04,0,.05.01,0,0,.01,0,.02,0,.02,0,.05,0,.07.01.09.02.2,0,.29-.05.08-.05.13-.12.15-.2.05-.19-.06-.38-.25-.44h-.02c-.68-.17-1.43.05-2,.59-.5.47-.8,1.16-.89,2.05-.07.69.04,1.39.14,2.07.02.12.04.24.05.35,0,.03.01.07.01.1h0s0,0,0,.01c0,0,0,.02,0,.03t0,0h0s0,.02,0,.03v.06c.02.11.03.21.04.32.02.2.03.39.03.56,0,.1,0,.19,0,.29,0,.07,0,.15-.02.22,0,0,0,.01,0,.02h0s0,0,0,0c0,0,0,.02,0,.03,0,0,0,.02,0,.02,0,.02,0,.04-.01.06,0,.04-.02.09-.03.14-.02.1-.05.19-.08.28-.01.04-.03.08-.04.12,0,.01,0,.03-.02.05h0l-.02.04c-.04.08-.09.16-.14.24-.02.03-.04.05-.05.08,0,.01-.02.03-.03.04,0,0,0,.01-.01.01l-.02.03c-.06.07-.12.13-.19.18l-.06.05s0,0-.01,0h0s-.02.01-.02.01l-.06.04c-.06.04-.12.08-.19.11,0,0-.02.02-.04.02-.01,0-.02,0-.04.01,0,0-.02,0-.02,0-.04.01-.08.02-.11.03-.02,0-.05,0-.07.01,0,0-.02.01-.04.01h-.02s0,0,0,0h0Z"/>
            </g>
            <g>
              <path id="_パス_11" data-name="パス 11" d="m15.1,38.08s.02.16,0,.02c0,.04,0,.07.01.11,0,.07.01.14.01.21,0,.14,0,.28,0,.41,0,.04,0,.07-.01.11,0,.04-.03.16,0,.03-.01.07-.02.15-.04.22-.03.14-.06.28-.11.42-.02.07-.04.13-.07.2-.01.03-.02.06-.04.09,0,.02-.01.03-.02.05-.03.08.04-.08,0,0-.06.13-.12.26-.19.38-.07.12-.15.24-.23.35,0,0-.05.06,0,.01s0,0,0,.01c-.02.03-.04.05-.06.07-.05.06-.1.11-.15.16s-.11.11-.17.15c-.03.02-.05.04-.08.06.09-.09,0,0-.03.02-.12.09-.26.16-.4.22-.19.08-.24.37-.14.53.12.19.33.23.53.14.57-.25,1.03-.73,1.36-1.26.34-.57.55-1.2.62-1.86.04-.36.02-.73-.04-1.08-.03-.2-.29-.33-.48-.27-.22.07-.31.26-.27.47h0Z"/>
              <path d="m13.71,42.15c-.14,0-.27-.07-.35-.2-.06-.09-.07-.22-.04-.34.03-.11.1-.19.19-.23.14-.06.27-.13.39-.22.01,0,.04-.03.06-.05,0,0,0,0,0,0h0s.01,0,.02,0c0,0,.02-.01.02-.02.06-.05.12-.1.17-.15.05-.05.1-.1.15-.16.02-.02.03-.04.05-.06h0s.02-.03.02-.04c.08-.11.16-.23.23-.35.06-.11.12-.23.19-.37,0-.02.01-.04.02-.05.01-.03.02-.06.03-.09h0c.02-.07.05-.14.07-.21.04-.14.08-.28.11-.42,0-.04.01-.07.02-.11,0-.01,0-.02,0-.04,0-.01,0-.03,0-.04,0-.02,0-.04,0-.06,0-.04,0-.07.01-.11.01-.14.01-.28,0-.41,0-.07,0-.14-.01-.21,0-.01,0-.03,0-.04,0,0,0,0,0,0h0s0,0,0,0c0,0,0,0,0,0,0-.01,0-.03,0-.04h0v-.03c-.05-.24.07-.44.29-.51.1-.03.23-.01.34.05.1.06.16.15.18.24.06.36.08.73.04,1.09-.07.66-.28,1.31-.62,1.87-.26.42-.71.98-1.37,1.27-.07.03-.15.05-.22.05Zm.26-.96s-.02.02-.03.02c-.12.09-.26.16-.4.23-.07.03-.13.1-.16.19-.03.1-.02.21.03.29.11.17.29.21.49.13.65-.29,1.09-.83,1.34-1.24.34-.56.55-1.2.61-1.85.04-.36.02-.72-.04-1.07-.01-.08-.07-.15-.15-.2-.09-.06-.2-.07-.29-.05-.18.06-.28.22-.25.42v.02s0,.02,0,.03h0v.04s.01.04.01.07c0,.08.01.15.01.22,0,.14,0,.28,0,.42,0,.04,0,.08-.01.11,0,0,0,.02,0,.03h0s-.01.07-.02.11c0,.04-.01.08-.02.11-.03.14-.06.29-.11.43-.02.07-.04.13-.07.2-.01.04-.02.07-.04.1,0,0,0,0,0,.01,0,0,0,.02,0,.03,0,.02-.01.03-.02.04-.06.13-.12.24-.18.35-.07.12-.14.23-.22.34,0,0,0,0,0,0h0s-.01.02-.01.02c0,0,0,0,0,0h0s0,.01,0,.01c-.02.03-.04.05-.07.07-.05.06-.1.11-.15.16-.05.05-.11.1-.17.16-.01.01-.03.02-.04.03-.01,0-.03.02-.04.03h0Z"/>
            </g>
          </g>
        </g>
      </g>
    </g>
  </g>
</svg>