<?xml version="1.0" encoding="UTF-8"?>
<svg id="_レイヤー_2" data-name="レイヤー 2" xmlns="http://www.w3.org/2000/svg" viewBox="0 0 117.27 71">
  <defs>
    <style>
      .cls-1 {
        fill: none;
        stroke: #000;
        stroke-miterlimit: 10;
        stroke-width: .92px;
      }
    </style>
  </defs>
  <g id="_レイヤー_1-2" data-name="レイヤー 1">
    <g>
      <polygon class="cls-1" points=".46 .46 116.81 .46 116.62 70.54 .46 70.54 .46 .46 .46 .46"/>
      <g>
        <path d="m17.05,43.76c-1.51,0-2.61-.41-3.32-1.24s-1.06-2.08-1.06-3.75v-6.98h4.1v7c0,.61.13,1.07.39,1.37s.64.45,1.15.45c.58,0,1.07-.21,1.45-.63.38-.42.58-.98.58-1.67v-6.52h4.1v11.7h-4.01v-2.1h.35c-.35.75-.85,1.34-1.49,1.75-.64.41-1.39.62-2.25.62Z"/>
        <path d="m26.97,43.48v-8.52c0-.52-.02-1.05-.05-1.59-.03-.54-.08-1.07-.14-1.59h3.96l.23,2.03h-.25c.38-.72.92-1.29,1.62-1.69.7-.41,1.5-.61,2.41-.61,1.38,0,2.41.41,3.09,1.22.68.81,1.01,2.07,1.01,3.78v6.98h-4.1v-6.79c0-.75-.13-1.28-.39-1.58s-.63-.45-1.11-.45c-.66,0-1.19.21-1.59.62-.4.41-.6.98-.6,1.68v6.52h-4.1Z"/>
        <path d="m41.58,43.48v-16.24h6.52c1.93,0,3.56.33,4.88.98,1.32.65,2.32,1.58,3.01,2.79s1.02,2.65,1.02,4.34-.34,3.14-1.02,4.35c-.68,1.21-1.69,2.15-3.01,2.8-1.32.65-2.95.98-4.88.98h-6.52Zm4.26-3.45h2.03c1.66,0,2.89-.38,3.7-1.15s1.21-1.94,1.21-3.52-.4-2.76-1.21-3.52c-.81-.77-2.04-1.15-3.7-1.15h-2.03v9.35Z"/>
        <path d="m59.31,43.48v-8.5c0-.54-.02-1.07-.05-1.61-.03-.54-.08-1.07-.14-1.59h3.96l.46,3.62-.62-.02c.15-.86.39-1.58.71-2.15s.74-1.01,1.26-1.29,1.12-.43,1.81-.43c.32,0,.56.02.73.05.16.03.33.08.52.16v3.59c-.37-.17-.67-.28-.91-.32-.24-.05-.53-.07-.89-.07-.64,0-1.17.11-1.57.33-.4.22-.69.57-.88,1.04-.18.47-.28,1.06-.28,1.76v5.44h-4.12Z"/>
        <path d="m73.77,43.76c-1,0-1.88-.25-2.65-.75-.77-.5-1.37-1.2-1.81-2.11-.44-.91-.66-2-.66-3.27s.22-2.35.66-3.27c.44-.92,1.04-1.63,1.82-2.12.78-.49,1.65-.74,2.64-.74.92,0,1.75.22,2.48.65.73.43,1.21,1,1.44,1.7h-.23l.25-2.07h3.96c-.06.52-.11,1.05-.14,1.59-.03.54-.05,1.07-.05,1.59v8.52h-4.08l-.02-1.98h.25c-.23.68-.71,1.22-1.44,1.64-.73.41-1.54.62-2.43.62Zm1.34-3.06c.69,0,1.25-.24,1.68-.73.43-.48.64-1.26.64-2.34s-.22-1.85-.64-2.34c-.43-.48-.99-.73-1.68-.73s-1.25.24-1.68.73c-.43.48-.64,1.26-.64,2.34s.21,1.85.63,2.34c.42.48.99.73,1.69.73Z"/>
        <path d="m87.36,43.48l-4.84-11.7h4.15l2.93,7.69h-.58l2.88-7.69h2.58l2.88,7.69h-.48l2.86-7.69h3.94l-4.86,11.7h-3.41l-3.16-7.95h1.57l-2.99,7.95h-3.45Z"/>
      </g>
    </g>
  </g>
</svg>